<mxfile host="app.diagrams.net" modified="2022-11-08T09:05:48.667Z" agent="5.0 (Windows NT 10.0; Win64; x64) AppleWebKit/537.36 (KHTML, like Gecko) Chrome/107.0.0.0 Safari/537.36" etag="_niLMxolt7CTcrDQ18Qv" version="20.5.1" type="github">
  <diagram id="TR8h60Zx3J6u9XWfXWfS" name="第 1 页">
    <mxGraphModel dx="593" dy="363" grid="1" gridSize="10" guides="1" tooltips="1" connect="1" arrows="1" fold="1" page="1" pageScale="1" pageWidth="827" pageHeight="1169" math="0" shadow="0">
      <root>
        <mxCell id="0" />
        <mxCell id="1" parent="0" />
        <mxCell id="9yGiAa_hOHb7mivVmC5j-1" value="" style="shape=image;verticalLabelPosition=bottom;labelBackgroundColor=default;verticalAlign=top;aspect=fixed;imageAspect=0;image=data:image/png,iVBORw0KGgoAAAANSUhEUgAAAjwAAAHHCAYAAAC7soLdAAAAAXNSR0IArs4c6QAAAARnQU1BAACxjwv8YQUAAAAJcEhZcwAADsMAAA7DAcdvqGQAAMvtSURBVHhe7f1nkyTJcqYLenHe1bxPk0NxgBnQmQFm7v69+Xkr+2XvimBELnAIcJrTquriLKvWHvN4MzWt1JyFe7DUp/ptjzAzVVMz93DT8PCIPPc68eOPPzRffPF50hfNd99/13z/w/fNvXv3mnP8O9dK6Pn58+dXz0/Kzp073yR3zdHRUXP06ijXZ15rk/6lej1/9epVfi6JixcvZuHTqwfV4YP+5OsUp2JrtSo+hpgZi8Yj5Pf58+dZL168aC5cuJB16fKl5vLly0lXcp8vXpy0yWNPAvUp//lxjkGxMK7U1+tXuT+P1h5dOJ43SJbtNjmQ79bnCqrtQBO0zXrVztv5CyfjbuuIgRhP5oJy2tr5zf204WfkV2Ow422fE1t6nrerfZpjYK5Oxk69Rf1Bfnzy9JjjcRvTVJLLiMGNPZEiyNtjTj0tO2ptjm1Xvmx8x+RQTDATUV9wHKvT3SlMt30xnBp/j18by5ycGmO5rwve2F8F1pcdu+zcfbUC2/KY17a335557qs+RXdXW6O2/7vmdAjV/X+gc56Pp5VYP65fv95cu34tb9HVK1fzGoJok9ebixfysclc2flizXj58mWWnbuTuSkGtrLXGoZYp16+eJm3KrPnbc6bdj0D6lmbL126lPvNPlYxlPvN7idbJ3u2ea1I69Dro9fHayhzc+1aOy85F7jUtsef5kFrCe2fP2vX36dPnzZPnjxOsTTNzZs3mhs3bjbvv/9B8/HHnzQf/+LjPL5TCc+XX37Z3Lt/r7l//37z+PGj4w7OrybjIgaryUgP2olm0GnhevG83VHn0gCukAxcuZyb5YlIixvDPZ6U1djzZL5kQtOEpee5rzSQK2nHX7ly5c0FK9vllnnAR2miHz9+3Dx69Pj4IKH+VW7b9nlpNVkXL7YTfDEdQIwrx5J06RKJS1vX7uBXzdNnT5sHD+43D+4/SL4f5T6YzGscmGlH3HrrVvPeu+837733ft7Zd+7+1Ny581Pz8OHDHMuTJ0+YniQOjgt5LCRH+aDSAYVWMTB/zEWOKQ/xdW7Tzsf5du5T/KBDqE2S2iRDBwX756XmFL3iBXGU66+k/cGB9CId4MzVq9TuQp6Pi9kf/ZOAkFgxXxfSQYitXlTYsKV/bLDN+ybNV96PjCG1hzYextq+gHL8yWfrN8WIz+QPn8/ywfos98sY6JcYX76kv6M8TcfkyWF62nmiKo/hQkqO0/FAOY3oN8eQ9Dz1wYuBYwXa4ze1XTnjKftJZN9pbttt2g8UcsJhs7JVIKtw2n5z3wn22amgK1TaqLTtq0Wxqos3WFXYao7xE940PFVS87tiyHCmcGqMZnD2sdAcnIKi12mkrxht8oW7Y6XKtD2ZO8d+RX6dzZzwdFvR5+qBte+IcXukEZ46AE5i7JrTFn9uhHeMt3T5rcRjTbq7LRjVeC3y8ZT1Kq87SnhusK7cuJESnitpnXmW1xraXUlrxpWrl9M5MSUGnIN4Q5jH+bp5mc63z1LbZ8+eHa8dlNeOx3OrN7eX0zm4fbN+OZ976YvzYy5LMeX1cTW/L9I5kzqEX/pnjbl69Wpz9drVHMuzdO4mBtYBrUlUEE72knyxzWGvwP5asmedpz/WhlfpXP8orbPkHYz7xs2bza0k1k1yCeLT+kk+khOlJNaOp0+e5nE8Tuvuk+SDubiZbBEJzy9+4SQ8X375RU54WOyfPX+aB5sHmQJm4aDDK1dSlpWer+Y2LXIM8CgnOw8fPUwL/qPmUmp7++3bze3bt/PglLDQnoO63TEt7eLLhKZEKc0KCw8ZbT4AknjcJkRKeLKHNq482OfN3Tt3mp9SsqGDhGbE9Dr1SdurV6+tJvdaTjxY+PMYSBbSDrqW6q+ng+5SGh+LLDH9/PPPzbfffNN88+23+UrX/ZT4PE6JD+N6++23mw8//LD5za9/2/z617/JO/vzL/7SfP75X5off2wTH+zbK0fn8rwp28yJFzsrCYi3TbLSPKRxvk5xt8fLq3Yu2MHpQCXZIfY0nHwAQXt1hITkKI/pytV0YKQDNh+AT9skgtgQB9hbb73V3Lp1KyVjHBxPctLBi459CkoyKOOdBlexsH2a9Jxtml+ec9DnF2KKp01ciL1NXngOxHEpxcSxwLFzKcXPC4SsneeK62k6QEkQOdBJTPHJHJEwInyuXjYadia/qNjRqVDJNQe/5hMfnDyYe/w8SmI+cNG+mI2z9JwXUe4Ae5Kd5J8EDl+tzck7rNP27BB2V2tHVdvmZPE8aXua7CY/WG1XHBcfN2iH2m5XDwraYr8Oanaz4Q+xF17Hwsboxctr+Rg9TNvzR2nfHCVPKfFpmHaUHr6+kPZjepzt+K9jDphrjh+htmy77MDuJ0tr5tm27WV2ej9397UN2uPZxGjGlOPtCLk2N+JUvRl7zaXae36nTl1PiLOi44k35CQevHnOb6JTsnPjxvV0/ruaF3zOiZxT2kToej6f8SaONY+B8o9zbftm/1E+d+tNWguDOpkQ5ksXLTgvch5G2T6t2U/SesA6yDmavjS/JEScPzlPc95v3wxfPE4m6OPx4yfZD/HoTTPLfTpLE2r7RiL5s/N8I4331q2bad29kc/RnL9ZR1g37yUR41u332puv/V2XrtZw6+m9Y11pH1jnxLAi2l9PH8xr0skOY+ftPPGOs383rp5K69377//fvPRR580v/joFycJzw8kPHyklZKe5ykBYQHmhM8JicEzCSxGdMrzvNNYFHhnn8TiRbBcGaItnSDQwszgsbMvGAZJ0pIX0uSXkw4LIhNyIyUJBJj7SIs6tP2ysLRtsfvhhx+y2DHZf5ImnsfHlwvzpDF5V7M9fhB1HGxMPAssydedlERxxYuP+O7cuZvHxYH17rvvZn388cfNX//+b5rf//73ecL/9Kc/NX/68x+b77//Puvu3bs5PsS8vfXWrXSA3EqP2yyVMdpYEQkmSRo7iy22bcJD+7SAp7iB2IHYOciIuc2Yr+UDpz0A0kGatvlxmhfG+M4772RxcCLsiI2YgP1AGRk17bOvlBzxYpAftsRFQkSf9C87tjxnTPjFngOU4wG183wjP25ja18oDx6QKD/M849PtvmFmOYbnxqvtsDY6Yey9ri8muPSPsVHm+ReyX5IqOgTD62fE1+8kNuTiY7r1ke+cpVfA+1lXGywlQSPZUMxz9v24qSt5dhHUa2nto8U1mp78tqxtOUcT+3zkprdbPhD7IXzi7AxevHa88bxw7TNiU4SF3RIdvD5Ol/dQaZpxxyU+0xt2b5hZ58m/3Y/WbLtqcYtGrPsTu/neozbgvhOxWjGlOPtCLk2N+J0ff/Y2/an45Hd1Knri3FOdDzx5ojz4LV03spvyFcfa3HeyuerJBIekgqdM1kHOEbl42Vao0lWdJ5sy9tbA5gjC2PkYyPWHc7d9IWw5dzL+ZbnOv9qTlhftV7QNzEQC8kK6xm0CdqjfO7nzXeb8LSxpJCyHf7sPDMu1kTGRn+X03kaey4u3Lt7L5+324Tndo6JtU2x5Y+30rqSx5MSH87rilFiLpSUffjBh80nn3zWfJpE/Dnh+e67b5v/+M//aP4z6cHDB3kSWJAUaLvo8tFQ+/EHDvVxCiJYdUY7XU1o27ZtGDx2mdXYWVTaiWqvDDA5iIExaB7rHTe0/bYJD2KhffDgQZZ2OigunvNxFVct2FHtGNrPHuWL50pESDzYaezAn35qr9aQwTKp+M+JWBJXeT768KPmw48+yle3fvghJTpJJEbEgr1ixL+y1PZyIQeODtyTMbXxnsxTe98OB0t7oBE74BNor2SJ+aIfrogxJ8REvEpEmEt2Pgc1zxF2+CQmYNwkurqaRF22TwmwfLIlMeAKDn2289Vm9nY/5njTsUIiodi1T3lOuzY2rhy1V3sozwd0astzYqSdxqv5BOZHaL/mY2W1z1tflF/KffBOhatQJy8584h5Xl3Byfsi74O0b1bHN7AvsFEMigN4rH4pbuttwnMa2R77OHGV0VPbh4Zrx21py9vjyaNmJ2xfJX22mbr5mwxw5/WZRrd6lEgPc6KTeHk1HXfX0pubC+lNwqt0/ni50ot2K7tT9gXtPjPzrbZpY2OhTz4+y9VszqcHmJ2YnsLrM3lYPWo5vZ/fbL9tqnOTyPF2hGztPGr1dbO2os/vVNb1O2T/0YZ/nBtZTzlHcQ7jijrnLZ27aWfPmcSm+KjjPKV7Vzj/tn2r/9PjyLbpHKaP+vGLdJ5FPM9ryKov0Hk6n/dX/VPPeskbY5A958D2PHiyhoF8aQskL4xL53vWLWzzG+z0xpo+uNqUP2lgblaiHOV1cXXetjG2ep56OHkj/OmnnzV/89f/JQsfOeH5+puvmz/+8Q/NH//0h3y15Mcff0yLNx/LtIOkg3bxbReFNolh2w6KYOmMgdNOAxJql23Tv+Q1PwctFsL21xbwX9uedrQXPGbAmnAbT+4rSXEjOBnDSfyq03PGQpLD5ONLfbJzmDRNJplnvucnJYe01aQTk+0PG2xV5qG+mR/+o20rSk/ityi244MgteE5LwBk63VA23Lat4s5vk7myyYQElc7SAKw0YHX2q3qV37x0cbdCj+S4qQNxxBzp1htvcrkC+RLz20/lKtM5a2/dgz2xmjqQX7kg0Ms26+Sazhpm/9/ykZbpHagshrW1m5LvHLbjyXHXamDrjqwfdnHfX6nMNXfKbv0UAnP03fT6zSJxOfSs3TyfJZO6o/T6/RROkk+Tm9u+MfVnnoOmjk1bjoQ5iEfnzVHqe1R2ucXUgXfI+hJeg6B2jE6ZV/WjjVLrVz01U9lXb9D54N29HXcX9qkZ3nL8ab6XLVqd9zWQDupi2yb/zs5h7LVOZGtzqFlX9a/yttN+5g6+TkNdtbmxCd9se7oVgFh+1KcNVlk08Lcnawlv/3t75p//h//0vyP//7PeQ1sE56vv2r+/Q//nvRvzTfffNN8++23zd27d44d205wzgA1SMrLspy1pQ6tjd2OxfqxPvSYfm2dHtvnik+PbbltqwMBsehq7HYH6DHb0rf1JexclNTKh6C+Sh/EAqonTkllJSqz4xPWhnK1AdUhzYFF7fVYdqC2bFXH1voobfXco/SnttafHls/9rFtW6J25dZCmVcuhvgAr7wWW1fM0FffFW+XbZ9fjyk2GcxWItlAR5eOmoefPmwefPaoeX7rWXPxaXrHnHT1zpXm+vfXsxpeCgyvJ+FZnb/fxIRLcvPqYnqtp+15bpRe3Tuk5OtQ6To+xmJ9jTn2xzBnvEvCawHZ8zWxSyr3UBs97qKrvjwf27bqw5YpXragOtsG+p5jLx/q157f1U8N27+EvdT6OZdvO/lf//P/av6v//X/yhcqTiU8f0ji8TfffpM/0pFDu9Vg2apMlEEIPVY9Wz2Gsj2UbUStndee54pXVw2QJtLaIcWBeA56bg8Mnifr1KZ9bh/LzlLuSIvKS8pyzy/YOIHniOdlnfVZ80cbO1YP60eo3y6/ditsuWSx9XYetVV/tl89tm3K9nouynph29VsSmrloLpyW+KVl7ENpc+uK94u2ynxnLKpmXvhpJdsTjBSovHy2svm+c3nzYtbL5q7v7/b3P3rn5vH7z9uLq6u8Nz66mbz7r+9m/ROc+6lcaaH9eF2Qp9P337WvLjxorn88FJz+cHl5sKT9E6Sj9K4+sN41uxjF+k6Prrosxtz7I9hXftNodcCWz1W7Gxr5ZYhY+1q453rbXvPVnH1xdLVrwftrY3Grm0NbLQ2lNu/+qvfN//zX/5XVjXh+SqJj7U8lEAgHFoJ6pRUgFeHSnu1k3/JYneQ2oPXlufqi4+Z9HGTjY3HssMf/q3K2KD12yZPySq1o/5kMS6plUNX3VDKcQN+7bi8NhbFUcbD87Ksy5dXV2uP33KOy770nK3a6jnIt+3D669sr+eirBe2Xc2mi5pNuV0Sbz4sXTF02fb59ThlUzP3wuGjpJS8cF/O89vPc4Lz5MMnzQ//+EPz/T/9lK/0XHh+ISc87/zx7ebj//fHzSf/n1/k57kfhF9pAo8+fNQ8SP3Q7/XvruUrSFfuXmkuvEj9Js3Rxy4y9Rjts6vVr/uaWNd+U4x5/WhMc88Nz23ZGP9dbUu/HrX6MTGA+rLiG2WsF7/73V81//LP/5L0P3PCs8oeThrWYOdoB7UOk2lqnkpzuRIHtbELWYnsrUB+oKwT8t+HYsGfpDKV62pPl2gLGoeeM3hiU7nalmOzdie2m4G+1f82URyeuqjV2/I+HyV9/ap+iPYFL3arLjrbcjjzciXvXyUkp3SU2lNPu6RTR/+qzNrnx1JRr6s7+V/akvjkBCfp4tOkJxeaS48uNpcecu/OxZSApNfeyk+2q+iN/tVvqQRXlp68/6R58NmD5sl7T5sX19Obp4vpdc09QrSR/YHA+Yrzmr0yrvNcKdWpHWXCHjeljR5bVFfrs48ue6E2pYb4hz57traN5lCybUX5WrMS8iuJIe2sv5qgtBO2DahNORbrr0ui7Mv69TSlL+l0NnHM6UYid5Se5jukL6QFffVtFAWhgLLjtNjrxiHrhy3l3Oeje33Uxg6GMtXbe2BsveyArcoEbRWX7Kwf1aHygNRBaW0t7beo2tjB+lfMZexLgf9SJV4bqzmRT+2PmtRG7bsU7Cbcv8LHOSQgugIjvZH0WHieykk6sv2r1H6V1OQ6tU9tqM8JyupeGdrx8RU3J/Ox0pV7V5qrd64213681tz4/npz9aer+ablc/g1OuV7JXzpI6lTsaIibr4NRqKTr/Kk7cvrL5rXFwkwVTKO9od/DgZ7ftQ5Uo9LaFueM8t2lElqV7YByuSLrdqzHYL8Wj+lvY2DNmo3tg/Z2n6E7cO21XPVj0H+8FOzl3+1U59DkE8bp4f1b7dj0FisvP5rmsJJdrDCW2DscxYoEpH8lbJLq5+GThK0pZ7LR/p2UrmokQRQp3q1UTtbj5Q42DaoC02cFba2P8CP/JZSPWAv2hjbOSA+Ps5SvRc77W0cakv5vsnG7WHbSt7cSl77mkrsXEL53KI6T2PxfHjy8Np58vDaWU3F81XTG1CUlGrTzk/bc+mRd2is2tHIPGxvBL6QTmBpm6+UgBro6epbVvlGZRKMBF87J6m5fP9yczUlPNd+utZc/+F6c+M7JTzpNU4Ck8D+VbLNNxyjS0Y8p//8Q4WpnzL29Jy6o8tH+d6dpynRefjxo5TwPGme33zRvLyaTszEZO2K+Hcdbz8jUT4H287Wl1soH9fa2DoY064sLx+LWrlFbbrkoXLbpizz6sZgbcrHtTqL2qnePhblc1G21WOvvdp6KinL9VjlpdZhdQ/P180f/mjv4fm64deXS1ig+C0XfmPn5q2b+Xv8+bv8/M7J6ivZJDr8yjLiq9r6cSO+Ok5b0A8qsYiRyem+Gg2GRAIBdeXXzu3vtAi7IOJTGSI2bEly9INLxKnfDSIpoS8lJnZxZau4EW3xwxj1mzx8fZ0fKkT45jeI2ArsGT+/z0Ms3iK/S5TxlDFqH4B9bFH7cuth20iitCvblLHU4unD+iyx5V6/XQzx21dv6eu35quP0fNGzpFMXp1vEwYSkefX0zmAj3guv8rJyAU+ctJXxJ9cTO1PYstJRkou+Cr5s7fSa/mt57ntlZ8vJ11p7bknJpk8u5Xqb6fXeko40tkqJSVN/siKr5xjc/ev7zZ3/vpeSkSeNJcfXEm6lO+tufXlzXzzMjHh/9mt5OPay9wniY7IV6OeJ6U+6fvK/eTj4aWc/JAovbzxMn/tnUTn7u/vNT/915+a+7+537z1n281t//zdvPW57eaG9+mc8E3N5rLKaZ8leplCpzhopP3gjtLbf9zruO8yJY2SOdWxHMdc7RRe1sv0Y46nf+Acs7N9twOni+1Q9hLYG2Bcp2rqbP2PAZ8Kx7FxHqCaCPf2pZgqxjxC4oVH9jJN+30WGDDOqR4NEc1FCOiT9B4sJXUj8ZGe82B2qofu0Vqb+2Q5o7HUPbBVuNma/162HL5sv3hTwL1q3rFQ1+AbanaPTwX/neCxZgf2UP6IT+SAaADHNA5B1H+0b2PPmo+/eTT/HPU9koO7VjwP/nkk+Y3v/lNrqNMk80OJgiSIX6JmYQBW3zrd20owwdtSByUjKgeMVgSCeRR7iBiwJ4++ZVk+iAOoJ/33nsv1/GY8emHExHtiJvEhljon3Yf5F9w/DT7JbHjVyLxy68Z44/YaUvsxEnip4NBO1jaJcp4psSo9uXWw7Yp56WU2unxXHT5tOVj+x3it69+DFNsRsNLigsar87lxOHo6lH+9tLjDx/nj3q4+kGC8eJGepOSEhsSChKe/NFVSnr4WIqrNNnu7WfNg189yInE81sv88dKJDPYkMxwhebJB0+aB7982Dz6+HG+f+bJ+09TAOdyYsNHWEfX0on2SlpgXp1vrt29mj/ausr2XkpcHl1unr7ztHn4ycPm/m/vNw9/+aD5+Tfp/Jb6fPhJeiOWRNwkM8/eSW/GUmwkUsSgr74/TeX3f32/ufNf7zb3k92TDx6nWNN5J001Yzi6cpTiTXZpjPljvBSzkrXMHiQ8NTh/cx7jDarO8bxGObeyuLHlmEO01RtZnVvtAkUZPrRe6LwP9lwNtMEPUhvVcw7lsfoV1h4bG7fa0Y/sFQvnb21pp3VK2D4s2HB+1xqlfjQ3PGa+qMP3zRtpbq7fOO6PGImD/kBj8qCc+cMGf9izBezoUyrbsCU22pX7zPanPmzMdu7VD1vaaP6YA+1z6jV2sP4tKi+PCfqjjv7xy/6jDhEPbajT3NGfwO602rXknXfebT75+JMs4l4lPPfz19BR/qOZD9uERwO1gbGgf/DBB/nvSWUHqXMFikgWSIh+8Ytf5OdMgDJZtnwU9P7772UfTBQ+kA4eyvIVpDRYBmknV+JqC0kGSYgGa6EvxIRgzyThkz6JjefaOcRLkoP4uWz7k9fYkqzoahDxte3bOUC00RUgzQ1b7Imb+cOWJJI+mUuk+arRVTc3isWT6peg7MM+B/vYg7kVOlanUuurK551+quhPmxf6qerP9qX8XVhfQ0Zxyqqtu2qef6IJyUUT1MS0iYjT5pnt5/nJIBk4HU6X5IMnH/Znjh1r8zR6uOkZ28/bx589rC599ufc3sSHJIGOjv3+nzzOrW5T5Lyu5+bR794nPsjweHG5Osp2eEjLK7+kJS8uvKq/YgrJTmXki6npIWk6fEvHjU/p2QHHyRLT99tryi9vJ7ezaPkj6tAL268zPZXucJz/3Kb8Jx/nduSbD1McT5792n+GItYdT8QyQ1XhUiwLj1JJ+00Vq4Y5QlDe5Lw6BjgGOL8xHlN5zve4HEu1qKjcyftOM/p/Eo7trTRmoBfzsXyx3ldiyTncuo4x9JO53na0C/CDl/0BbQH7/VBO2I5OU+/nf3JBzbEzpb+aUNfPMaGPvLawZ+UWcVuoYw2+KI9Y0X0wZgox4Z1jrFonHk8t9q+8h/oXP3FAvqyyVWJ+qdP/DE2fDDPbEFJDNCefaQ2xKh5BvqTz3JsxK75Z0zMHf2B7BBzoGQEqQ/sheZOcQn5YH/gW7GyH/CDHTbUad40t4j2mmfa6bgBbE+rM+F5kP8A5507P7ZXeFYJj2AiCEjBMSHXrl1PnbUDwrEOBAKiLUGTBLBDNVDEH0hrk4UPsw/tSGxkq8FRrp3An4cgYPrRR2UkPOob8M9EsIM4ENgSMzuPqy5siR+Iizb0pb/Ozt/Uol6x81EUfy5Cf2+Eg0h/Twu/xMgfA8UW3yRT9EMdcdE/MeojLWIjVtTulJMXbUlX3dzYvrx+p8Yiu5o95baNfQ728RT0YujC69eyTjxD/Jb1tfI+aD/WZjBpGvPtNSzy6QEJCx8N5asvKRHgislLrnSkZObCs4t5neejrXyPTNq+TIkKCz/fqMofb3GvTHqebwJOSdLjjx6nJCm1TT6e3U7nDO6NSUkIV13u/v7n5t5f3cuJFPZXf04nwJToXP/pWr5hmUSEj5iefPQkXz3iSk+bZKHzOWG699c/56SHJAWba3fS6/1eOnneudZcJJ4UMUkaSQtXh/INz+kfCRqJD2NgUHycRowkPLS78X06KX99o/1I64cb2Y6PxnIyxCRwWmK743Dc6NzJOZbzGgsO5zTevCGd++3CxHmPMp1fuUrOuZE22HMepR3nUs6z9g0hbVlHWLQ4P+ITX9TjgzZatHWuJUbO2WwVs8Rz/GGnWBC2+ECMjXbERR1v2umLfrFlrWEN0/lZ64j60NzgS3PDFlt8UAfYMX7q8U8b/i4UdlqraMMaxPgB/yXql7iYP3wSM5+gsKWOuSVG4kbMGXVccMj9pufYUQeaN7suA3Oi/ckf2vzlZ7/MV6T4Exb0obiJhXFpP+Gb2GRv95PGBpRxLCDNHz6IlU9d6Jc61kv6oA37TuPWHDMe6vFNDoANY3pTgxKe1UdaTsKjA56O+SunDC75yxORHaUJpR3lbIGdCrTRYJmQDz9sEx4Gxd88YrJ4LNEGPyeTeC371KQrgaglPEw2O5THTCyTqhcY/rVDUBuvdnab0DAe+uC+HCU89MULCV/vvfd+/sNv/Fl7kqXbqQ92GvX0gS/Gzk5hHiPh8e0pt23sc7CPl8Lr17JOPEP8lvW18j5oP9ZmDMcJD/feXGmvjjz6+FFzLyUS9373c052Luf7X9IilxIErsa84J6ZtM3Jysv0xoBvVKWEpb3qcS774COlx7943Dx/i3bPUuLClZz0ZiXZ8vxeSni4OkMZttyUzEdZJByXU4LBx033fn8v+UgJDx8ncYWFj8RW9wFx9einv72TEp6fc2zY3/gunaTzt7rSApTakuxwJef4o7DULl+N4iMqQk3/556kPK6UjCHuE7r5FfcJpXNK8oM/fuWZZId/2VDaA3Tu5NzHAsO5nnMn5zTOiSw0PGcBoh3nV85zLH42ydAiyHrBmsA5kHMfZdSzEOs8Shvq+M03jl3qWcyVJBADbXROpU/e7HLeJl5J51XiwG97jn4vC3utK7ShPWsJb045Z2NDG8WbE4O0zzh/P3va3iuq+dE6RTzER5zYa66o19zgT3PC3NHmeO05atcnfJNMaBwlKsev9oluFyF+bFmf8EPc7Dv6ZFyfffbZqX6ZX3wpPuaRx5RRx/yyb99NCcJnv/ys+avf/VVeh/HN+iWIhUSFOBg7vrFFtMcH/ln36APfmnfmFBEXPoiT4+HTTz/N88Uay3gYi5IcjRvpGKSeZIf1GX/08ab8hKfNFCpogoBOOFAw4jX8KnVEPYOhTgImiQGzQ7CnHDukNpps7PFLOQGCfLY2J5/3puZ5gNhZeO4Jf+wEHaBMGo8p4yv17BhiJFb+tDxxExd9sLO4L4ct8TDxTDgH1LvvvpP/4Bl2/B0t6tlh+Kcf2rHjKbfxCO2UTaN+xyo443DoJvG7NvlG3pSocCPvYz7Geq8Vv0DMvS0kOs9RSgpIWB5/8CTfQ8OVHO714arP63RIkZxwQzMfTb31l7eaaz9cy8kCfh6lpIf7ZRD+uGqUv3ae2nA1haSEqz356gs3QKdEhG9Rsc03UXMFKZ+kiDkdw3SYRDlXkrhCk//oaBJ2QHLDR2r5pmMSO2yTDR9P6X4hvv7OPT75G2IPL+UEKZf/fDmPhbbHV3ekPUCvcW3tOfDnn1PC+NNPx/cgck7m3Ma5jgWP8x1bztEsWLTnvMpzzpksiLTHjnMgbdjynPMw7eiX8zvtSSIoJ6khGcIXdZThi/Oszq3UaT3gOeWce2lDGbFwjuYx9sRMAkJCxDpA39SxBugN6fVr15v30xtaYmnXnJPzt+YFaXG+e/du7oMyxYlvLdbERBkiWTi/8okviecWe95lSz3zofWUsWpN5DFzydwwPrYaFzbEiR1tiUn7TOshMZKs0A/zqTUQv6xx7RrcrtsS42Bc2q+gmLSf6Av/7AueU04/2u/Ua1/xHFt80DcxcLwxtxyDzC11GhNxsuW5NJTOKzzaIQTJxGhy+PPslB3/ZekkTRaBIB4TqHww8e3B3t7wpZ1CGyZbdijvxAvpBJKSEmx1gDH4R4/aqyVMCH3q4FAcCBu2xEgmSTbMga5JJjayw+++/y4/5oCgX2LiL8Hi+8svv2y++OKL3Afl7Lxf/vKXza9//et80PBn8TkRPHvOt7fanWgPBOaPFwQiXrbElQ+kdNAQcxd99VOo+bTlc/YrX1392jb2OdjHS+H1a1knniF+y/paeR+0H2szGPIH7q9J4mvYJC+PPnmUr/A8+iglO+89bc6vkiGuljwj+eFPP3CVJyU+XL3hm0/cVJyv8KRMgL9FxVUUEhfugeEKUU6kki+Sohc307kg+eA+HL5yfjslRe/8Kb2Z+I/b+WMtrqaQUDz8tL35mL74uCrfx8OVpNXVJO7Z4RtcJGP5ZuKUJL1IiU6Oa5Wg0R/x6O9vXbt3tU180Ouk9I8rPFypepoSOO4Z4ltZfBOMbf5m14OUhKU2OcnhbaR2xUK7ZE7sMcf5CTjncr7lvMUbP527kB6zHnBOZdHifMcfnv7uu++yPed4wAfnWHxjx7lWix58//33+QoP51i926c951Z8YaPzJedizuucq1kPuPLAc+roj3M9PjgPs1jy7WPiAsroV0kT/eFbV/KJA19KHFgDlDABdYyZvnjMuOx5XeVanJXoEBf3rTKGo9QOv6xhbPGNH+wBH+VWj2nDvGgdxh/zxjzRJ2WsbcSf+0plxMY8MEb8EJPWXuaDx2xpj3/2Da915oebrJ88Tm/6f76X7fGnsSlhYj6xYQzUaRyaK3xrDmir+WMtZl9x8YBYgPlgH3AMaV6YX2zaObyQy7S/GBfjoy/N02lNvMIjAQ6A5xqg6nlMGTtFgRE4B6natbbtxNp6+aOcA5kD+phk9uqo/ZjqeUoubL3iEYoFqGOSmHB2IAcxB8Tbt9/O3y6jHRPKQX3v3t00gXfyY8oQL3IOKGJkp/DOQ+8OeIx/2mPHAcw42DkccPRDv7Rh7JJiC4K9g0M3JQX5Rt5bL5pHfBSVb1J+1ry4/qJ5ytWcVPboF+1v1FCO+GvmlHNF6Bk3C6eEiSsz+CMxeevzt5oP/38fNO/++9v5Kg4JAh8vcVWIb33BW1/cyn8X6+0/3W5up/ZcFbqYEqHsh1NAjm21BYpT8kGyRAKUv25OopXacgUp/8HRX3IF6X5O3l5dTu/On6Z3r6k9CVi+DyclO9lP2nL1Bnuu9NDOll1NyRE3OecrPM9WdnsI5yrOX8A5nPMzi89f/vKX5t/+7d/ymz8WGs6/nFfzuTQtemw5t3L+4w9P//GPf8wLF+dye/7lMedSkhglEpzHdU5UMoI/YEGjby2AwMJHXyzuxEqcrBvAc/qinvM1ffzpT3/KcfOY8y/+OX/zUQqPiZk6YqIvHvNmnis8LPjErDUF2USLteHzzz/PfXz11Vc5XuqIQ0kg8fJc6xQ+iJd+Ef7sOlqifUI9c8CaRIws9CQIjB875o454Y04SQ0+aUeMJH38MXD2B2Nm7dIcsMWGWOkr95ESHGzRo/Smnhipk2xcQF+MG//aF+wH/Gqt1DFCjMRHHDxmix/mgpwBHzr2iJ19x5b1mD6IieOB45DxMy9jKRIeBnTygmUy5ZSdzw68crnNEJlkmykySAYgKcOlXlkck4cYJDbUaYcyifikDFt2wq3VN6bkSzbEoskvIWbFzQ6gP3uAvVjFgDQ27cD2b2KdFtCO9hxwXPnhIALeTXAvErZ6l0AdL3zas7P5rJNEiR3OGPQiwifbXUBzVtO6eP7s/A7B2jN3nmybUnMjv14cnmpxqHyIpuL5GiVlEuyu9JDEgCs2+i0cPg4iseA+Fj5y4soHV2K4IsMf8Xz//7yXExs+EsoJweo8xV87f3r7aU6S+OiLKy6U8bEQNxPjn6svJCXc2EzyxO/28FEUyU7+0xGQXOYfOSa+ldLRla/OcFUHPyQn135M8a2uzHD/zc1v0jv9FDdXpfgWGP1wdYqrP3w8hg+uQrHl6lX+bZ7Vx2h8LMbVIdoTG1+dz/ciYcuPGOabnhJspB1Gr0eOVZ032fec2zh/6/zOljZ6w0o77GiLnc6ztAHsOeexBb0ewB5j2LCIkTjgg764Ms85lHOnXU+oo1yLthZV6u0Y8MNW/fGchZW4eUxbbLDFDwkc/fBRDlvKuQqhTwnoh/bEC9izZlHGOsWWvpgb1gMWZ9YCEo5vv/s2lwF+bLKhxEixKl6h/jRXgsdqSyxaFylnPiX8gtYekgfWMhIn5oJEg3byzZZ/JbncSEkq42EcHCf0hT/mQIkZfQDz+atf/Sq3x9YmScSWc4qUcLKPUc43VrkFzxkr/vCt/Wc1hCLheRMGBgSUE44rKYFJnXPD7uWU/BAMBwcDZ6db6SBlIghIO4Cdq0FcuMBncycJD+X4ItnhQOcHDq/faBMoJTy0o71iK6GcyaEvJgaROT579rx5niaZ5y/TRMueePDJVpPHYx1A+GLncPmQdwIkPZhyYxgvOn7kiDoObrJS6umDFwtteMGwsxkD/dBvLfal0LikGoptSIylzy6/JVNsy9j6NBQvFqkLr88uDWGo3Zg4wfMrDYIFPIkkgr9dlW9QfpBei/z+zAvuc0kL0eoH/7gn522Snf8nJTv/+l7z4f/9YXP7z2lBupNO7C9TvKvzOTc/P3n3Sb7S8uCTh/mKEAkOSRGJCPfJ8JyrSfz9Ku7t4ZtbXFEi6cj3yxA+G5IRlONs/fOQ2HQ1Jsf3RTqvpPhIwN768lb+OIr7eLjqQ+JCPPzYIUlQ66N1dpzsrBIefsSQK1ZczeK3h7h5mo/WnqeEjLbH8NA83XU4HjjfaSHifKXzO4saj6lnMeOdN+dFsHZsdVxxbHIuRVAec3rO+ZKFjPMo522ukvDxls6d9K81g7WFcyv1vOnkDaWSFfqjfxuLYA1gwSRu+iMmLdi8McUnPihni08lO7aeeOmHuSEefLBWsaU/5oYrEyQ6rAVcAeKNMLeM8FIlXuLGn5I5+tS8laph6zXPbCnTHMgnqA/mgHkm6WHOSYCYc9ph76G+rFgf2Rd6Q886j3+SSuZASRV90J79yC0hzDe26pc+jxOenFe0H4Uxn4j5Ye1X7Ij9h50E9jlFWbnmhFXCYxu2KiEgBcPWBoeUiREcW54jtcUnAXMQ4kttqKeOstKPfLVq/SHaYlPuACv6Qkxom+y0v5XzhMtv6ble0BwE+EM81kGjcsAHtrz70MGLPTuaLJ3+OIC4wsNBziVSdggvWl4w7GAd2PgkLmyAvjxNwfMzRGPw7Guq4bVFm8Lre4jGomNxLryYrJZEVzhIMi48SW9++FXk/K2slJiskhM+2uEqTvtnHq7lKygkF+/84e3m5lc3ctJBAkICgL+c8Lz3tLn/y/RO8KNHOYnIydPDdML7KZ0Dkh+uBvF7PfkjtA/a3/rhSpASo+Okp2RVln/bh6TnWTpfpRj1d7dIvvJfOn9+ISc8+ccHbz/PV3eIA//5bCnfPCaDWpETnpR85as7n7YJD1eq+Ljv+CzrxbWD6DjVscqWc5SSnfzGc5XscP7i3EbSUHunXR6LtXILfrQQc67lPK/zJoseawBrBf2zThAPCQNJCW1YeKkHnV9tv5zP1QeLMIut1iL54nx96XLrgy0+WaTpQ7EQFzA3xIQt7YiR/jU3LPZc0SHx4a8WsDZQRlz4xB9+sdeaZtcFj675q6Hx6zFjVkLC/uMx66PWQ9veQpnWRB4rTsasdVprOeslV3WYB+abPmjPPHFlizHTjv1Mv/hVPoHYv/jDr/XN/OALMc+An261bUTvFZ4a1gkwIAJiAATDJLLluSaHybKJUjsg3jm0n3kyIZQBE8YOYVJerX4ICjsNHuhPB4kVMImIemLBHzuZpOXxo/YSGwcpBxv+iE0iRsUJxICtXuTKMpEObg5sPmNs4z356h99E4eyVfkMgr0ivdzzPTMpD+AH9q6lhOT6t9fyn2/gHhuu9LDYc99N/qr4X/2cfwOHRIKrJfmqxyr5wBe/28O9OvxyMb/lQ6JBwvQeH4H963vNR//3hw339nAlhntn6JuPj37+1f2UZKQTXko4SHZyMvOUj63Sa5b7cLgHh5uHOQ2Yfh6/n84nn6TF7jftjxD+/Lu0TY+5D4m/eE4ylEXytvomlsaNr/wbQ0/TO/oUy+WU7JEkMdY7f3M3jffnfJWHj9xIhPYdLUAs8Fyh/v3vf58XZ87lnAd1LuScqoVHSQiLOedxnuMHG60FwPkP6Rwrge7TIFEg8UH0wzkVe7b0WZMWbvplHSEWJUzEw9rAOZn48c0bU87bPMcWEYMWVYRfbelf/jU3v/3tb/NjFnnNCdKVC/oF4sc3W3wIfJVrqQdtaGvXJ4k6zTNrD2WMn/1AEseWMmIq+wfsrX8rxcY6iS/mlDHRD2shc8h9TMwj6GM62lg/zL32L+umYuXTEdpqXactsdKf9htxAe2JHWmdH8uohEedaHI0GZQjAmJSEQNiSxl1smEwDIIBMUgGdYOf3U47hYmyCQ8T8+zZ0+wDeyYEO3wA5aUUI30hyjhQlZyQ8PCYdvRlEx78lqIdOwpbJTts9ZgXCz71wqEtfeoAZx6Ig3HSn3yeBdhnnoL9I//oHklLSnj4iIgrMPymTf4tGhKelAy8uPk8fzTE18n5scAHv0yvB5IA7rlZXR0ikchXd1LZs7de5Ks290l4brxorqSE593/553mg399v/no//tB8+H/nRKev9zKiRD2/Krz/V+3H23x68j5RwZzwpPenJDwPLuYEp5UlhKe9iv0KeFJ/ZCIkdgQG0kOvxvE7/KgfNPyxVf5qhK/0sxv++hjukzykb+ennzmflbf/uLHF/F3NyU8+Hz0ycP87a3jhGcPX+L23Ml5isWNj42U8HA+Z8HiPIc4R3OeA87pNuHhvGrPv9iCl+wgnWd1ZYSEhHOqEh7sqde6oMRCIik5WUTbWyaIhUVabzTVB2OwCQ99YEs/yCY8SnaQzu3419zwmzhKeLQmYMNz2jEPnPNswoMPoJw25XnRO0fSDnnrFOWaZ7aUMWb2ByoTHtu/VdmHnlPHOBgn4+YxPpTw/PnPf87zCSQ82v/4kWivuWeOFCv+acvv2bGPzl9ojz3KtN9ow76jvRIejWEsTsJD8tI+spMh6IiJU0KjALRDEYPhOeWgiUOALQeQDlwOENozKNpgpwOv3EFMnuKhHBtPoIlSfCRPT1cHI5OqJEsHBS8SyplkJlsvXl7M9Ek5SQvt8Kl3I/qskng1ZvpjfLyYtIPtWDZNOT9WXXjtuwQ6ZsbIw/Nt6aqbC9tHqV3Bi63UWrB7UHr5pr11nGTw8dD1lPS89cXN/M2pS/xgX6rLHzOJdLjroyfdD5NZPaQ9v77MV835QUA+AiOBam8qTq/Pb9ot/klG2vt/0phSAoRyHHdTHD+kNxR3rrTfmHrSXuUhscqJSvJ/fL9RTobaePi4i0SJX22+9XlaGL9PfWCfEqdsv+onkzYkelzZIjY+Fst/P+tFWhyeJj1OCzlXmNLzN8a6g3jHCOcmXouc7zj/scDxUQ8fy3Me5Ku+Ry9ZbNrzNDac11j4gPMoH/PrTatNIvCtpIgfkm0X1Pbdvd544pNzs+LgOY/tekFf9s2n1hBbz3kWv/oYivM252X8cI4u1xWgP/rGB+dz+tDapD5Z24BYSaQ0N/wQL9AHfhgb/Z+8oW/XGR6zftEPc0I8xMFz5lLnQW0FNvRp1yjmRvuJOsZCvPjFl/pXv5QxNsYDWsdoZ+OlnMf0yW/g8Vhl6hdfWlMZg8RzyhUb/oiNx0D/3MhNcmTnWIlgnoujk5vl6Y+50L6jnnFSP5XOPx6Kc0TQLP6IQNrBtr9ASUAEwEGhRV8HLQFjywGng5HAsSF4+uHqCMKGciZaE4hfldGeMnYoSQbCJ/WKoZwMYuXAREw+z1Fq3pxP/+NvmrQH4638t07eunU73yANxAPa0Ug3r/E5JDExVnYgWS47EV+8E2KeiAMfzEm+Sz+JBEkv/jaONva56PM1ta+xdmpvt1a2rMQrmwPrt3wsLYH1b/vRtoZXb8v67BdDLy+6T+KjnotPLuWPufg4KP9dqZSA8OOAJCGI57Th4yaSgdcXSSRaN/kXmlMywi8W3/oyJR0/pJPrw5Q8PL+Y+kodXHidvwl29S73BaWkJiU+bLnKwlfT+TYViUu+7+dOWjhTOR87kdzwq8vcZMzv4+QfD/wpxcNHcSsf6Aa/mMw3t7hSRf85cSOxWu2r1TiBj9WI9/hbX/x5CZI0boBOCdNNfpcn+WM8OeGR7cr+eLtjcK7S+dO+2WMxzzcE326v7hwl5W1alGjLuVHnZp5zrudcSznPOd+zsHHe4/xJ8kES8s477Z9jwJaf9GDB43yIHVI7EgrO28C5Xld98IuN1gO2xIU/9hlj4TGLPYs1vmmnWHjMGLkagYiFc7fWpPJNrPrR/NA2z817H6Q141b+Ed6jo1d5fvgJFWKgX9qxJQ76YUw8Jh7GwFgYkxZ8/GtdsGhe8fHB+/xpjneTX34FGZv24x3s8Yktc6hxEy9b+mDsrOu0YfzsE/WHDXPNfudr+e+8/U5zIdXhm/q0SXPQXsxgbuUXH0psaIt/RI6gdrShjrkkBvalEh1OKPh/+PBR/ibbjz/82NpePLlnGD/sX+0X9gd9K/YuMWcff/xJFnGMTniAZEcHKcEwGA4OgmFQ2AB2TAZBM0j8KiHCP4NXwqP2tGXnIfxqUrFhoPQrG3wAA6OtJLDlQEE24SFmfNIfByAvMBKeNltuPzPEJ7HQTjYkO3ytjhdimewwFvrRzWjETxvmhG9vcaMzByTx4Qv/oO0c9Pma2tdYu3Jsnj1ltfIlsH7Lx9ISWP+2H21rePW2rM9+MXh50XVSe/WEJGf1cVDakgjkP9Hwc3q3mJIUrr7kj4lysqMsJ5m/Tm9kUhl1JB4kHTfSlvtjSHD0ezYkPvzWDYkINzGTPOVk5+nqF17zVZr2V4/bOFbJDlda6OPF+fwjhK19iovEiZuqSXqS+Br9za/TOWCV7JA4YdMOsN2I/FfRH6fFhPERU/KDPckO307jW2BXHqxuzF7NkbU/9XjH4Lykc71NOFhcb6Vz48uX7ZV8FvZXqS3HH+dFznOc17FjcSFBwg/nZq0JbDn/UtfetMrfYuQbVe1C/PJl+40pLY55YU8JBQIt1iQIiLWEtUAiBtYHYqJvfHEuxh6filGx0JZzNG9g6as97185Tqo4p9Oe5/TNIq/1Tm9qGcu777Y3OjMv+NS6xxgYH34ZN30wbuaUcz8x2/HwXHEzhvK1jS/NLdtbaf6IVzZsWVuIHf9KsoiD/vHHuBkXfVGvWATtGBtrPMkOxwA/mMhPtXClhznQnDCn9I+woy1QR1LCfNCGOq2f9Mv8EwPtWBvxKZ48edx8/8P32Z7xcDEC/1orZU8M7E982vmqiflyEp7Tfy39fnLKLwkrgSB4JkkHjw4CAmNH81zZF49Bk0kbglU9LwRsdBBJBA/UsXMQbVWvMkSywwFDuVCsVgyYpAXf+GWSuWGZH1TisSYdPXl68ivOxIl/HhMD9dizAzUHHKgkPLTDD2UcMMqcsaNc/tgSE7FoJ0pzUfNFvyVe2VzYsfVpKtrHlpq/ss+ahPXbN3eeny4J+9jDq++y9+IUXXWToGuU3OovoHM1hqsi+htWXH0h8cjJx+rKDr9mnP+tYs9lKWkiwbn0tL0ClD9ySr7UR/b5sv2oCJFMHH9stPqXbyhOdtjyONetfLDN9cl39kFc+Z6f9uZkrkrlv7CeHuf7f7Bnuui/SHiyr9V9QznZS8kYH4npRmd8XzhK5z3ZWx9J6+6HvmNmXYiPcxfnOJ2juJrDbQA6f3P+ZXFlgeL8m8+p6VwnOA/qDSnnRtrSDn/4xufTp+3Nxz//fD/7xSdtsGWt0DhfpnMuPuhX51AWSxZUYi3nk3OryhFrjz2f0w/94pcxEg99Mgb8Km5sKKcdPtSP5kbjIA5sNTeKj7WEcWg8baJ48ucoNB4e017+8amxW+hT+6RdT/lbVe1Hbw8ftr/2rPUKbGxag1jbac+Y1A91xESMmrNM2tBH65sxcaWu/TFC9jtoXWdtZJz0oTmmD/pnSz3t6Iu5pz87Rh7TL3X30/GgY0n5AH60j+iDLX0zF7TRWGoqE55zqbPXX3/9VfPvf/j35g9JPP7q66/Tgv5DdozItMj82qzvZLEmmWBHAJPJgCknu9SlO54zIOo5mAhY9lZkyvgnYWCiGCT29KGrPppg/OCPg4X48I8UL48Bv/hDipM6/mTFudWPDDIJ+c9YXEhlnJXSf/jQDtNjwA9JDXHpxcF4iIv4mCMyZ8ahWNjBzAuib+ZPcwjazkHNl+ZjKcp+7YEIXly2fiyMR7LU/JV9lY8RMQvr15s7lXl1FtuvfQz2sYdXX7Mnjq5Y+uIchXWVHpNccJ9O/o0a7ndZ3VvT3vuSxpxeOjn5oC3/eIyp+Yo3jymXL16DGW1bV61f7EpfucFpVAfq6ziuk12d+8sJUk6SKDixO25Hue0iPebHBanPsa/sKSeu3BY30op190PfMTOGMhYdQ5wP9c6dLW90+bFZfres/UiL8+KL5kXSy9XChnSe5Vyt8zRbnRsp10c8OgcC7RC+dK5V/zrvU68top2FuJmbfC5Pwo5Y6Iu2WjsUC+2pow3tBedqzudsaUMsmhfEGqLYEL/Yz2/S5XnJ89PODXb82SUhO84xigMxFvoStf2LvfrkMX/s+mKaP+53oS/8EDfJAvWMjbb0h4idtZJ6+qCOeLDVvNOOfcIP/1HHb+wRDn8Oo13H2uSJ9m19u/ZjxxxqPIjn+KIOW+0D1Ssu2mhcxMVcPH32NK/P2pfesYI/2ndJffzut79r/vmf/2fzz//jX3LcnQkPMFl5ItLgGKSCYCunBED2RTZPOxZ+3dWviWCymXQdcEj2CN/yrxcSgbc7uP0OPuVIA8cX7fIBtppY/JbgB6iXX/q0W9UjULnGjYAyfDAeDgDaa6fQhp2ntkC87EjmQWMG9antWMbYeXMyJ2Usmjsrj1p5Hzp+ynHJX+m3jKGst8cAWL/e3HllHrZf+xjs46HU7L25sAyNdzK4L5QTgPRfTjY45AnXJhpAW15ubKm3Empjse2oRxbrQ/WrfnJyclxJEYVpSyIkuzJOIV8o+VMid8rWqmDd/TDlmBmLjVHnU8RrxL5RFGoDKuc55TzHTgsWyJ9sst8kkJ3F+tJ5tjYPWgewURvbVvFYFAsC2qidHgu1AfpRXxpD2VZt5A94rjWIsVg7a1/D9mv9CtUpVtpY/7YPPVcMKNu+Wu2H1FTlIJ9CddhTZ+OyduCV5b5WdpTjR+NRnQSaL7UR1rekdmXCc9rSAWMgKGVpLOBKYJToaEFnZ5IIcAWGy1vt5c/2Ix9QIOXOxk7+2ZIo6Dn29Mlj+qFOkzAGOxHqW/2Lsoxx2yRLcVBejoOYFLPEc9oGwcHDy0bizIL0vIa1qWHbdLXrQrYpJl3pOb7aMyROi/F1ynao/Z6gc2F5TrSozp5P9VxlHmpXonKrPl+itLMq4ytl+0BDsPYeXj2Ph46nhudXqLwcT5c8anXWrmzD41qfNbra2Dqvfgq9V3jKzvRYWxZ5xKLOlnKSAGTLtUU11JfaIU0gj/FhRZIkdflXrEL96LFsrL2t12OwbYXaqB0xWxQbWF/WZixj7GysS1DG4h30HrXyPhiPZJG/0m8ZQ1mveIX1682dV+Zh+7WPwT4eSs3emwvL0HgnY917XSnUcshqy9bW2cddodOuVi8fto8+ZGP7t1gfnj9r5/hYdz9MOWbGUsao5+qbrReHyrwx2vZlfemvq38rD9pKQm11Ti5ty/6E2tn2tq3tx2sLXpsum9Leg7UE8DOkPdT64LGk58cxE6bj3rMXZUz2sfDK7JyU9aoD1Zfrq8qtaIMGf6T100/tLydiDGVCocfaAThXkmPLwQah52B92aRA2Oc8loD2kk14wNqB+le/YB9DaSPUJ/71HJTUWT+2nfD6FrXyIYyx0xim0tdXWc9+1tgkD698aJzemOSv9FvG0Fdv/XrxDI3R+tVj+3wdrH1fPEPjnYNN9lVjzNz2xev52tYY1z1m5kJx2Hj6YvPmrGY/pq1HaU97rT1zMfS4qbXrG0ONof1abFlZz3NbNtR/aSe8shq1tl0+vH5VZsX+RqM/0rLUnCKeW8q2ZX2J197TplG/GqcSHR6X2HbStuIOgiAIguCEwQlPufBLXgJQW/gFWWSZSZY23nNpDrwYPBSHHae2NiZJ8Vqpbg5sX2P9asyl9pWp8xAEwe5Svq7HvrbXsQ3e5JDmcpWlnD5ArIRXN0UeXr0tK+VRq+uz06Jv23WpTGLW0dzYJGaqxuCNqdRQvFi6NJVajFN9W7sp9lPZdH/B2cV7vYyl9FHK4tVbeXjtrObG68NKeHVoKp6vPo3Bs/dUUivfNUZ9pBXsB3YxtNonvPilIAiCIBhLJDxBEARBEBw8syc89rLXpi5zbaKfOcZjfUzx5V3tGKqlWHdMFi/uMQqCIJjznBQcFnGFZ8/Q4q6v5HuySQAKgiAIgrPOziY85aJdalN4fdc0Bs9+adXw2o6Rh9duiDaNF8McqjG0nUdpO1Rz4vnfZ/Uxxeas4M2N1Sbx+h+r4PDZ+Ss8Uw7Gfb6UaV+AQ7WPHMo4zjpz7cPST5eCIAimsNMJj3eyQzVsomM1B2PimIrXxxjNgee3pilYe+9jOIu3L7s0FzbGPvUxd2y7hDcf21KwXXZpf5SxdCk4WzgJDyfo1cMdxy526yrYLbx9NIc2yTb7DjZDuY+lIFgC71izOlS8sUpjiJuWg4x3IPUpCIIgCPaFSHiCTrxERwqCIAiCfcFJePhsc/Vwg8zx2WrpQ9pnNjEOL5kZIxujF2tf/S7gxYjOMt58bFNdeO33WcFm8OZ+jIL9Iq7wnHGUtAibyJR10FV3CMRJ7DTlCX6MtoUXi1UQBGeTSHgCl0NNaIIgCIKzySrh4V1PK/6lt0FvvCuSLCrTV4uPjo6Ov2LchbXDprSTvyG+hNrJd5c87FULT/or6fYvpdfw+izVxdB2Y1C8pW9bXs65xqlxX7hwIW/B+tBju99KX0ORL2kMirdUH2WfNS2B109NU/F8HZq8Y8/Ks9lV1fDajtUUPD9dGopnO4csXv1cCubFO3dLc7HWFR7teO/k0kdpq+eqG+NrabwdIO0TmmPJwnNvzjVOm+xB6cc+L7UveLGjs4o3F0tpCp6fudWHZ4OCINg9BiU83gvaStgEwGuHLOVzqJWVsnj1Y1SiRd6Ox2LrrSxeP1NUw+u/S8I+hrIf295urURZbpMiJLrGY+u6ZOmqt/HYGCye/RiVfXQpCIIgOME7Tw7Vugy+wsOJnnf/fPz08uXLLOBjjsuXLzfXrl1rbty4kbcsei9evMiinfdRF8FfvHixuXr1ara7cuVKtoNLly5lP4g26rv0YVFs6ld9Uy6wRRqDjQ95vtW3N4Y+1BeiL/mwdfRfxjK2H1E7MHjOfmJeta8QZeqPups3bzbXr1/PbbQvNHYJaMt+Y5/Rli122CN80wb/9M1YusZj58LOk7Wxbay8tiXUaRwvXq6Oj7SVfdnPcdvVPhnaTxAEQbC7zJLwsOCxyJG4sBCyWKqNt1hoUa4lPJSzgA5NeFRv+5SsjfVTtlOMJda39dVHrS/1wdbOpdS3sGruhkjwWAmP9hXSfqI/6m7duuUmPDYu0H5T0iOfNuHBB+3om7FIJSpXP0oyNAey4bnaWNn5UtsS6x8p2UHyq3ZlW6lvvwRBEAS7zbl0An/99ddfNX/44783f/jDvzdfpcdff/V188OPP6yatAum0KKAWNhY9Nhq4Xv69Glz9+7dLGDhRFpU8MVCyAKMLQssevjwYfPgwYPm2bNnzVtvvdXcvn0729y/f7+5d+/e8aJj+5dPuxDZrepB5fSvmLSoU+fZA22IFQnq8K14yvkpUT+gWLGRHfU8plzjBNumtrXYMsXI1l6RQTxmPD///HMWj999993mnXfeyf0/efI07ccnzfPnz9urIUn4QiQyJEYkNoJ+6QMB+xDZZIGt5gwpNlDc7Tzx+GQfUKct9ZpL2SguoEwqfbM9fy7N8/n0vC3K3dDOxiOpL9mDjRlsnYXy3F9hb/HKre85meq3HC/Y531+5x6j/Gk7NRYvrhpj2o6hyy912+h3ToaMYWosuzQ3S42xxrr+SnueTx2DLe/zYVHb0qZWXuLVU2al8/fvfvu75p//+X82//w//iWvfYMSHhZEFjMWO9sZi54+yiDp4fHjx4+b77//vvnuu+9yG2yxefLkSU6GODEpycGO5AaRIN25cycvlB988EHz0Ucf5bb4Qthr8bWLsJInBiO/lLPA0oZECvGYtoyBNlxVon8WdURsiH6w1QmUdsRn29r29KWFDRstEkoA1B/zQ3uSOpI4xUC52hIjCQj1dhHWDgQ7/yW2Djv5oA8lkdoyX8w5yaQSnvfeey/HwBw8fsz+erJ6/Lh59OhRnkfi/vDDD/P+wU4HlgT4UGLz+lU7Jw+T/ePH6PHxsUA5+4SxX7vG8cAVwmup/nFux7GAD/YH8bIPkPpljIqLfaLxAnXA/KN8fKQ+rt+4nu1f5biOju3ZMn+IeNQXzxkPIibFpbaoRGXE6NWDV66Y5wa/Xb5rdZ5dl5+SpcYov1N91faJx5i2HjX7Lr/UrdtvjaX8enh92bKpsezD3MjX3LGu66+053mfz1q9Le/zYVHb0qZWXuLVU2al9ahMeC787wSL8J07P2XxGHFiFyxKWqC1eLN9++238yKJSFLef//9fPWAExELBO1kw2LEQkEdCwmLrhZZbIE2LEaffvpp8+tf/zq3oYzFTANRO/yzuLE40SexsAh/9tln+TFXIeifxVJJDAsfZVzJ+Pjjj5tf/vKXOTbK6Vcx4ps4EQkCfmlPX0wi/eJPi6xioz3PqVdf2DNGfGDPQk9Co3LGri3tsaUNvniMtAM1/hplPbbEg1/N9y9+8Yvmk08+yfFwACDmgzLmnbiuX7+R99vVq+09OvTNWDkm8IUtc4cdc42wY79ix9zznD5pQ7+XLrUfbxEPc6djAf/sv3feIbaP8zyzLzSXGgd+Ob6oZ74Q/vHJ/sKnnTMeo5zopH1MW+b4k48/bT5Ifnj+1lu3sr0SWPolHvrSsUT8jBk/+KPt0ISnVg+18k3BWIR9bKmVD2WpMa7rd4z9Un11+aVu3X5rLOXXw+vLlk2NZR/mRr7mjnVdf6U9z/t81upteZ8Pi9qWNrXyEq+eMk/tWv9JFnnMyWctIp3j0lKRT3YShloMWJxYQJS0aNGjjgUK0Z52iIWCOkmJEgsKCyGLCX2QDLDQsFDSTn1Trz50jwlt6QMUl5IRbBgY8eFftogFk6sTlBEbEJ/q8I8v7LVQ4oNE4Pe//31ebBkzdfSrhEKLrBZaYmMs9MWiiT0JhfomNsbJY0Q/utJx69ZbuR0xaZGVzz6VUMacMFb8Mef0p3lUYkI8jFvIjv5tAqMkBuGPOnwTOzGSDChZZCzYs72Q6i9fbu/z0Vhpo7kD2uKXpKSdozZGymnPfGuOEPHij5iUNPIc7P6gLeMj3rdvv537IKFTEqfEGRgPxwHzxJjpr8TOtR7XtA/o+BqqPjybmixefZ+m4vmaW8Fu4b0+SwXz4s0x2iZvJjwFevGyQLAA5IXm6rXmRlo03kqLMwsJiwPtdE8IiwhttVAhFh4WRxYfFieSALa04coB9ixwLGBMCleZ+JgB27ffJjF4N9exKLEIEg9QT0xawLh6Qv/0R3sSFi1iJCz0y4JKez7KAOKnDe2VpNEPz0k+uNr0N3/zN9lWCQ/2LJRatHWiQ8RPO5Kd3/3ud/lqCFdWtDDTP3Eh+iBWrhrg69atm6mfz1I87RUf/E2FGPHNvNIn42fLGKlT0sCWvpkP1H5s015lYqzMD/uZOSJ+HrMfqWOszDf7io/H+JiMK2r4Q9wgzNjSkXR8DLDP8a02iDLmnDlh7pgHJTzYsZ+x4UqObIDYmFvEY1CygxibjoNbact4uY+HGH/66ad8vHB1BxgTfpgn2hE342I+aK9kjrnb9gt3H2CuSg3Bs0NBEATr0JvwACcbTvBKXFiEWIxYIFic2NKGxcMmHFqotPCy2Cm5IHlgEWKhY1HBnkWGxYm+dF8FtvndeU6s+Lil/QhKC44WbrZKeNjSH76wY5EmcdHHOZQRl5fwMDZkEx4Slr/+67/OtoxX/SnhQTbpoY52jPE3v/lNTnzKhEeiD2JRwsOVDdrTlrHiD8YssNhofzG/+GGuWcgZO+PTvGk+iZ/5RtxD0yYp7ZUX9i92ZcKDHTDf2OmeIBIEzQvHgpInHQNKeOz8ESux4Js5uXHjdMJDvNiQ8CjpAfYTySzzS0yMG7/aH9gqfrZXr7XJHvcncc8Yx4vGynHAHLGf6ZtxKdkhKVLCQx9D9gdtx2gqnq+hWgqvr00pCILAY1DCw+LCgsYC8cMPP+Qbkr/99tu8uOl+E2DRYoFhkWJhY1HQu38WKZ6z2NFOCxP2XM1hUWGBoT1Xib7++uvmm2++yQsSN5diT1uSFNoJHtOGd+vEhR2PWajswscYtIDxnMXvk48/yYsrCyD90oY6XW1gcWdRJ/6vvvoqj58Y5FPCjvgYOwsrCzALJnX09+DB/ZwMEDvtNH6hsRHDhQvnc9/Xr7dXXohtyOJagg3xkESyL/DFuChX3HzMRGJ2+/bbOV7a0472PJetnjNnlBG/5tbOsRVlR0env9ZNudCYKCfhaOeJG7p/Pj6maIMf9ht1P/74Y/Pll1/mY1CJCr6t3xLsmVe15Tnxkzyzn/QRWptktfebMV6OYYnnjJv5sfMXBEEQ7A+jEh4SCb4x9e133zbffPtNc/fe3eMEgIWgTXjab8SwSLBYs1ix0LPo0MYmPPhVEsOCR1tEIkWyo4RHCQXvyln49I4cH7RXwkNsJCY8Jl7siA1pYSWxYrG6dbN9N3/7rds5Hi/h4YpGmfBgL7+0lW/iU8LDVSEWTuoYF/HdS3P18OGDVVLTXvXS4knZScJzISUWfHvr5GZq2vVBG7XDJ4+V8CD2SZnwUEay8/bb7X0t9GcTHi3+2DMfXAHhMX40bs2F5gPZOXmZf/OGuW2TDSAGxg+0aRMevi31ICe7NuHBj44hEh0SHvbz0IRH9m3bdh8TPwmOrrop4VFCx5hRmfAwN8SksQbzouOnS0EQBFN5M+FJa2ZaOvOJXeIEz4LRvgNvP7biMYu5Fh3p9ev2a9paYDlJUW4XRi2GLEQsbkp21EZ9KblpbdqrICQftMUvsZEkYM+CSHu29n4LLXiIMgQkAyziLGJAHyQXLG6UswCyEDIObHVvitrRt07ClCHa8tGRPl4B4seeLX0TD9Ce59RpfvCpJOXKlZMrMgj0uEsW9oOSK/qz+wHwT182uaKMx4yFWLBF8q3x4ostz4F67L25OTo6SYjUFp9AOfPA/DC/7bHAN7jaGFVPHfuXpJNjgP7xZ/cvj9UvfSDaKanWsctz4uTqlj5aJFFlvzNujYG+2VJGssexUe4T9YeELTsLmoLnR6rhtZ1LNby2VsF+4O27IQoOi0FXeCyc8HnnT0LAQsCiwCLFVRnegd+5czcvPhcutL/Gy0KBgAWLNnw0wVUYvUvnwGIBuZhsrlxu7xnRQkRfLEC0sQmCPRiJgTZ6107SgR0+8a+FjgWRmCgnFj7+Im78MRb64/4Z7tnhnT8LoN7xU09cLIyIci16LN7MC+PETjdGY9PO1430/N1kfyu1be/X0eJNIkX8xI5f+loHYlIyQT8s9PTBnPMxJP0yXuYrnQaaF8fJwukEBihn32LPx4VffPFFnjOekzTgh/5IjBirrgpp3BwD6OJFEqH2yl6ZQNUgFvaXBCRiSkbZx8wx8Wps7GNiEvTBHBAvcf/5z39u/s//+dfm3//939Nx+H0eH7Hjz94zRULFvtF8ETdX++jTJj5g52ubEMcY7TOHNp4gCDZDb8LDomEXJxYIFgYWCRYgFiMlPHzUcPdu++OBLHIsDCQJtAUWDxYnm/CwcLK48Su4LCJKLFhclFiwQNKGxQzfbHWSY0sdtvTDfRkshEpIaF9LePiYirhJpBgLfZLsIBa4MuHhuU14lFiwIDIvxK2Ehza6aoIdvkl4uEeHMSvhQcRP7PJLfFNO5tgRU5vMtAmLEh4STfsRIfOFb8ZO0sOcEof6Y4s9i7/27eeff559KOHBD33iizlinIi5Yj4oR2Wyg7CTSugb34iYEO2YTx17Snio41hSwoMN0J5+iFMJz5/+9KeU8Pyf/AObjIfx6bixCY9N8vBJG+rpj31sEx47Zx7UbUqaK09ee2lbTImjtLEKgk1jz2NWu4QXn9SHZyPtI6uEh+CtTsPgtJCymLFAcEMvi5reQbMoIhZYFhKQDeKExOLKAoQN4jnlWgB5zJYFxSYWqpNAbVl4aM/HE1zd4Wvg3ENz5crV7J+FXIug4qc/YmQxIw58KU788Zw4GQ8LPn40FuoZN32y+CEWeRZL+SWZYR6wxQ8LzsWLbQJA+PijHXUIWMwRbfn4hnLa1RasPmjDuOmHMaov5oN5Yyz4zx/1PLi/+ijp5KM/2kmUUU9bttQDfhgz4yJ2fq6A/cWWedaYmC/aKh7tD2ypow37Cxvmla3sqUfMMUnor371q5zUcgxSzzgZF2OkD/pnX2if4If4qGMeGQ9bnlPOPIDqNAdqQ/3lS+19TcTBc8qDbpgjT0thXxt9CoI58I7vUpvGi2ET2hc6r/DYE0Q+8acFhoWEd7okFTxnEeTdspIDFh8tGCxsLI5auJkY/EgsOIiFhDzr5VFacF48z35JYEh4WLBsDLRnoQT8KTki2fntb3/X/N3f/X3DrypevnwpxdN+Uwt/LIS05TF+0sjaxe91Gxdi0WQcvLP/y1/+0vzbv/1b/hiHG2k1Ftpghy8WYOaB5I8FmHquGv3rv/5r/vhEV0OYF+YEO/wwHuKyJ1/GRBnJDjGQNDGXtFfbobLwnLExb4xdogz/d+7eaX768ac8RuKkf6RxAvNFfJonnrPPlDDwMV17s/rVk6RnJSUuxEF/mgueY089SWP70Wf744ZWSiiZa77i/4//+I/5CtzNGzfzn60AYiIe2rIv9PETxylbythP3KSOLV87p4z22BITV8CYAxI6YiNZ4qoO9sR49PIoiznJx03aJ+o72A3YbzUFQRD0fqSlk4XejbP4sAjwLpvnSnhY2HnMQqkER0mCEiDQ4skWHSc8CRYS2vPcJjxCMbAVJB66uvPb3/42JTx/lxc2FmAWL/plwbWLL/0CP4rH+LSQK+Hh4xESHu71UMKDHy/hYR6YD2JgnHyLiI9NbMLDvFCn5AWVJ2L6p5xkA5sxCc8QGDNzJzGHjIWP1H786cdTCQ/9UkffQFst7DxW8oQf7U8eM7/8LSzmmr9bxRxpzgGfNuHBlnoSD5v0nKj9I6UccyQopxKeVM68ALHRB2VKcNhKSkw5LrhHiy3ltAf2j0148PtGwpPmQsmOTXiCIAiC/cBJeFhAW2lBZWHSosOWMhZkxMdCLJAsCiwqiHfmLIq0Y5FjEWGRAy3sSopoh08WR/rRwqq+xaWLbbJFEsRipLYstjwGL1kA2tAXsXIFhnuIiIeFmTaUk7RxZYct9SQCLIBsKceORIh6yujLLnrEyphY0EmaELFwfwn2JELYU05sLJrET+zYEg8LL+31W0K0q83HWIiVPrU/6MuKMvojDsZBW7Y8t8kPMcgP88OYPv/8Lzkx5A/PMlZ+roB5YF5JJBh7Lk/zUSY8SpQYJz7Zd+3x0vbJvlOSSr/YEy/teEyZfHAsab6AMeODcSB8cZzRjhi0fxD7nFjZvzxn/9Jex8fX36R9cqf9uQP6pJwx0F+5j6zG4NmPURde+z55eO32XWeJTY7f62tbmorna4yC3cL546EnXzlnf7HTWHD4eIB3vCQdWpxYGFg0WCh5t0y9vbmTxUGLPwsIiwyLDe/c8aOkhQULUUcZCw0CPrbgnxYZYIsvtvajE2xevjxq36k/ar8y/ywtnLTFni1jIxbADoifGFnsWPR4TOzYC2xJdKhjweU5CypSgoAf5k3JkGJu423n64cf2qspxKvYmQPmmT7pgzhogx9s7XxocdUWeCzpOehFRx/sDzvnxKzxELPGAtoHjBERhxIMEgYSWvYh9iRnuvn75yTN7YWLF3IZ9dzsrHljTumbvtjnxEYCy1fjeQ5KviTaU8dxSOz4ecRfXl/9IjTzLBiv5hxRhz2P8aHEGjv8KNFhLLRjvGyB4xH7/Pr46eRKGGOkHyAezbdHra7Lpob6LKmVL436ZSv1YW2WwptbW1bW83zK/oCancr76j2o66qfm231NbXfKXZLjBGffX7n7ndKf7asr76Euq76Lvrsyno9H2sHlHkiF7F/PPTNhCe9m71fJDwsEroPAiMWC9715kUuLQAsCjjm3gg+AmABox1tWORZTFhIWHQot1d0EAsZCywBCvrVIkzSgy1ltNEiTL/4UbJDG+LOycrTtLC+TAtYipX7glg423G2Cxs2LNyUMwa9y2dLOy2k9I9f2jFe6pQgEAtb/NGWmKhD2FBGHaJO86XEoV3o27+QTht8s/hyNYQ2+NCO09yUW6i1Yb60/5hz+gL6Y3wkq1rAKUOgfUEbxk098bBl3vBF7LpyxdUd9jXJ8vM0Dr6JxkeKzDXJEAkPc2LnFP9KeNDFS+23nvK+esKVpvbGdsQ8KCbmiVjwp2SIMYLmkT7s/OvYI3bipj3JDuPXPmff0A5hx3HJvGmeGCtjpG98AvForj266rvsSjQ+bXeJsTEtNRY7n97c9s33mP1hqdmpvK/eg7qu+rnZZF/roDinxLvpMa4Taxd9/rx6W9ZXX0JdV30XfXZlvZ6PtQPKPJUJz7l04nnNu/A//PHf89d1v/rqy/zRxI8//pAWkPakxImfj5IQJyoWASUdLDyAY5Id2uoKAYspC4qSIsQiR6LBPS9KdBCLlU6CKkOCRUYLYLu4Psgx0B8LGb7wzbeh+NG6V0ckSS/zFR7Fqxi0aHPVg3L5ZSyMyS6i+GVBph8WTZW3fbUfoVBO/PhgEcan4qcd/WFP3+qL/pX4CexYUFmMlXwAfWgueGy3wGNJz4kTH8TGIs98a84R5CslqT/iUryqZ2zEo3nXvmYu2M9IHwmxf9vk9Xyqb/9QKccKNkp4FR996DF9nOy/dh9ys7nmmLiUsOCfdoh6jU9SgqN9ZNuwpT/mAYH2u/Y5+419pf2l/YM/2iBiQZRpDKhGV71XTpweKq/V94HdVNsS62eKX7WfKx5h59Ob29p+AOr0+hpLza/K++o9qOuqn5tN9mUZ26/aT4l3qTHW/K4Taxd9/rx6W9ZXX0JdV30XfXZlvZ6PtQPKrLSe/e63v2v++Z//Z/PP/+Nf8nm9M+HROYmFqV2U2t/d0YmfkxbCsd6pszBpkbEJgMqoZ1HBF3byIdEONKgUft7ybSr5wJ8WN0vrgy1tebxaENM2fzS26gPfSspUltut/COLJg/shCpGKH0ItVdbtVH/NR9C9bZ/uwUeSxaNRXOObDubIKiMfU17RL1k41bioaSBY0F+lTDoWKEeyb/aIY2/VInm09arzEJ8Zbmes6U/xGOkMemxjUH7R3U61ngOikNbD/ny8Mrlu0Tltfo+sJtqW2L9TPGr9nPFI+x8enNb2w9AnV5fY6n5VXlfvQd1XfVzs8m+LGP7Vfsp8S41xprfdWLtos+fV2/L+upLqOuq76LPrqzX87F2QJmVzvUjEp4fjx1ZOPFrAWRR0AKJcx5zIrMLqT2xKRiVsbULjraqK9FABG3oR++6jxdnJTjpHz9oqH4R0AfCRhMjMRa1A7VFaqN6xajnqhcajwRqQ9+SoFxzqnjl225tOdBPWWZRnMSgmGRDn9bOlhGbYi/nBXgu2edCj/Fnse2O+yA55U9QpG2qPW6jfu1cWqjz/NstyJb+8KUxsmW+2VJPnWJiqzZsdZxbv/ZxCXW1eq+cvj1UXqvvA7uptiXWzxS/aj9XPKJvn9T2A1DHfp1Cza/K++o9qOuqn5tN9mUZ26/aT4l3qTHW/K4Taxd9/rx6W9ZXX0JdV30XfXZlvZ6PtQPKrHg9ozLhGf0qlzOd/IGTF4sD7/iVfOiEVgYiqLcnPeu3JvUH1l52LFz5Y5FLqx+sW/3Yn7W3bWlT1tsYoYxLPryy0hY8e1tG/5LaUO/56kLz4cki37V4QcmBbPtikc+yXdm3h50b7RPtFzsnZb1tZ9tY4duKMvmwdopbY1B5rV0QBEGwf0x6W6MFRAsACxsLpD7qKhdLqQvqtSjZrVXNh+rLBVGL1fkLp/1oATvVZlXnQb9ePKW8+DSuso3K6V9SH1Nhzj2V0LfkgQ37UNTazYHm4cL5VTKySlIlzZv2ma2TVCfJxo5TZaUNZZbjeFKd2smWuiAIgmA/eXN1ZYEwHymUqNwuAOUCi2p4dfJpfZey9ZYum2MVH2vVJMpxeG08yjbWjjjsc09em6HYmGsqfUtgH1vKdsKWlxqKtTm1vwqNaYNqeH5qNir36r25PRRZvPptqguvfU0eXjvUh2cjBbuDt39KBYdP5ZLGautQWwTAq+s6qGz70g68ekl4dTWVlLFJfYxp24fny4td6sL68jQHxOAlDDY2W2bLN8nUsZd2Y1TitVlHY/Dsa1oX+dFHoZLto9SSbLKvYDl24TwS7BblMSENZdLnJ7UOxnYOshlr14f1O8T3Lp0cy9iHxN/F3OMaGtu6cW8LHQt9GoJnN1a7jhdzqSAIgm3zRsKTlrA3FrQuia46D6/9pjSU8oRtn3vy3tlayhjs8yES1r/VULp8g1c/p6Zgx2mvIngaMxeeT5WVOlTsGO08eLJtJYtXjzz7MVi7PgX7jXfOsArOBt6+79IQJl3hOYt4J9Y+daGd5H08NIQxfR0K5ZhrEprPvjn1fEhnAW/cQ9SHZyNNwfMjBUEQ9NGb8HgnF+mQ0fjKMc8lsAuyXZS99mNV4rUZoiXp68+rl+xVh/LKAYJyfqUSawPWjy3fVcp4PZV4baZoLjzfc8jDazdEm8LrGwVBsB5xhWcg3gnI01x4vmsKgiAIgqCbg0t4au/i18FLMrq0Dp6/oRqDZ2+1K3ixoeBNpsyPtRmrIAiCfcJJeDiZDT8RjsXzYbUO9mOLdRKfMo4yxppKvDb7oBJvTr12wmtfUvY5hyxefZfmYIzfMW2H4PkbonWYw4fFxuVpKF7b0tdcmorna4yCs4l3LKC5GHLu3mcO5gpPuaOslmSdg608aMdoCp6fUpYl5tLrs0+1+3SsPPrqa8w95k1hx2u1bywxBs+nVRAEh0/cw7NDeCdiq22xrUXfmwMUBEEQBGPZq4SnfOc9RTX66s8idt6sLF6dl6R48vDalVqScjxWZw1vDqxKvDY1rcNQf111ZxU7Z4c6P94Yx+gs4Y2/1CERV3gC9yBH6zIlWfFsUBAEQRCswyrhYUFpxb+0wryx4JSq4bW1Woc+P331Nazdrsni1Y+RpUxs7POhP4To9bGEatiYLZ6PKdo0XgxjNAXPz7ZkqZWPwfpYQl147TehfcKLf4j6mGJzVvHmqtQhcSau8PQt3ODtaGlJNtXPLmLHvvQceH3VFARBEBwee5fw9C1Itt5eAahJ2AVvisbi+bDqw7Pp0lJ4fc2pEm/f1fD8DdUUhsY1Fi++UtuiK46yrktLMdS/jWWIhuDZDdEQptjsG2dhjLvGoc/53iQ8XTtCi4yt0+LTJ1HzvSnm7tuOZ6zvoe2t7yVU4u0/qxqeb6suvH7GaE682JHw+kdzUutbdNWBrR8j2Q5h7JjLvjahYHcpXz9dOst482G1i8RNy8FieCd6KQiCIAg2SSQ8K3Y9My3ZpXi9hGaIdpGuebV1Xn0wDu+Y6NIu4cVnFQTB7vFmwpNeq+klu/EXrj1ZeJpK1yJV1tW0Dt5YPAmvDoEXm9XceHEsJQ9vfJ5tqS68tmU/U7XPlPNS0xg8+6VUY0zbPjxfYzSUdWyDIKhz5q/weAsX2lW8WNE28E7MQ7SLeHM6RMF4vGNiiraNF5NVEAS7RXykFayFd6KXDoVIcubHO16kfWKfYw+Cs8ZxwsNrtdXpF3Ap4dWhPjwbT/qDkeUfjhS2rVQuTJ70o3qevPbIa1tKbYUX3zrqw/Y9J14sVh5eO2lIvfDql1AN7dO5tBTemMZIeHVLaSyy884JoWW1K3ixefLw2g1RUMebL2lXeeMKD6EuHa83QVLtZKYyD1vOwuIlJFK5CFl59SqzPkrZdkjY+Guy2HI7BxbbxqtfAq9P1EVfe56X+3ko1saTjiFPXvt10D4fqk1RjrE2DyVdbUt14bWXpoCdYrHbrvi6VOK1mSLFVEr1Q7E+PZV4baRDY5fG6L3GUVDHmy+0CXb2I60pB7Q3iaXKZMXKa4+8tqVs+21hY/B0yJTHS6k58eZ2rDaNNydWu0Ztrmox2/IubQqvbylosfvYal/wYi91lvHmY4yWIO7hKVh6woNliYUl2CXiOAyC3SESHoNNdiLp2T9ssmMVtHhzgw6NXRmbjWMX4gmCs86phCe9JFeP6mz7hbtE/16iU0r9lrLUypfA9rVEf6X/uVXitZlTQ/Fsx2oKnh+phte2pi6GtBHW56ZV4rU5FJV4bXZJU/D8DNEm8fofo03jxSAFZ+wKT5nEeGVWujfH0ncAzXVg2Ti2gR3nUJU3aEpDKe2maE6W8rtr2HGOGWtpV2oqY3157Tcli1dfyt7IXEpt1sH2ZRUEQXykdYxNMEoF3cQJNtg23jFoVdJXPydlX10KgmA53IRnF9f4rhNCX2Jik5epmoLnx6rEayMNwbOTuijr7Ql4Lnl4cXm2Q7Q0c/Vp94nG7/n2VNqB1w4NZaqdKO37VMNr6wm8eRuKtdmESrw2u6ygjjdf0lLYc4DVWcebE5T+t2rREld4HLyJq2kdPPs5/c+B92KWLF492kXKOd6FeQ42x5hjtGxrNRXPl1UQBMsQCc8ANr0oxiIcBEEQBPOy1wmPEoNSXXjt+1T+yGCXaG8pfZXy7D2Npc+H984SlTdQon3BG3Opcr415+XzJbBxLNVHF9vs+5Cwrw3vpmNpLLKzPj3fQRBMI67w9GAXCbsoamHs0hCm2s2JPZmWOgS8OR6qIKjhvV6kqXi+UBAE65MTHl5Oc73ASj9zaSiebU1dlAtfmexIZbtSXr/I4tmNxetj0+rDs+mSxasv5eHNracuvL6WUA2v7RiV9NWLst3cmoLnJ9Sqhtd2FzQVz1efhjDVbpN4MVp5eO1qOnS2coXHm2hpCdbpY+iiKMa0XZJyzKXG4NlbbZq+GMbus3XwYvE+kvCk9kOx/sfannU0X3NrCZb0b30PURAcEqcTHh3fMx3n3gtIqp38pRp2MbOqUfqVSjyfNVnKOl35mYL1MwVvnEvK7jsPbxy1tkOwfXsCO4dDtA5l//Z4HirZ9uH5H2q7LupnTm0K9VfO3Tqy46hpCtbe9lNi29XalHg262qX8OKTgpaYm4FXeOZeKKbixWE1BG+He77m0FC8A28df9vEixttCq/vPi1FeaxZbZopY/XiLnWIeOP0tEt0xbSrMQfBptnKR1r7iF0ghywcZfuahD0pxYmpG28eUTA/5XFpdRbwxi3tGl6MKAiClkh4FmbMghwnp2AXOeuLpx3/WZ6HINh31k54vJOBtDRen6XWxSYspbrw2nsqmTv+TbCpeL35KxXMj92/Q9WHZyPV8NrumoRXN0ZCj8v6OdWF136odgUvNmkpvL6sgu1wpq7weAtknyx99SVee09BP968WQVnG29R2bRKauVg7bragdd2jIIgaBmU8NRePLZ8jIbiLWqev5qE9WF/QwfZuiHybIVt58mzlfYFb54lMWVsnj8kSp9TtQ5efJvSnKw7J158h6gx38qaU8KWKRZPtt2uaAieHVoCr59SHl67dbUtytf9lNf+vnNmrvB4O9tq03gxeAqCYBje4iJ14bVHu4IXmxQEwXB2NuGpLfxTX+ylv6FaCq8vT8FwvPlDwXrU5tG+Fqe8JqfaCWu/lLoY02aoPFTXdWVnKWwfnoJgn8gJD6eydEprT2wq2BI6uXqaSunHfrTkfbx0aNoGXhzSWIbYl23m0ibxFhRP6+CNEXkMbbdLzDlXu0Q5rkMaW7As3uu4pjF49tI28OLIWtXDmbppeVfxdpLw6koFh0UsbEEQBPMTCc+CeMnJUgoOgzLZsQqCIAimMzrh2dQJ2PZjNQXPT6l18JIOm4xsQvajuUPE20d2/PtCedztk7aNF9PSquG19TSmbZc8vHb7pKUY05fXtqYpeH5KLY3XZ037jDeerFU9bO0Kj12srCxl4LsG8dpEY8x9QcKrG6uyvyH9T5UdYymvfU0lXhtUQpnXn57vC+WxbTUWz8dQlQxps228GKWpTPExxsa23aa6bnz21IXXfqh2kX2JcyqHPr4hxEdaa2AXW2/BH8OQ9qV/K8Vg45gL20+fNoH6KscczMNZPiEeInZ/9ikIDpmThIf1Imv5hUsLlqd9wYs9tIyEVzdFS+H1ZbUk3uLVpT662nhjk8bg2dckynFY7TpezEM0BM9uDvXh2XQpCLZJXOGZEXuCtlcf1pH1GQRBEATBNDae8NgF3Gqf8OIPnZbFq0dj8OxrGov3TnSoLF59qXXw/EnBbuDtG0/7ghe7FAT7RlzhCYIgCILg4ImEZ0G8qw9TFQRBEATBdE4SHq5QJq176dJbrK368GykdfDGNURT8GJfR1PxfE1RH2Pbr4O3j0p5eO12UR5euyUF2o9enaWvfk421VfZj1UXXvs5ZfHqQ608vHalpuD5sfLw2pXaFmNisG1L7SpxhedAKZOQsQoOB++EVCpYhqXnufTvKQiCFjfhGfMa8RbLPi3JkH529YQwJPYhWD/raAienbQOc/rqozweNqF1GOKrbFP+4JyVbRecxpubIcemtevSOshHuQ+HagienVUNr+1YnRXO6ri3weQrPOWLfqyWwOtHWpepvqzdWI3F87GuuvDaexqDZy8F0ylPqnNpXZbez17MnobixYvmwottTlm8ek9BsA94r8usVT3s3Eda3gtOCjaPewCtFOwX3mtqHe0TXvzSruHFuK5qeG2tguCQ2Nl7eOKFFwTbpXwNlgqWw5vvPs3B3P6CYJeYPeGxL5gudeG1RyVddcH6eFd1Su0i9rjoOz68tkvJ4tX3qQuvvdUu4sXZp3XxfJbqYkq7fZYdi4dtuykthddXn3aNOWP0fNVU4rWx2hY7e4UnOIHEovxTE8G8eC9KtDSb7GsKOt48zYEdv1V5YzXaBRTfVOwYuzQFz4/Vkgztq2wnBcEmOEl4OH8lcR5rtf6JzTuw0dws7b/Ezs1UDcGz87QEXj81TcXzJQ2h3O+Sh9duafXh2Xgqqc1Vl80Uyn5KzYmNvU9L4PWDPLx2c2lJpvTX1b6sm6oaQ9ttil2LZxOUY7aaG+8cM0ZDiCs8QbAGS54AgmCXsMd6HO/BPhIJz47jZbJSsB3KE3+pKczhY242fcyVc2C1D+xbvEOwY0J8tFiWobFMtQuCdXASnu0vpuVJ1tOu4MVmNRXPV5cOHXty7ZLFq69pCp6fUruEd9ysq31jrjF4+9rTFLwY+zQXnk+NRfdSTR1XEIzBHovlMTmVuMIT7A068dZUw2trtQ6ePyk4bLx9Lh0aJDpHR0dZu3IDeRCMJRKeYO+YssB4NigI1uGsHEskOS9fvsyKhCfYV/Ym4bEnltoJxmsj7SperEN0qHhj7VKJ1wZNZR1fnm2pGl7bqZqK58tqLJ6Pmkq8NnOqxtB2JaXdUJFMDJFnu4Q0FrAfK6hMWJsp6hqfsGVLaCyeD6tdxIuzS7uIFycawqIJj/3szWoqQwfX12aueObEjs3GXivfd4bsg3LspWoMbTcHY46fdeMq7a2Woq+fcj+WspS+aqrhtR2qbeHF0qdy8S8TgE0L2JcXLlzI4rHXboyEVyfVGNN2abxY0L7gxS4dIvGRVrA3HPqLcV+xCY6Vh92HpYbi2da063gxT1Efns0QCfan/fFT8NoJW2flMbRdEKxLNeGxJ64lNCdD/JX9j9UmsC/4vnd2sI0Y56CM22oK69hOwe4DmKP/Lnu735F952+PkS4U4xj14dnUdCgc4piGYMetsdeOyb5jsQ/rz/YhBXXK/aR9FbTEFZ4dw3uBS0HgHRdSEGwS7xiU1mVuf0EAkfDsIOWLPV7wdby5GiOPvnqwbcq29t2V124dLc2YvmzbmjaJ1/8QjWGq3T5jj2cYMn47T0vqEPHGKQXrEQlPEARBEAQHTyQ8QTCRePc1nvJqQRB0Ea+vYE4OKuGxJ9MuzYl9QU7RVDxfNR0q3linSHh162oOv0vj9Tm3wHstIuHZbVslffVDKf1YeXjtStXw2k7VUDzbPnUxtv2m8I5nJLy451ANr63VofPGvkj/0oNVbVzh2Une2GlmhwVv4r2wx8ji1Xvy6GpT1nnaFbpisnV9mornC5V4bWrqwmtvFewGsU+CLrROdq2ZkfAEB4E9Ge7ySXGXY7OMiVFjKrVP7Hv8QRD0czAJj7K6qdo2Xkyl9g1vDGgqc/jw8Ba7odoGdh6sNo03HzWBF6PXdqqm4PkZqrF4PjztI3Meh9bXEH9D2pdtPI3F82F1lvHmw2pOPP8nosGJ4gpPECS8hadPQX3euvDar6t18PwN0RQ8P1ZBECxHJDwL4J3ISp11vDlBc+L5Hyv7C7Jdv/66Cc3JUn6F9e/JzqWlbNelKYzxo3q7723cUzQEz24dWbz6TWsOPL9DNRee71I1vLZdCvrx5g2l/yXRIBKeIDh5YcyEfbHN7XtfOcS5sGPa9riWiqX0a7Ur7Gpcwe5xKuGZ95O1efE/nxuuYPfYhZOUjaEWR9lmqLyrAfvCHK8ZO25P22KOGKyPoRqKZztEU44329aTfFrZ+rmYcrzZOLq0JF5/KNgep/ZFLsjFmeOEh+OtTQ5WBQujRGQftYt4cQ7VWWfuE9SpF5zRnCy5/+bw7Y1/iJbAG8cS/ZY+u/zaObbaNt4Y+rQu3jygIcwZy9QYgs1S20dDjoX4SCsIgiAIgoMnEp4gCBanfPflKQiCYElWCQ+XhUoFQXDW8C4Vd2Hb99l4Sc5QrcNcfqZg+/YUnMxRECxNXOEJgmCj2AXfUxAEwRJEwhMEwcaJJCcIgk1zkAnPkMvrQylPzJs4OXt9DlENr63VutiPNKym4MWH+vBs5hB4Y5O2RRnjUKxdnzzWmYMuvxYbg9UU5vIDnq8lNAeeXzQHnt9SXXjtPW2aXYihDy9Gq7MMpyIrj71OeLyT71jtOt5BXWpb7NN8evNWUw1vvFb7gjdmT33s49iXxJvDsZqbpfxabPxT+1rH9ixi5zvmTZw+H2e1xcfsXcLzxoBm0FjKg61Lh4A3Z0N0CHjjGqpDwBtXTZbyeUmXbR+l7Vh7WMfee53XtCmmjiXYPey+3NV96sVotUm8/q3S/5JoGPfwBEGwBbwTU5d2lW0kN0EQTCMSnjWxJ7w48QVBN14yM1S7hvfal4Ig2D0OMuHZ1ZOOPSF2KRiGN3dTNBbPx9zy8NpZ7TpeEjNFm2TqPHt2aC7G+Pba1rRtvJikYHfw9o/VrrKzCY93okPB/nAW9t/UF7m1s9oEc+8P62+MX89ujIIgCMYQH2kFQbA2kYgEQbDrzJ7w2BPf0poLz7dVF157qxreu3u0Dl7/m5DFq/e0BN58Sl148Xkq8fqxKvHaeFqSIeMaiuerVA2v7ZJaAvn29iHaJbz4UB92DufUWcebE6kLr/0YlXhtrJbC66vUEsQVniA4w3gnmk3o0BibSARBsHki4QmCYBa8xAYFQRDsAltJeLyTYp+WYkpfno3VLjBXTKUfqz48G7RLePFZHRreGM+fPz9Jni9PQ9t34bUvtQ0O/WqON899CpZnqTlfwucuEVd4guCMY09yY9SF1x4dKoc8tiA4FFYJT3z2HMyPjqkxquG17dMUPD9LqIbXdor6KBORqfKw5WV7q31H8zzn2Mr96KmG11Zagq5+vDqrbeLFg4LDZ/QVnnVf0PuIPZHNNfbS51DtIzqhvHr1am9OLoqzS32MbW8pbcfad7GtY6rst0tBEARzU014vJNQqbOAN26rMXj2c6oLr/0QrYsWa5Idae4FfG4U3xBZvPqauvDa92kM7Nch9+LMjdfHHNoV5oprnf27ju0UNtXPWaI8jqw2jReDtI+8kfAwDG9wNY3F8+GpxGszhzy8dvsmi1c/hw6FQxuPh91v62gqnq8lVMNri9bF82k1Fzax8JKLWnmwPbzjQfLw2tU0Fc+XlcWrr2lfiJuWg4PBeyEOURDsEzbxiUQnCIYTCU8QBEEQBAfP6IQn3lUEu4J3tWaqgmWx542auvDaS2NZx3ab2Lj7NBdz+y39zaEgGEpc4QkODi+hqekscRbHHARBIAYlPNvIqu2iNETbwotFmgPP7zY1Fc+Xp6l4voZKx7NXtw6evy6NwbO3snh15et51+QxpE05VkmUPqQheH5r2kWmxNk1P54vO6ebUInXptSclHMgiaX730W8+RiiTRBXeIKNsY0DPAiWojyerYLlOAtJQ7AMkfDsGd7JdWmti+ez1CHhja/UOsztr4ul3p2Wfq02wbr9efug1KEydHx2jsu59upQF2PbB0HJccLD8duKg3lVOAAd/ENfBDVKP1O0JF5/68jDa7dvKvHaLK11WMefZztWXXjth8jDWzymai4831Z9eGO3moLnZx2tg+evphKvjacuutp4+6tLh4CdN09djG2/KcbEY9vOqS689r3K/5JtUlzhCYIzgrfg2LKxCropT7yHiHdc1BQE2yYSniA4A3gLUJ/snwPxRJslKONYqp8lKZOdUoeAt5+GKAi2RSQ8wcHhnWS7tCm8vq3mwvO9pGrJ0C5qTrp8ekmOlbCxTdVcfubUVNa13yR2vJ72kX2Pv49IeILF8U70m8C+eLu0i9g5m3PuNGYvSSll58hTVzvrx2vTRdm2lPDqurRJvP2H1mGd8ZS20lA8W7QN1p3H4OwSCU8QnCG8RWtdlcmNl+BIQ5liO8UmGE7MbbDvrBIeMmYJ/HcnVjW8tlZ9eDZoCJ6dVMNr68ni1ZfqYy6bOTQnnn9PY/F8WJWUJ+eaanT14dVZDcGLBXn+hsri+Z5DXnJTk2e/LZXU5s1i25Ty8Np5Gos3HmkMnn2pPjwb5DF23F3+Sl9SiddmqKZgY7YSc/UTzENc4QmCA8Y7GXvJyVCVfo6Ojk6pbD9Ftg+rvnb7grcIoiAIlqVNeNJrjZdbfs2tHlu8F6e0K+xybGcVb5+gXceLWdoEXr9WQykTgjlUJh1d8uw3oT7GzqnXXiqplQtr26V9xhuP1Vg8H1IQjCGu8ATBGcVLEGzisKT6EqQgCIK5iYQnCA4cm0iMkZeUlPLsutRlN9Un2je8qxUoCILliIQnWAxvYUJLMbYP236ISrw2Q7Uuns99kpIbK6/dUC2J1x8ai5fgeJobL3ZPNby2XZobrw+pxGszVME87PLcrp3weC/YPm0DL46aNoHXLzpEhhz43lz0yaPWR5+dxcbbFXMfc/npo+ynVElZbtuiORIQZJOZPnn2nraJF8eQ42ld7LFbaig29nIMm2Bq3B7bGsNSzDk3HqV/q6XY1X0UV3iCncJ7UaKgH3uSGXuiKW2VhIyl9DOnzjrxmgj2iV18zU5OeMoX31yq4bXdhKbi+RqqqXi+UB9TbKBmN2Sh8mzXVUlXm6kvRusj8Cn3f027RHmcDNnPU2z68Hz2aRfx4hyqQ8cbc6kaXtulNDdDfdt2pdYlrvAsiLfDpGB+vHmWdpV9iXMsXoJjFQRBsGki4VmYQ1zMdhk731bB5olEJwiCXSISngXwFtxS+44WsL6bT8dS2kse3ryWstR82X7GaB28WCXw+ltSY7B25f73joFNqsRrg+bA81tq03gxLCkPrx1ahzl9BdthF/ZfJDwbxFvc+rTL2APYatfY1bjGYufYyuLVl5oDz2+pJfD6kYL18OYUbZpdP+8Fw9jOfqRP6U2KhCctsjQ8kAPOJg41eXjt9kFz4vmXtoF3ArZltlyU9baNHUutzbrYOatpCGV8SwtsbF6bPg3Bs9uELF37QXWePGp9zM2QWIZg452iLmptythrmornq9SceP6ls8zc82D9jVH6H/8dE1d4guCMYRctb1GqUdqNsQ2CINg2kfAEk/CyaU9LUFts7UJca3MW8ealphpeW0/bxovJal9Z+jUVBGeBSHh6sCeaKarhte3TruDF1qW58BYwT9vGm4NSm8abp3W1S3jxlVqXTe3Dsh9P+443plK7jhezdJZZcj48332yRMIT7BXeQiYFdbz5Wke7iBentE/0nbSDIJhGJDzB3rHvC9q28OZtinadfYq1RiQ7QTA/kfAcEPZEb3XW8OagpnXw/JUag2e/CXm/pWPl2eyTLF79VM2NTXI8DcGz69Lc9Pn35rGmIJibasJTHril1mFuf4eENzd92nV2PVYb39gYvRO1NAXPz66oxGuztGp4bVENr61UY0ibbVAev+uoxGsjCa/Ok8XO5Zg57fJ51innRgpOOEl4mJcsJqk+eX3qw7OZQ1PxfPVpKeT//PnzozQ0Jvkfojnw/EpT8XyhdfD8We0a5UJRuxpjy22dsG37tDRen1NlsWW2jVSbm6XxjjOpxGtTyjsvDJXnb4o835LarIPtZw5/66D+59AceH6Hag48v13y8NpJcxEfaR0Q3oGCguCsY5OcUkEQnA0i4TkQvETHKjhsvIXc6lDwxoa68NqXCoLg8ImEZ4eYeiL2EhxPQxjT77ax89SlIXh20hJ4/aCheLZTNSeef6sheHZD1IXXHh0S3mu+1FJsoo8gWJdIeILgwDjExdxiE5ZDHmcQBPMSCc8BYd9leQoOnzIZkA4Bb1zSGKbaBUGw35iEhwVRi+LmF0dvgR6rQ8CejEvVGDJ+O0+lSob2u2lqMZfxehqKZyuV2Hg8lXg+h8ji1S+lIXh2NVm8+jk0N14fQ9WF116aA+94nKIuhrazWJtSu84+xToGO65Sh0Zc4QneYO6T7z5hxz5k/Ns8SZSxSrvCLsZ01tn0MVrDvl5KBcFSRMITBEEQBMHBkxMe5dRsU46dsuz2eRdeZr5rGoNnjzy8dla7ihertCt4sZVagjF+y3i6NBZ7VWQJnVW8fdOnfcKLf981FO84L2Xx+kIlXhurQ8AbV6lDIq7wBMEOwcnZ/jpyqfJE3lePguDQ0bHuvR6CQETCc0bRCcLTNvDi6NLcLOFzDEuNq0T9DOnLtvUUvDlHwe5R7qOagkOA/Si9SSQ8QRCcSfblcn35EYOnuRjiu68+CHaVSHiCtShPflZT8N55lVqSOcYQtPTNo62vtVmKbfY9lDLG8g9yWq0zhrKfqerCaz9WwQkxP9OoJjzehFrV8Nrug+bE819ql+mK09YN1RS8REcq8focqhKvjbQuNZ9945ubMX3Ztl57b0w1Wbx6qy689n2yePVSidcGrYvnc0714dnsg2p4bdGSeP0N0RA8uyU0BM+u1FjG+vDaS2OIKzxBEOwE3slsjA4Zb7zSknj9WQXBPhEJTxAEO4e3uNYULEvMd3AoDEp4ygPeapfw4pOCYYyZuzFtl8Drv6Y+PBtpH/DiljaJ17+V8OrmUB+eTaldwouvS2PxfKyjJXyW6sJrjzaNF4PVWDwfVl147a3OEnGFJwiCncI7KfcpWA5vvlEQ7BuR8ARBEARBcPBEwhNkNvnurfzmj6chjG0/laXmxsY/RR5eu3W0Kco57pJHVz1lfV/jnjp226/8lr53ma6x2rH16SxijxVPwe5xOuHhuB157HoH/xQtjddnTdvEi2cOdeG1lw4Fb2xSidfG07oMPUkObTcFz7ck5hwzWH9DNRXPl9VUPF+lpuD5QZtkW/0G62H3m9Um8PqtaZscJzxeYJKH125JTcHzM4fmwPO7tCxe/VhtkjF9l213RV3YBGMMQ3yvg42/1BQ8P0M1FM+2S0PxbPvUh2dTUw2vbU1deO3REDw7qznx/I/RrjMlZs/Gk4fXbmlti/hIKwiCtfBOaDWNwbMfq6F4tl0KgmD/iIQnCIJJeInAEA3Bs5uqIXh2fQqCYL+IhCcIgjfu36l9xOYt/FPUhdd+Lnl47aYoCILtwmlL8oiEJ9gpvIUELYnX3xSNxdp2fcPHtqu1GcMcPqDPj+prKvHaWNlvWZXy2lvV8NpKc+P10aVdwItrHQXBNomEJwi2zFlYENYdn52jPu0yXrxWQRAsx84kPN6L31ONMW3XxevLaiqeryEaimeLuvDaW03B8zNGc/jYRQ25UrGEanht59TYqzS7qD48mzGaG6+PbagLr/02tGm8GMZoCJ5dnzy8dlIfns0cGkJc4QmCLTLlhTu0XQ3bV5eWwOvH05x4/kstjddnTUEQLMPOJTzeCUAKNoc3/2gpvL5KlXht0Bg8+7nUh2279BUOYcvWvcLShdfequzbSm1qWD9D5fWDvLY1TaX0M7b/beLFM5fG4vkYon3Ci9/TIeKNc6iGEld4giDITD2J7BrlOMYqCILDJBKeIAjchR8twVL9eH7XVRAEh0MkPEGwA3T99k3J0HZD8Bb5UnNS+rT9lHVj8PzMobOGjsMuBcG+EglPsHcn+n2IcR3sfhg7zil21sZqkwzpu2xTatfYRlx2PjyNJRKd4JCIhKcH76QxVLuEF98QLYXX1zo6JKaMz7MpZfHqh2goni2y2EXUazuXhjDVrsacvoZS9jlGFpvklLJ4flCwPJuc87KvIdoKdGvlsEp4UpCr/+d/zgBKbQMvDsnDa1fKw2s3tzaJ1/8YdeG135ZKvDal+vBsrMYwxN5rY2Xx6jepGl5bK4tdRL22u6ghDLXz2pUagmc3VjXKRAc8e6sheHaoC6+91Sbx+rfqwmuPanhtPc2N18e6WgKvn6zVv9QiK67wBMEauC+ylezXj7vk2dbk2SOvbZd2GS/epXVW8MZeUxAcGpHwBMFMeIvGWNXw2no6FOYcm+fLKgiCs0EkPMHa1D7j78LaWG0aukSvXp1IZXWdy2pfPm/q3LkTefW7o3YcduxW5bg3hZeUDJF35Qt5bUsdMt54hyoIDgnOekFwpmkX93bxbxOA852ybd9MItAFI6++W9Z/l8balW3KsZR69YptMqvgLZBoLkq/XjJjVbaXhrSzqMy233c0pjEKgkODM+Ve4b0wpWC7eFds0Bim2s0Jh1K3/ONvF3T+/DC1bd8cm6V8DmV/NZUM3Z+er6GySY2V13aKQOPw6odqLJ6PTcvD26d9NrZ+Tk3F81WTxau32he82K2WYpN9Wc6lg/b1N9980/zpT39o/vinPzZff/118/U3XzU//fTTqonP0BPYXPT1R/2UmJYYh3x2+Z6z36XHYP17j8ttiT2Y+9paSrvSxj736ofxKi2Kr5sLF+hPMi8+/LYPknhh8thuTdtjTsflofI2bm3Rq7y12La41vNzKXEhhvb56+bVq3bL81Y8XT1exaQ2ZVtxbJc4OjqRafIG3v6lrJwb77mVLdNjUSsXQ+q7UNx2LrDh+atX7T6RVNeFTbSE97jmp1Yuyvouf5T11XswVltnfdjH3raGre9rW0J7qQuvvmZjy8faSV102ZeozPNr6+x2LJ7fPl9efWlXa1OjtLd0+arZ5TL+W9XnNzvnzje/+fVvm//+3/5789/+2/9orly5EgnPEuOQzy7fc/a79Bisf+9xuS2xB2hfW0tpV9rY5179EC5cOGouXXqVRdKTXidtvytXeZP9JuV4eEG1bXhB2RhlpDiyVS0mtUlbHir+WsJz7GvVDs6tFlVoq16tHp+00ePV07Rt/bOIt8/Vtm2wKs7tnz173Tx/fq558eLkPh+L+rZz0PpqOT037XNbpudeebm1bbS1DKn3ULnmoYyf58yVTXpU10WZ8NjHlpqfvrZlvZ73+fPqazaMVeMoKf2xlYSdS1G2H4O17cKrr9nY8rF2Uhdd9iUq8/zaOrsdi+e3z5dXX9rV2tQo7S1dvmp2uYz/VvWzJzxT8V4Ec4Df0vccfU3xIZsu2zlimwsvFjuGWqxlm1o7e4Bamz5Ku9LGPvfqLbbq3DneuaZFKW2vXD1qrl17mcRqzouFFinroT2PrV9eSElcWckvqikJT3qaS9Qm+6es7cdLeGhASS5fPc695v5z1KtYKTzx1T5pH6+eHS/cbyQ8qzY5aeJp+vfsadM8Rc/OpeSHxIerPfTZzp/G7u1fj3Lx5LFVSVmvNtpahtR7qFzzcDwfCep4bJMdzRt1NZ8wNOGpUbYt7b16u63h1XfZ1BIeobpyvKB5tKi+bDsEa9uFV1+zseVj7aQuuuxLVNbl17bxqJWLsp7nY22ELffadNlJHrVyqNnlMv5b1UfCM5EpPmTTZTtHbHPhxWLHUIu1bFNrZw/QWhth60u70tY+9+otVEkXLrxur+pcfNXcvPWyuX37RXPz5lHz/Pn55uXLC2lR50WTTuIn3RNM+0Jiy4uJe2FIONLjY1b9Kw7+fxxT2uZHZttuiDtt+Zcft6LkmFx/mhzaKiYe522SwF/7AH8n9kqoTumVrmKQyPAR36s0rlcp4XmdEp7XzeMn55qffz7f3L9/IV/x4SNAJMr9ZLF1cyQ8Uokt66v3KOdElOW2rsvnISU8SNjxg2zL8ULZFlRfth2Cte3Cq6/Z2PKxdlIXXfYlKuvya9t41MpFWc/zsTbClnttuuwkj1o51OxyGf+t6vNxGwnPeKb4kE2X7RyxzYUXix1DLdayTa2dPUBrbYStL+1KW/vcq7dQxZtzdOnS6+YqV3auvmzefe9F8957z5u3337RPHp0qXn8+GJOfDjH5/t6MF5dyWmTnNWL6UK7EPCiKlEc/D8/XsV2rOPy1Ta3Pd0mVxakl3L+fwrm1NwopgspJsjWK79gHh77Pu4rJzvoKCV7KdnhI76LR8nXy+bZs1c54Xn4qGm+++5C8/33l5onTxh3mxS1PRHO6f1kUV07f37Co8cW1dVUYsv66i2K93g+VrJl3mOo+QSNVW3s4yGUbUt7r95ua3j1XTb5GE8SGruQbTleKNuC6su2Q7C2XXj1NRtbPtZO6qLLvkRlXX5tG49auSjreT7WRthyr02XneRRK4eaXS7jv1V9Pm6dhOfNs3UQjMAuBEPQATlEy9C+MEhmLl1K2/QKoC++ov3ixcW0oF9OSc/VtL2aFvtrzfMX11MicCPpZnN0dCu1u53Gezv5eSfZvZsShKSL7zUXL73fXLyYdOmD5PeDVP5eqn8nt8XuxYsbKZG63jxDz66tdDXr6dMT0e+TJ1dWW8XRxoKePU8xGb1I8aEc4yq+c83baXzv5nguX/4gvdA/PBbPL+VY30tt3mvjP/9OHs/r12+nHcrYbqXYb6Q211JieLm5fu1isr2Y2l9I5SxsJ4tbuZ9s+VhpcbUa0gaV7cYI+o7hmt0h4425lEXngjHngyDYJIOu8JQHNkw9qJd6MeC39D1HX1N8yKbLdo7Y5sKLxY6hFqvqbFsP7/ip0deXxT736i1U8cUkflvm8uVXzc0bR0kv80dZN5KuXX3V3Ll7rbl3j+TiUkoKzqd259Oiz5WTdrG/ePHisS6lbOnipfYxC+6FpDTS1VhfpyTkRdbz52mb9PzF8+bo5VG+knK0uieEoNi+Wm3z41zX3ieCv/z/1fyxbb9S3i7wPKaNYrtEbMSU4mVL3JfS1s7/0VHqv9DLFNeLFy9TrEdpHM+TzbPk71ny/zRZPE1J1ot0XrjQfPXVhebhQz72Okp62TrswcYuCR4zd3ps68t2kpKbLvrqLXbe7fPyscUrK7Ex2+dDKdsO9VUrF2V9n68h8w1qY7fePNl6PR6Kte3Cq6/Z2PI+u7Ke556NpVbvlausy69tY6mV90H7PptavS332nTZSR61cqjZ5TL+W9Vz3E7+SMvrYMiL3mOqXR/4LX3P0dcUH7Lpsp0jtrnwYrFjqMWqOtvWwzt+avT1ZbHPvXoLVUp4rlx51dxKSc6tmy+bqynRuXy5/Vr6jz/dSMf99XxV5cqV80kXUt0quVklOZcvX2636cWjxznhSMlFGmj7gkv9PXv2NCVOrZ48abckQEdHL3OSoXgRHymR5OijJXtjbLs9uYKRP1ZbLULaKjbEi5q4tL18+UpuJ16+fJn0YrVt1SY7L1LML1Pbp8nPk+TzSXPl8qP0+FGK92nz5Vfnmi+/PN88eEBsJDsvsj9QnF0oftuWxxpDqRLK8kls1X4uTvbB8IRnKHYs9vEQyrZDfdXKRVlf+iofl/U11MZuvbmz9Xo8FGvbhVdfs7HlfXZlPc89G0ut3itXWZdf28ZSK++D9n02tXpb7rXpspM8auVQs8tl/Leqz+eKasLzLQnPH7PWTXjWOUHAVHvsptguYTPEp9dmSixz0BVLWWef81iai5qvvn76699MeG6S8KTHV66+Tgt809y5czPpRv646erVCznhuXKFpKFNdKyuXLmakp5VYrFKgC6mxIfkhxfbw4cPm0ePHuXtgwcP8/bZs2fHyYbiRW2io68+t1s4ed2dnCBOEh59nHPuONkhrps3bzY3btzIun6d7fUck67mPH/+PCdfbO1VqGfPKH+R/D5J7R8nv4/SuB6meXmU2jxZJTznmvv324Tn9WsSnvZ3WrzzQ4na2bY8VgJTyqMd77SExx4b5WNJeGVTUazluPrGUNZbe/u4pFYuyvrSV/m4rB9Cl40tH9LGovJavfDqh/TVZ1fW89yzsdTqvXKVdfm1bSy18j5o32dTq7flXps+u7K+Vm6hzqvPZfy3qs/nipzw/CYnO//tn/57PlfHPTzB2Sa9SNJrI1/huXiRj7vaROfq1YspYbicEgZ0JSUSV5tbt641t2/fyHr77RvNO2/fbN57963mgw/eaX7x0XvNJ5982Hz62S+aX/3qk/z4ww/fbd5N9bdvX89+8NleNWo/Lrt0iWSl1eXLrdrHp+vb8vaeo1p7xUyM77xzq/koxfPppx82v/71p1mfpbg+/viDHBPxEhft3k5jYDxvvXUj2RLn1ebaNWIlgeIjuzaJUyJXS1DWkfwu4XtpNtnX0tixHMJ4gqDkzYTHZElDFLyJN0/oUNmVMdo4vFhSaVvHQb4Sz/NVkwvcC9MmPe39OyQmJD8X8+JPEnD9+pXjLSI5IEm4fftmSiBup0Ti3ZT4vJ8Si49SwvF+8/7776Sk4q2cTNCWBErJxGm1fSDqS51uy8dW7U3Eig3Rjphu3ryWkphbzXvvvZ1j+OSTj7J+8YsPcnzESbzETds2rnZc8s24mYM22TGJSCUpmZKwWJuaPLspmsIQW9tHTVPw/AzVGDz7Uuuwrr91bC2lH6suvPZWU/F8jZWH165PfXg2npZgiX7iCk8QGF7nr2y3Hyuhkxt7udel/QioFLBA87HS1avXUjJxMyUTt9L2Vkp23spbPmpCKkO3b99OycnbKSkiMeKqy7spUXkvJUokS+/nx4hytbHt9Rw/+JN/fax180bqM+n69esprqtZ3O8DGg8fs1npo66XL9p62nFfkf14hxPPEomJJGrlQRAEU4iEJwgMLOxKdqxs0kNSIOl+HCU8165deyOxsQmPEh0rJTFKcKxIdiSb5Fgp4bH96D6erOs3clx8hl0mPIzhJNlpEx6kZIdxt3OwSnhS4mGTnTlUJjZdGsLY9kEQnA0GJTy6gc++ywuCbWGPx0nHJevgsdL/8rqY/3fsr01y9C2mNjEok50yMcCOBfziRa708LHX9ZyEkJDYhEZXcD74gI+ZWn34Iff8fNh89BEfh52W6qysra4GkRSR+JDkkOBwUzUJjk0sGBdxt98ee5JvrEaPHz/Oz5Gu9DAuOzZkk4mxycocqlFrY8vLOovGhyylvdWmGNKXjb/UOpRjHqIg2FXe/JbWN1833yTVfmlZB3TthWTLp7zYptiAZzfE17ZinBrvEnTFUtbZ51124NX3UbOhXHVD/dp2PHz9mq/KcoMvf1KCr6UfNVevvWquJ6Ucpbl390Zz5871lAxcSW24f4erNidfS9dXvdny8RBJBQmNrr60SQd6JycOJBUkEz///HNz//79nEgQE0lHOQZvwbDjte1tW0TioZuKSbKkfLXnBj+YeNQ8ePggf1OMn6Dgm5jffvvt8bfIHj9+khIcfln5RfLBb/C0X0u/fOlJGvuT1PfLdF64lGwuNY8ep/7y7/CgVUAGb1zaSuVzWybsY+G160NzZ+Oyj7Uv2JZQ3teXrbd+S0o/fWOhvGzTZTOkb7bWVs9r9eCVDaFmY8uHtPHoqqfOqx/SV9mm7zn0+e2rt1ibMXYgG6++ZiOm1nfZUddnV9b3PRdeOWVZ59ttfpN37nzza76l9U///fhbWpHwbCnGqfEuQVcsZZ193mUHXn0fNRvKVTfUr23Hw5OE53VKVFLCk8Tv8Fy7dnQq4eHXlttvQ/GtqPZHBxEvGCU7NuHRR00kPFxxIQEiyUBcKeHqCckFV0u6OH7RFq8xO3Yo2+kxL3ISM6TEDHEVisQGffnll80XX3zRfPXVV8dlJDwvXhxlXbjADw8+TfbPmqtXnqUtPz541Hz73eXmu++utAnP+VfNBfOnJSzlviljLGWxz7vqtS378tDc2bb28ZiEp4xnHcqxlFBupbIadkwl1t760PNaPegq3lxYXzW/ff111VPn1Xf1pbpaGzHWr92WdPliO8YOZOPV27KafRc1my5f1HXZddWLLvsS+dPxqm1vwkOyw7vAH3/6ceXqNF5nFvvC63oR1qjZrOtrin2NPl9DxjAlnjnHYPH8qqyrzy476Kv3qNVTrro+Hx6YnEp4+OFBEp5rbcKT8prmLgnP3ZOEh699800lJREkOLp6wmPdI6N7Z3Q/DlvgtcJCSqJD4mPjro3Bvr7K9qpja6UyoJ3aSvT94MGDnHTl39lK4jVOIkbCww8j8ne0+MVlEh6SHX5t+drV5ymxe56cv0rJTpvwPF79La0lEh5Rq9dzbcv58VB5rS37R/KwMZTxrEM5lhLKrVTmwXhq4wfPF5RlZT3sYsLjIRu2nn1XX9Z2DNa2pM9nV19T/MrGs7NlXv1UuvzyvNaX6mr1fZR21l8t4fmnf/xvOeGJm5aDMw0vnfRSMS+Y9sUicWVHP+qnJIf7ZLiiw5UcEhwSIBIiFh0+xiK54CMtrqxQRt3xR0xG+FICJdFHqbINwtb6ooy2ioOPz0hm7ty50/zwww/5ii3i4zXKiZM2JGPtgq+bk43yQtrOUxeau7m0abwYpH3Bi71PQXDWiIQnWBy9A0VLYfsYI+Dkn98RHH/+e5L0kEDYhIfkgoSHRMcmPLTBH1dTuJJCQtGV8OjqkJWSFvuRmUQdKm3kS7ZKeIiDxIYk58cff8xSwqP4aEPCo4/fSp0kPWa+0n9aKu3iOUSaU6+uVBc2ninyUGylhsa0TWyM3hgk285TEBw6kfAEQQ8sBiwYJDUkIiQYusqD9M0o6mgzZHFBtNP9QX0ikdFj+bfIH5CsKOG5e/fu8dUdJTx8lEUyRjslAGykubBjLeMNlqWc+y4FwVkhEp7gTJLe6x//s/CsXPOVmCjh4WoK9+1wdQfxmDI+I1bC48kuMipTEmNFclOT2sifkD8gkbEfaenqjr3Co6s7XMU5fQXEJj2ajXJG6tgxdqmLse37OD2+09pFpozZzpWVjouayvZBcMjkMySHeTrc3zj4PY1hXfs58WKZQ2Pw7K0Oga4xeQtOqXXw/NWU/peVn9t/qzLdx3LcPsECQUJDYqOPl+xHSiRDfPSl5KS2qCDVlbKJjyfaYC8UG1CueElmuI+I+4nu3bt3LN2/o4+y3kx4hmkMdtxWJV4bKy+ObWss3ri6VMNruw+aA8+v5OG1s5qC58eqC6+9lYfXrtRSeH2tq7F4Pjz1EVd4gjMPC5cSnFdH9s9JnP51ZV0RESQgJDYkQeXv8/BYyQ9JikffC9R7EdtYFadEmV2EKSNurvYg774d+ZL4sxrHPuSKbX58/GBvYCx9CoLgbBAJT3CwDFrYUvnxgk+yo21KBpTsSEoU8EUiQiKjhEfJjra62kMdiZGHEholNfZ5KUHfxKpkxSYtik3wXAmPvpXFc92/U9pLSnpqKpMev80yeH0tqXXx9uVYLY3Xp7RreDGiMUy1C4Zh59fTOqzr7yThSXaes5pqeG1LbQqv711XF157tC28WGraVezilhd8c4VH0hUeJQ/6EwySrqAooZDKZElSkmEXVG++FBPtlXzZOEhiEDFwI7L+PITKFY/611b+9NjqOOl5dXrh75KH165UidfGU4nXptQYPHtPXZT7c1uyePW7qBpe2znl4bXbRS2F19dcquG1HSZsrVJZvmHnhLjCE5xpWLZYvNoEBCkZaaXkgGSBJIJ7YPgzEdwPww3BiG9CcTOwFW24f4b2SopsEmQTDG/xpMz2rQTHJjfcfIzog75sv5TT1iY86lNS0tPGc1JP0vdKH22tYktLfH5eqguvvdSF2ij50hwNtSs1Fc+X1MebJ+PTWoKa3yHxBsFZIBKe4MzDesCiYBdYSYkBiQMJB4mEEh4SHWRvCi4THiUe3hUXfNcWI8pt37UrOvinH/qzfevmZGzVl8Yjv57UTld4TrGap0rIVVqb4UZqX2oIU2yWokxyaglJEASb4cL/TnBy1Mn74eqPDD5+8njVJAh8+haUcvHpa9+Ftff8DPFPNX9e4sKF183ly6+bS5dfNRcvvGouXHzVnD//OiUQF7NevOCbUNync/InGkDfpMoJQXJG4kLyoeSG1w0iCVECobbAY12t0RbZdko4lGDh3yY4SpqslAxRT8JjkzFio05JFr5LHeWP8Uj4+Gvv/CHVV82lNCeX0pbHTZqHBw/Op7GdT/2xkLdzk2Yzjws0/1IXtr60s3Ultt62H6IaqhubjOi4KO1sua33ypFHrc6WlfX69p5na8vLOvDKRM1mDsb6VSx9dmV9adNnb6m1lc8+X179FDs9L7clXrktq9nVoP2QvsrHXXZ9eHYqq/lty0/3jd6+/Xbz0Ue/yOJ+y60kPGVQaF+Zeyxz+toV7ILTtfiUeOOvLWDD/PLV5pTlp0WdZOdyWswvXOTvaLHQN83jRxebRynhef6cxIb+sWn94p942JI4KGHRFR8SHiU9SnhIJmTHgkQyo+SEra78UK4+lPBQTwKTX4urKzlsSXDwjXhMHEqMaEOyo4/aSH6wxxd+FROP1Y8Snnb7OieDl5iTlBC2ic8Rs5b8XGgePriQ+mMsLLA55ByztpKY8/i1fm1ffRJemcWLtSt+7VO2VqIss1vk2UrUefW2rKyv2Uiq72rjSTEvwVi/ZVw1yvrSps/eUmsrn32+vPopdnpebgXPa7KUz/vwfAhbXj7usuvDs1NZzW9bfrpvVCY8+Y+HfssfD/3zn5o/J/X98dA+aieUPmRXbocytd8lIBapxtB4bbuazVBfNTx7lXX57uuXesRiap97eOUcsEK2Y+xPwx/y5CoLfxT0VXPz5susq1ePmmtXX6UXw+vmxx+vpuP+akos+B0dvnaOThYXffWcrb6JpR8apJ6tfi9HP0rIHxLll5gR9UpSiFfzQh0/XsjX2WVPAqOPqnQlh4SFFy0CnpO4KInChkSHHxjkzYuuDGGrhEfJjhKe9jEJD3PTpPG9bm7cOEp61Vy//jKLq1/ffnsp/wHRx4/5ZhqJEfsnh3FqP4Hmwpbrsd3aeotto/3q7fuyrqy32L68fmux1HzSvhxjCXWq12P7vIZtZ7FlZX1XLPInLcEUv2Nt1N6zs2VlPc89m5I+vxb5HOK3pM/Oq9fzcitq5UPos/HqKbPlZZuy3qNW32VX89uWn9S3r4fzza9/9Zvmn/7pv8UfDw12H7uQdS1mc0I3Uvv8pH8SBF3ZIZng6gkJiaQrPCQZJCBKUrCRKNPVGCU0ng3isfqiPeIx5dYnKm3URokNsmORNo3tW3F58dWwbfraBkEQWCLhCXYKb0GzWgKvH08kDyQRJBQkKCQqSlqUuOijJ5IXm4jYZIS6roSHfmivviinHhu1oU6Sfxufkh7Ky8TCinEtQTl3pdR3WebFVLarKQiCoItIeIJZmWshmsPHUFIP7b+iz1IsxkpGbPJipURDiQjtZYPKREX1+Lfo0iyiX8/W2itZ0HPa6LHqy/GUsjcj85ztFEq/NSlmaWidp6Ww+6HUVDxfVh5eOyvh1UlBcNaJhCcIVqSls/2/s6CWi699blWzs0kHcB8O9+zwt7jKv8elX2vmOXX6w6S6dwdfJDvyLcqFTfVI/VvZOOfG+h4rJWlSLWarIAiCPiLhCYIevAUW2YXYLsbCttPirXolPNysrGSH5/o7XEp49JfYuVFaf6ICP7q6Y/sr38VTp369OKVNUPbp9atyO182fmuLgiAIxlBNePRucR2tg+cPBZtl6vx7i1Lpq9RQPFvUhV0oS1m8+rHyoNwmHUACoz88Kulvb6kO6ZtZlDFOJQCgb+fYOSj7KmVj7VP636ntXCrx2oyNtaaxeD6QqB1rdj/U2pSUNjWNZV37bVLGvq7mYopPa9Nn67WVtoUXC9pNvFgpPWHnrvC8GXCr4PDx9runzfDmYmef12Qp46WeRZyERW2pJ2lRUlMmMDyX5Et92fqyziY4VqpHJRQ5xaOw/rvk4bWboiXRftF8l9h6Kw+v3RLaVw5lHMEm4TiR3iQ+0gp2kl0+2Y1ZVG3s2NnEA6jnyk15FUdSMuMlNUB7Wweq79Im8PpFU1jXftNo/82F/NX89tUHQTAw4SlfTOuohtd2XW2TXYunCy/WdVTitdmEBsMaahbUIYtr2a68ekL/uvqi9tx3wze5+Bo6v4LMjwT++OOPWT/88EPe8qOB+qVkHutHBPWrydjjB3/4JuEByviNHr4lpm9x2cRqCTTWmmpQp8RPGmK3C5THWJ90DCCvfqqs3zG+Pbx2Y+XhtbMq8drMpRpe26Hqwms/p6bi+ZpDS+P1OUTpfyu1fuIKT3DmScts+88sukPW3dPtTwuOX3QJyvgoSwmP/gQEic73339/LCU+Sn54TjsSHn63B3t9JIZvFjsek+RQx1fi7e/vbAKNGQ3F2oy13Re0/0utyxI+g+AsEAlPcIbRYssCPEz8gc3T8uvaP8h5ohcv2t/uefLkaUpcuMJzPyU0JDw/pkTnh+a7775rvv32u7Ql8SEJOhHt7t6919y//6B5/JhfWuYKDt9e4uoIV4748xLPc93Tp1zh4Td6Tupt/FNU0pafJCpD5OG169JU1rUfi5eQeBqDZ18qCIJuIuEJzjyshSQuR0d8NDRV5/L2+fNXKel4mZKP5ymxedLcu8cf5n2wEo+5utOW3blzv/nxx3vNN9/80Hz++TfNf/zHF82f//x51n/+55ep7Ovm66+/T0nQT7mdfGB/7x5/KFSPT/TwIX9Tix8p5KqPF+dw5WRuNUdnlaFJRV/9UGxfVkEQrE8kPMEieCdtq50hrehKeLykx0saXqx0/Dy1OTp6M+G5f//xcSKipOfePdQmK6cTnq9zwiOR8HzxxTfNV19933ybEp4fUrs7xv7nn/GhrRIe/lwFv/jM3+wi4eHqTzmGNs52y1fcW/GYv4T+kraMJ7XR1asu7BUYq33BOx7tcVrKY0gbKNuVbVVW3p+Dajb7jB3TIY0r2F1Wfy392+bP/3H6r6X/dOenVZPpeCe+vpPh1PopfQ1hig/ZdNkOjdeWdfnrYordEJtavCqv1dutKMs92xLbhsddNlQpqbl0qf1r6Teuv2iuXWv/YvrFi0fN9z9caX744XLz6FH719JRWmsSnJDbE3RmteX//EVeLUoXLrRfL+dG4ttv3W5uvdX+qODFi/yezsV8Q/G9ez+nJOVeSjC4x4aY+UvtF5tLqc2Fi+03ri6cv9AcvXrzh/fgxvUbzfXkU3+t/erVK8f3BN27e695/ORJ84S/y5X6wnd5Q7D6tHNl5+bK5dfN9etHWTdusn2Vh/vdd5eab7+1fy0d+/qcl4vYHAuafHi++vqizEp4bS1e27LMSvS1sfXCa2exZV491MqXpi9ej74x9NVb1u0L+vz21VtUXqv3sDalXZ+/vvoatO+y6arv62tsvZ57drasVo/05kDbX/3q1/kvpf/jP/5TOrddiYSnjyk+ZNNlOzReW9blr4spdkNsavGqvFZvt6Is92xLbBsed9lQpUX90sVXKWl42Vy/9qJ56y2UHqfk587dy83du5eaJ09IXvjKd5Hw6FZ/Qdkq4eHFRcKjhIVfTL66+tXk9mvnFxrureGPgKJXJDGrmC8kG/k4x+O0bet0D04rYuBFezn51I8SXk7iZmX9NXXu5Xn2vP2mlk14gE32lcrwL3J5mhe2ly69TrEfpUTqVUrA2sTm5cvzzXffpoTnu0h47BZ4bCX62th6oXodC13U6vvslsLrd90x9NVb1u0L+vz21VtUXqv3sDalXZ+/vvoatO+y6arv62tsvZ57drasVo/02tE2Ep6RTPEhmy7bofHasi5/XUyxG2JTi1fltXq7FWW5Z1ti2/C4y4Yqm/BcvfayuXb1RfPeey+a999/1tx+m3tuLiVdSAnEScJjX1tvvMxSgU14JBIYkpwLq6s951MCRJvXr46aFy9fNi+ek4wQq2LGM49XPvMztqtH+OUfvlNShU/6zX2k51wtyn/MNOkoPW5vWH6Jx+y/VXKFNx6TROUeWqhTwkMyc+XKq+byZW625uOw882Tpxci4UnocVlmJfra2Hqh+kh42vK+esu6fUGf3756i8pr9R7WprTr89dXX4P2XTZd9X19ja3Xc8/OltXqUV/Cs+g9PAqi1Dp4/qRgs3j7YIi2Ad1KLNHct/L8+YXm8ZPzKcm52Nz/+VJazLkKcz4lRafva+lWe48M98xIz569ap48OWoePXrRPHz4LN9Xww3MPH78+EWq51tVr5Joi/i6+krJDlu2bVlqh3L7tg4fjx7hl5uiHzf37z9tHj56nm1o9zzfsHw6Tt2z4+kIre7leZEeP316Lic2Dx9eyAkgevbsXE6Izp/XX1Tfb4Yci/aYtRJendSF136sdh0v5rEq8dpI6+D581TitZGWZqn+pvot7cbY1pjTl1j0Co9H+26zfsLsquvC8zvVl2WKD9l02Xp1fWVd/rqYYrdOX7L1fKi+rCttynoP24bHfTZUo3PnXqWFu9WN6y/bj7fS9ujofF70uQrEa6zvdda2oREvylySr8mojMK2DVeBcoM2Tj5mys9WY6CMrSH7aJ22j9muHiONF/HxVP7oytyf035kddJGHep5LluRHx0/TQ/y/JDEkRSeT8nOhebJ45QEPbmQ5qcNqw3ptB+L4hT28VTkw/PV1xdlpfoo25U2qrfy8NqhEpUPucJTY6rdupT9aixd1Or7yvv8enT57PLb1Ze1rdFXb1Fbz6+ts9uSWnkN2lsbz35IX7U2XZQ2el5uS7xyylDfFZ5IeHqY4kM2XbZeXV9Zl78uptit05dsPR+qL+tKm7Le4tVRVpb3+UDcrMxNzJcvH+VFHtnXU5cPvcgs9pks1a5sC9n/KhZLbrtqLztrTYKD8o8Qrsos8sdWfdjnqi9pkyfqSXjOZ7VXvY5dHNPlpxyvN/Yapc/j8RdbS19flJXqQ23KrZAfKw+vHbL01Q9lqt26lP0OGUOtvq+8z69Hl88uv119WdsaffUWtfX82jq7LamV16C9tfHsh/RVa9NFaaPnfb68djxGvLFstyQ853c/4ZmK/Frfc/QzxYdsumy9ur6yLn9dTLFbpy/Zej5UX9Z12YAt99pQVpbXfIHa60oP96SUyQ50+dCLzGKfybJtQtv89BTH/o/7aRtlv0572tEyXyVKj/OVnbbmFPLLVkr/ax+b+pK2bW6ar+a8PErJDle9slHbRtR8CDs35Tx1UfqVLVupi7Le2uhx2cbD2tS23mOLyq1sufDqpzDVbl3Kfu1YatTq+8r7/Hp0+ezy29WXta3RVw9lG8+vnpfbklp5DdpbG89+SF+1Nl2UNnre58trx2O0kwnPEuBXErXHY5hiV7Ppi6evryF+PfrqPabYAHay9Xyo3quDrnLVeW1svfDaidO+XuXHYF5DmS4fepGVeCY0s02Pm9C4/S8jf6f9Mjaa5v/xbHXjcVvmxWjLSIqw08dc+T/HBlRKde7ndYqjNXHzr6F481TDjklzXGoons1QH2pjt9bWPgb7GHiuS+teW1tW1k9lDh9jsPGX9MVSq+/yCX1+Pbp8dfVny/rqPWr1Y/3qebktqZXXoL21Ke3L+hpD2pR4fdltF7Sx7fR8loTHOha1E+a20EnSxlV7bKmVdzHFBsp4xvqptVd5X/3ceH5tWa1e8ugq77L1yr12JUdH7VUScgKPLh96kZXUTGzT4yZF4xN/J43bGE6P38ZlHwtblq8Cpec58Vnh2bxBCoFwFBIbZ7izQ2yK7+Tk1c61NBTPxrPv8ml9SLbcQ3WbTng2SRl/Sd94avVdPocwJhbKu/qzZTUfXdR89vmt9aXyvvoaZT3PbVlf/Rj67Ly+7LbrHEUb6eT5SXkt4Vn0W1pBsC+0L5ZxSi/JBURS0qU3bbzYZlPqYd/QSQ8Nxdp4KhnSJgiC3SISnuBMwzqF0huCweJr2ZKXlPAtME+n2khVX0eFbN1pO8mLdS2t5oalHO06XhKC+vBs1lUQBLtHOq3tF7rcXVMQjIG1aarKKy1zyDumrTybofLGMFa7ipd0WNXw2s6p4HDwX4/BPrF3CU8Q7BLeSXBpje33LOElHaX68GzWURAEu0EkPEEQBBW8BAZ5DGkTBMH2aBMevTbZ8kId8MK19WM0Fe+da6l9Y665EaU/q23gxVHTNvHisdplvNeBp33D2w+bFN/yKOW1m0tnBW/spebG68OqC++1JO0L3pilfcTGfnqf5KJOTl3hSW7af3s6EfuEdlqps4A3brQtdiWOqegF3369/uQvpEv7SrlfhqiG1xaVUKbkpkx09HgI1t7ayddQP8H8xD44u+SEh91uD4Jtah/w4raq4bX1NBbPxxhNxfM1l2oMaSNs201qbrw+0Fg8H7sii1e/tMp+bbJik5Yltat4sUo1vLZjVcNrO4fmxPNf0xx4fqdol/Dik+pQJ71J3MMTBMGZZczJtK8+CILdJhKeIAjOFDa5kaZcwQmCYL+IhCfYK5a+J8Xe+1L21VW3NGXfXv9eG3QoTB2Xl6zMpSAI9odBCY/3Qq9pabw+pS689lKwebz9UGoX6VpoNxX/mMW+pIxxSXl47VB5v4y94mIpkx3rY4i8flBZV9rVZG2svLaedgEvrqW0FF5f0lws5bek7MdTMI24whMEZxDvJDqHxuDZlxrC0LbW7xQJr85TEAS7RTXh8V7AYzUnnv9NaBt4cXRpXZbwWcPrq0tLM6Svrnpr36c+PBvUxZA2YP3tm2p4bfdZ28CLY1Oq4bWdU2Pw7IdoDJ79WAXDiCs8QXAAeCdBq03h9b3rCoLgbBAJTxAcCN5ijrZFVyxeXZfmZim/QRDsLpHwBDvDNhehdW4E3jaatyk3ze6L7NhqY/TaWJXtS43F89GnXceLuaYg2Dci4QmCA8BbkDxtEq//mjy8dnNJ1MqDIDg83kx40mue1/0cJwHrwyrYPPu0D7pi7Yq9y65G+TVnqPmw5UtoKJ7tEloHz9+6GnO1RhrTdgnV0HFntRReXDWNwbOX9pE5x+H5GqopeH6kLrz2VruGF6NVH3GFJwhG4L3IpD48m1JdeO2lXWdqvKWdVRdee+ThtUNBEBwWbyQ8vMzjhR/sIts+Jm3/S6mG17aUxaufoiF4dkNk8eqlrqs6JV6bUhaVqY8xV4T2kUMYQxBM5Tjh4dDn+C9fEDXV8NoO0a4yJVbPptSceP7HyMNrV8rDa2dVw2s7VEPsh+LZblolXpvQiYRXt0vaBF6/21Ifns0QzYnnv6YSr81c6sOzWUrbwotliizxkVYQ7BDeC1baBl4cm5C94lLKa49qeG2lIAjODpHwBMGOse+Lchn/JjSGqXZBEOw3byQ8fFdgU98eCIKgRa8zuxjXtCm8vnddJV4bT3NTnkO1f4Mg2B6Tr/B4Jw20j+zLGMo4pUOnb5y7OgeK29Om8WJAQ/DsxsrDa+dpCJ7dUAX7RezDYCom4eGgWe/EtAl14bVfVx5eO6t18PwN1Rg8e6shTLHzbFANr+3c6sJrP6dqeG3nkHcfTBe2XSl7X42V13aM1vE11e7Q8cY8pzy8dtvSVDxfc8vDa2fl4bXr0zbw4phdb/xriXt4gmDPcF/gPZqC58dqHTx/VkEQBHMTCU8Q7AleYjBWJV6bXZTFq68pCIJAjE54vJNKTTW8tn3qw7OxquG1LbUpvL6Hah08f9I26Yqnq87Day8NZWh767tLQ/FsQ8MUrIc3p9LSeH0O0Sbw+rXaJbz4rLaBF8cQrUtc4QmCM453YkFz4vnvUxAEwZxEwhMEe4iXINTUh2ezlOwNyTV5dkMUBEHQRSQ8QbAneIv8UJV4bQ5Bm8b7vR0UBMHucZLwpHMF54tW85xESj+Sh9eu1Dp4/tAQptgcCtsae9nvutpFbHxjr3J4eO2k0r+V135pTcXzhc4C3riX1lCG2nrtapoTzz9aCq8vaQ6W8HkIHM+HVBBXeIK9wr7Ih2qX8eKtaSqer20pmAdvbqdqG3hxSEGwFG3Ckw+0YS+iPjybTcjDa+epxGtTk4fXboh2CS++UnPi+d81Ca/Oagie3VnWEDy7IRqCZ4e2hRdLqNVYPB/b1lg8H6U2jRfDUE3F89Wn418dTMQVniAIgiAIDp5IeIIg2Bu8G4RREARBH5HwBEEQBEFw8ETCExw8b3ymGwTB4pSvO6sg2AZvJDzpcFz8gCwP/qH9eXZWU/F8raNt4MUxVPuCF/tUWbrqplD68zQFz8+uaghjP5Ky7cdoCJ4d2gbefK6rJfD62UXNhee7pk3jxSAtgdfPutoElSs8mw1iDHaCPM2N18cQbQMvDumQ8MY3RcKrk9ZlTl8W67dPfXg2cygYjzePnkq8NtKSeP0NVXA4ePt3qpYkPtIKDpZNv5iCIGjxXnsoCLaJSXjSwcgBWRygY9WHZ3Oo6sJrj6bg+VlXU/F8WU3F8zVWJV4bT1PxfJ1VBafx5mgT8vDaHZpqeG3nVA2v7SY0Bc/PJrQEcYUnCBKbesEFQRAE2yESniAoiGQnCILg8IiEJzjTlFd1rPr+wGbwJt43ncaqD88GBUEQdNGb8HgnejQ3Xh+e+vBs0DbYhRjEXLGUfkptEq//qSrx2oxVF177MSrx2lgNZapdcJpyHodqKHPZLaVdw4txrObC872uDglvfNK65IQHN63e7KBPJV6bXdcSeP1Y1fDaSlPxfG1CU/D87IL6rvacZe0Sm47P6y/Ualt4scytoXi2S2oKnp8+LYHXj6d1iI+0giAIgiA4eCLhCYIgCILg4KkmPN6lpFK7xq7HFyxL3/7vq69R2o3RVOb0tW94NyRb7RPefkS7ihdrl4L18ea1VDAPcYUnOLPEiSQIguDsEAlPEARBEAQHz1oJT3nZbYiWwutL2kW8OD0F88Kc2m9ced+6Gkppt00FQRfeMTNUwdnh0Pf/2ld4vAnq0zp4/pZUH56NVOK1Gasl8PqR1sHzJ20Cr1+pK+HZV3Xhtfe0j3jj6NJceL6lPjybMRqDZz+H1mVOX2OY2q+1G2s7hrIfq7nx+pDWwfMnrYvnU+rj3OvE999/1/znX/6z+UvSt99923z33XfN3bt3Vk18pt482HfjYa1uSn+y6eqzqw68uq72oPq+diV9ffG4r81cyGeX7ymxDPHrMbb9UPD76tWr1bMW2xeP5+p7qTH00dfvkBPF0gyZG8VZxquTnVWJVzaELrtaX5Za/RS/fX1BzU7lfX69+iFMsbM2S7426GfIGL3yPruary6w8fzara2fk9Jv2Zd9zD7p2i81O/m0ZR61+i67ml+Vn6h9I/urX/6q+Ye//8fmH/7hH5vLly/HPTxB0Ef5Ygq2R7kvYn8EQTCUSHiCoANvgUXBcnjzPURBEARdRMITBAXeYuppW+hSc6l9w8buze8UBUEQ1IiEJwg2hLdAWwUnePODAh9vrqyCIFgj4fFeVCgIlsA71qzWwfO3S9p1vJhLDcXa2G/S9X2b7qzhzcEQbRKvf6upeL66tE12IR4vBqkPz0baR974ltZ3fEsrPb979+6qyTi4PN2FLmHXqNUN8Vtiy7r8dvme4rfLXxfYlbZ9fcHU/oRnr7KxvvvaT/Xbh+dvSB9T4sBGmpOaP5WX25KpJ6F1T15D7L3Y7WOdREt51MpFX/1QumKAvnqo1U/xa8vKej3vs/Po8juUKf1aase0x5QYh4xx7Bio66qHKX11+a2Vd2FtPPspPrvAn9RFWa/nXXY1vyo/UfsG6Zf5W1r/kL+pFd/SCoJgI7x5QupWMB5vHlEQLIF3rKFdJhKeIAi2wr6cJIMgOAyOEx7OOfm845x77IlpjGqMabsJ5o6l9DdWY/F8WO0iXpzragqeH6saXttNyOt7DKXtWHuL52sXtBRL9FP63LY8vHalSrw2Q1XDaztFFq/eaiqeL6ul8PrqUx+eTZ/mYIrfk7Y8bmWJKzxBsCfwQvZu3lXZPqG4rfZtDEEQtOhctOtEwhMEO45OJpKXKKB9wI6jT0EQ7Ca116pXtks4CQ+Bbi9YO2GldgUvtlLr4Pnr0i7hxedpE3j9lloHz98h6SwxZfyezTZVw2u7tNZBPmqJ/RTtGvsQ45Jsa/zHX0v/y+d8Lf0vzbfffdfwvO+Ph9bo+3oh9WO+gihkV7P1yof00+UThvgokc+xtl57W1bz19cP9V1tvLo+n1OR35r/qf2uY9dlO9XvFJYaw1SG+hxzslLbdU5yc58cu2LpKu+yE2W9npfbEq/clpX1Xf667IYwxWYdav0tHccY/7SVuvDqp9pBX/lUvzVo39fnWORzql+vXv7KxJivpf/93518Lb1NeH74Pv8Gz18+/0v+S+mR8JwwxEeJfM7h17ar2fT5or6rjVfX53Mq8lvzP7Xfdey6bKf6ncJSY5jKuj454ZSoTCekTdHVV1csXeVddqKs1/NyW+KV27Kyvstfl90QptisQ9dYNk0tBsqlLrz6IXY1ZFfa18pLxvZL+7E2omYnn131Y5G/voQn7uEJgiAIguDgiYQnCIIgCIKDJxKeIAiCIAgOnkh4giAIgjOPvfdDCg6LSHiCIAiCIDh4jhMectlTcrJdq3WY6s+zs5qK52uoanhtS43F82HVhdd+Xa2D569LS+L116VdxItzl7VNhsZStrPqw7MJHY768GykIXh2c2vX8GIcqqGcvsKDXY/t1I7mouy/1Nys08dUu01Txmm1abwYpG3gxSHtCl5su6p9ZuxYyvZzysNrN4eWwuvLahN4/Q7VJvH6n6KzTv4dnh/4HZ7P/9J8/gW/w/Nt/i2eu3fvrpq0ky30WL/RUf5WR99vd9Tqa/6Ggp0khvia0l9fHzWfpV3ZrmbXh+xq9lP89vkEr25KX0PA79hYhjDFTjZT+6wxt791WTeepU6wU/x65zBLrWyKHci2rNfzclvildfaAnVSiS3r8rFparFsMsZ156ZvDH31Ncr60l9f/RB4ffe9xvFX89nXV5ed51fPa3Z9WL9S/A5PEARBEARnjkh4giAIgiA4eCLhCYIgCILg4HESnjc/B7Mq8dpIY/DsN6V18PxJm8aLYde0Dp6/oarhtd1VnXW8OZlLU/D8rKMxePY1rYvnM9StdfD89Wkqni+rqXi+pG1SucKzOwEGQRDsIvYc6ems483JEAXBUhx/S+vzzz9vv6X1PX8t/fvm3r2Tb2l51O7utuVem5qd6KuvgZ0khvgqbUqG+CiRTWlrn/O4q34MfXZT/Mqmy9arWzeWvvoaS/n1kK85fcI2xrAkcy9e8jfFr7UZY1+z47H+MrOHysv6stzWd+0T2tm29jGoviwv6av3mGIDS8QyNzaGbc+NytiW9bbObjdBra+uGKjri7Gs1/M+Ow/1V+qXn7Xf0vr7v/+H+JZWEAQBeCfLPi2F11epYH/x9qdVsBxvJDxM95A593aUtE28eLp0FvDGvQltkm307/XZpT48GxSMw5tDqxKvzVLqwrbj6pGVratpl/DiO0SNxfMxZB8H8xBXeIIgCBy8hUcKgmD/iIQnCIIzj5fU9GkJvH6k4DDw9i0KlmeV8KTJ5j8mPU/8epNf7sgh2hbbjMXru9Sh4Y0R7RNe/FZz4/UR2g2NxfMxVFPxfO2CpjKnr6XwYhyjYBniCk8QnEG8k+zcWgKvn1J9TLE5ZLz5mEPBm3MbbJfV19J/yF9J/+KLzwd/Lb2G/Wql9zXL2lcvVV5uh9LXV83fFLuaLzGkr6F++2ygVr4OQ/ry2kyNRXbr2lum+lqXdcdSY1vj2RXWWTisTWnf5bPLDvrsyvqy3LOnzCvvos+f6Ksvoa6rfht48czx2pgyzpqNyr16ymx5zUcXU2ymUuurKwbq+uym+K2h/kqVX0tvE54ff8jJzi4nPDW7LqxNzd4r77Mb4tdjjF8xpK9a+VDG2PfFMzUW2a1rb5nqa13WHUuNbY1nV7AnsrFYm9K+y2dXX0Psyvqy3LOnzCvvos+f6Ksvoa6rfht48Sz12ugbe61e5V49Zba85mNT9PU/Nj6Nr2an8rF+RZffUvE7PEEQBEEQnDki4QmCIAiC4OCJhCcIgiAIgoPnjYSHT8fOpf/Zz8G2ge1/iKbi+RqqufH6WEpL4fW1CzoEvHGdNQ3Bs9sVrYPnbw5tEq//sfLw2qE+PJulFUzHm88utQlNawv5puUfddPyl18033PT8g/ctHxv1cS/IWzITWJj7FTeV1+jr68+e0ufncrYzunXY4jNmBjElFhgql0f8jXVp2e3VKx9rDuWwCefwMy2hldvy8p6ntd81sphiN2Uespq5TX6/IkuHx60r9n0Hd99sWyCKTFaptarvK++Rl/9nCwRCzY1O5X31Xv0+S312We/bP7u7/4+37h8+VLctBwEQRAEwRlgbxIeL3srdVbx5sIqCM4C3rHvaQ48v1ZLs+n+PMoYSvXh2dQ0hqm2pd0Y22A/OPlI68svmi8nfKTVd8mwhPZdNmP9Cc+vfT7Gb5+dyth21XcxpA3YdkNtSvpi7KuvMTUeD/ma6rNvDDW/U/vrYgmfwQneQmQXqFp9DWtb0lXeZSf6/PbVC57bsqF2MMSuBu3H2nQxNRZeU12vq5rfqXZDqdmofIpPmGrXx1i/tJ97DCrvq7dYmy67Uvkjrb/9+/yxVnykFQRBEEzGW2SCYFeJhCcIgiBYi0h2gn0gEp4gCIIgY6/U9CUwZdshWgfPnxQEQ/Dv4fnx9D08jfMRqD4XLT8f7fq8FGr1NX9D8exsWV+/lr4YVM92ij0MaQO23VCbEuy6bL26IX1Ntetiqn1fLDW/68S7ju2crBvHri4Ytbi8clvWV19CXa2+y2+Xnejz69XX/Noyrx5q5aKsL3322Vtse2135TUhiKcrJjveMWMXfTZTfMJUO4+lx1ijZqfyvnqLtemyKxX38MyIN8FdmoLnp9S6eD5rWhqvT9SHZ7OUgmXx5nxdTcHzM1Zj8Xysqz48m6Eq8docsoL94uQKz1e6wvN988MZu8Izts8+v119ibF9whC/HtSP7W9IX16bsf0MZYrfvlhhHb9TbJdg3Th27cSteGpxeeW2bOx4aF/z2eW3ZjcE2dV8en5tmVcPXrk9Psp6nqvMPh6CbTvGbpMw9q7Xx7bG0NfXnLEsNcapvmRX2tfKLdR59SovxRWev/3bv8tXeeIKTxAEwRnAWwxQEJwlIuEJgiCYiK4glNolvETHUxAcOpHwBEEQHDBecmMVBGeFSHiCYM/xFjGrYHfw9o9VDa/tEpqTdf2uax8EJaubln9svuy6adlBl23Ly7f2eVkHXpmlVj/FzpZ1+e3zXdLXvqsvMbZPGOLXg/qx/Q3py2vT18/YOMQUuyE26/idOpZN0xfnri0oiqcWV1+8Xn2XDXU1G1ve5aNEbUubstzzSZlnZ8s8O/DKrW3NbgrWV61fMeW1Msa+Vr/0sT/Vvs9u6tyN8bsu1tcUv6WNnnf5os6rV/n58+ePH6PPPv0s37T8t1NvWrbOAh87R2PUh2dj1YXXXvLw2s2pXcGLbSktjdfnEK2L53NJLcHc/Xj+tql18PyhLrz2aAieHZqC58dqG3hxlAqWIT7SCoIgWABvIRuiIAiWof1I66cfm6/4peWvvuz9SEsvSC6zSRb7vKwDr8xSq1d5X73Flo2x62OKDfTFs67fmn2f3zH92rae3dC+xvQJY9vDFJshbHIMY6gtltvqdyryN9WvZ9flizouhXtYuzHx2EvrFj0vtyWenS0bagdD7LoYYlO24bktG/OakV1p32W79DFeoxz3EMq56cOOrTZOb86GMsUGrN1UH5auMdi6Wj1yP9L6r3yk9XfNpfgdniAIgmnYE+tQBUGwPSLhCYIgGIkSGN5RerJJTpeCINgckfAEB4u3wJQKgnXwjilpKnP6GovX9xD14dn0KQjmZtGExzuI0Tp4/qQSr81YLYXXV59qeG3XVQ2vbU1deO13UV147c+StoUXi1UfU2xKPB+7qj48m33RUDzbbWkdPH9oSbz+0LrM7W8Ig25a9oLRzVPlTVS1m6oE9V1tanXb9FsyxWYI6/qt1U+x67OBPrupfj2m2vXR53cfxiBqJ41tzV0ftXj7ymv1XVib0p7nNZ81O31sxVZ4Pob4LaGuz9cUvx5lX579WJ9Q+l0XjjXveFNZ37E4ZyyWpfxOZe541tmPfXZj/KptLR6Vlx8nx03LQRAcNPaE52konq0U7C6xn4IakfAEQTAJu7BsQn14Nktr39j3+GuU4yoVBHBmEh7vRVDTtlg3Fs++pm3hxWJVw2s7lzaF1/ecquG13Wd5eO02rTnw/IZOVOK12aSC/SKu8ARBsBbeQjC3huLZLqF9wxuDp33nEMcUzEckPEEQnHnOwkLpjREFwVnhzYQnHf/pZTD5BWHtxmif8OL3FIzHm8epmgPPb5/2DW8M25SHLS/bb0tTKH3ohwqlmt/SriYPr90Y7RJefGMVHB76Fp+r/K/Fv8Iz4pjwDqg5NAXPzxCVeG3m1hQ8P0NV4rXxtA6ev22pC699l8pFqibPtktj8OznkDeOmmSzKRSf+pVUtmnKOKzKOfLquuq9csna97XdlpbA66eUh9dOCnaPdfbTm8lOKmurMm/8Ds8PP/7Q/JhU++OhAmdTUCAlKiu3wrOx9NXXwK7Ldopf2Yz1O6WvIeB3aixT7XYBG0striXilc+xvse0H3MS6MP6Gnty2SQ6+fXF6NXbsrKe5yQOHn12ZZnoKrd2tXYlpY2169sPal/anVXsfE09hjd97ItN77+px8wUO7Xvs6vVq0+rzz77Zf4Nnr/7279vLsfv8ARBsC7eiWYp7Rubjr/sTwqCIG5aDoKdZF8WLS/OXdQ28OJAQxhrU7b3FARnnUh4gmBH8BapmnYBL6590Cbw+rXqwmtvVeK1sbJtguXgY66hOgt447baBibhSS+GeEFsDHtCstoGXhxzaB/w4g5tXkPxbOeQh9dublm8+qEKgqCfuMITBAsx96JU+ptLh4A3rqGagufHaiqeLykIgvXI39L66acfmy+/+qr56usvmx9++D6Jb2ndXTUZR9+lqlq9ysutmOpX1OrX9eshm7G2tF+nvxrr+Oyy9eps2ZR+p9LX1yZjSb2ttnCyUI2Zm74Fbt4F0I93CHMtxkP2j/ry+rNlffH02QvKan5VZ8tK+upLrM8+uzF+Qe3H2s3NHK/DMWPw+hvzOqzR57ePufevWGL/1nyu21dpr+d9frvisYJT39K6fPkk4fnqaxKerxZPeGrIrtyKWnkXtu0m7MQUG8Cuy7ZW19ef6msHiodsxsZjy9rHp9t0uFuLrjjhVL0zDcNnZiwnnsu54d8pbIgd+8q+oOehe+4sZcsUySyx2Lmp+WvHfVJvYyEO4dnbsr56QVnNTnW2zKNW31Ve82vL7OO+Y79mJ7yyIYzpV237bIYwJl6vP1s2NZ4+v/DG6zuR9my77RnD2H2i9mPt1mHdvkr7oWOo1VMuAftDCc/f/90/vJnwfK2E58cfI+FZMcZOTLEB7Lps27o361u71ZMO+g4ki+Loj+c0tqx9fLrNid+8mY2uON/AmYbhMzOWE8/l3HQlPB7af/ZFPQ/D585rqZP4XNTG1o77pL4WdWlPfLbM818rq9mpzpZ51Oq7ymt+bZl93Hfs1+yEVzaEMf2qbZ/NEMbE6/Vny6bGM8TvG6/vRNqzOf6+MYzdJ2o/1m4d1u2rtB86hlo95baOffDpp581f/d3f3864blz907z3bffNt9+901D8vPTnTvNzz//vDIbh93pY5DdsX3hRwfPGP+27SbsxBQbwKzLtq1z6lP5kB55sQ1FcXR59mK1ZZ31dbeTGDYD2+D0C/CY9HhszCcv5v4T5jjWm7sxx1UnKzd2nBYVq74WdTk3PLMxnqpfPTx3zt7O2Hqm3amx2YfUrdRFrb5azr+aX1N2ur57/+HzGMev19UQnJf3Kazf45d9n9EAanPn0XkOgonxuH7NfqDee33n/cu/njGMGWNm1X603Rqs21dpLn9T5yYf56mO6nb3vG4+/viT5m/++r80f/M3/yX/8GBOePhVZa7sfJ909+7d5t7Pd5sHDx5kJ2PxDoQhyO7YvnCjg2eUf9N2jF154I5lig1g1mVa9Tuxvy6GjMF7QZ+yy49Pt1H1m5brMWrOnddL90tsHmyMbrx9Qzg+IaBNRPwmXoj5RDMjXSe+IcN+M56ixDpJD+nn/HlTVtsPp8w4sbbqolpfKae06teU1fz2lna7HUXfS876PX7dj3mdVuibc4vX36myifF4Zm+uG57vfOT0jmH0PlkZjJmbdVm3r9KcecnbHr/1+lSe6tpqtq+bDz/8qPntb3/X/O43v2suKeEhublz56d8ZefB/fvNg4c/Nw8fPs4uxjP1AGrtjg+aws36Cc/qwQDWTXhGdWbArMuyGsvE/roY4tJLeE4ZOk7mj7TFjWXHOLX/puwz80Lf5ImtD52o5uJ4bBPH6MVzqsQ+SY/p79Sflhi0bzihtuqiWl2poLTu96Ss3m+tvE7VVQ9902T9nrSdcNy/wZiA3+zv9Hl0Wjze2IeuGxyfk4+bKq1Bn995Wa+vN0PVGPKmSucYUx31rZrmvXffbz799NPms08/ay5evNQmPE+fPm0ePXqY9Kh5kh4/e/qkefb8+crDOCYvPCuzrgMF+upPY9qOMLNNJ41ngkkm2XWbVmqn9tfB1P14ev84PhaIFRZyOyun5nRKwOZ1zklzV5gtkmNH7YM5T96nPZlnq4fnhlzhKcgn1dXjKtUGfkUurfm181HxO+W4GG/R0jdN1q/aTl4fDGPG6PZni0atJyf0WXWtUzn+niGM3ic6NkYbTmfKsWapWve87jv7zVWpxarJjZs3m3fefifp7fSm5kLz/wdLnb7YGAuBDAAAAABJRU5ErkJggg==;" vertex="1" parent="1">
          <mxGeometry x="70" y="400.00000000000006" width="202" height="160.68" as="geometry" />
        </mxCell>
        <mxCell id="9yGiAa_hOHb7mivVmC5j-3" value="" style="shape=image;verticalLabelPosition=bottom;labelBackgroundColor=default;verticalAlign=top;aspect=fixed;imageAspect=0;image=data:image/png,iVBORw0KGgoAAAANSUhEUgAAAjUAAAHFCAYAAAAKbwgcAAAAAXNSR0IArs4c6QAAAARnQU1BAACxjwv8YQUAAAAJcEhZcwAADsMAAA7DAcdvqGQAAMQMSURBVHhe7f15szTZtd6Hnfftee5GdwPdmIErk7R4LwfgUuLgj0NzkERfkZJIibJpmOIgWn84bIdDMsNhhx3hcPgLkRYvxTsCuAB6QqPnAe36ZZ3nfZ+zeu0hszJrOGf/Gg+qau+11l57Z1budbLqnPfe//Vf/g9fvPvur67g3r29nHu7hnv37l+/2r++f//+1SOP3L/64osvrj777LOrzz///Lr3JrvuB2CbMcW/vx90sknMlNPUPfXnsVKi6TSfB0/341/r17/+9U5fXH2xe3zIZLSb8/6VpvFgPnoUBJ3LFMLifCmGv/bx9nPZH5P9HMhrmsfnPodrluQmwjQnWuF8vF1e5KZ1m/K2ALue62c3cZuUOKd4PGaQ5VAcX+M+cFk+7hzmjJJnbq2FqT3gxmDrzS+LNCuVAq0YbZK1KQ68ZD08w2XruczrITfWKLw/bz/J8e1hwdroWsL17pFHHr164onHrx5//PHd4xPTI2LfRISfrt+7TWbaiybPPUTRdfPmvlRHexp7tfaFz3d7Ao/79n2/mPa963GE/NnrgX0l2mR4N/4PY+zHxH+/135+9eijj1499thj07rsbR95MB5grzxZK+qNTz/99OqTT9DHU/sTTzx59dRTT169+OJXrl772teu7v0P//K//+L999+fOvF95EbgfUAlMiWzE8F/vRP29x955OrRnUAHQC/2z/evJ59pIrsDQ8zdfyzso48+dvXY449NY5Q2Y4oe+j7+6OOrjz7+eGfz2YN8GGL3/5MdeZDPI6arL1iQvS0LiGhnHl988etpgT768KOrjz76cIr9ycefXH3y6ScPTrwnn3zq6rlnn7t69tlnrz7fHYT333vv6r2dPv74o512tp98wjLxv+mgPPrY49NBeuTBSYPEfv2+0AlE3kyA1WBNdmJNprwnaNubYI8vcTk+2H2+WxNisTZT/+5xyuFR+h+Z1nxa9908Oa6KywlM2/1dscpxnmx3c2Pt94/4cZz2c5rWa/d6nzvHcO9PblP/zp9jNOU/xdydE7sc7u3aOXGJ9fnumH26OxE/3Z2U03Hf2XCsPv+MfgrjeNz3x/TB+u0edG4yjtZuWovdHOj7bJc3J/10ju1dJm5G2v0/T6bGKcoUZ/e/6dVkw8R4mJ7un8O1y/7/du37MPvHiYemD+ymh2u8e8+XWx7ing8hz14894xG942xbs7kMLI53EzlywY3WgqptOZbdHyA+etpwWXJetiZsmO+P8zz+vJ63GiJ6exeFzNsnnhfHsubkt5OlnvWaJ4qBtfWueyv7/vHx3Z73JNPPrETm+9Tk9jEP97tHewfXMPZM9gHp+vZLrf9NW5/DLj2fvbZ7tq526uma1sxnV3Hzo//9vsIBcN+z+O6y97G9XFfSDy6s3lYPHy2uw7TxyNrw/hcVx/f7Wfsg8D4n+2u1ewPLMl+jjyZuqdDtV/Wh4vLvPZ76X5u016ymwN7LXso8Z9++umrp595em97vX+SPzdTyBGRD+Pj89GuDvhwt19/+MGH0/jP7PyfeebZq5dffvnqa1977ere//P/9f/4gk0cmMyjLMQuARIhKMFIkUQQgT/48IOrDz/8cErwmWeeuXp2J2DT04YyzfV60jxOFda0qX36IFk2vqd2RcOTuyqL1/tNmIOmVdrB4jKhnf8v33nn6p1f/nJ3cHaFzXU+PuaTVME7ccLsK+MnpvynjXhnx0mFmNvnHMDdeO+996urN37xxtUbb7xx9e6771699/57Vx988MHV8889f/Xc889dfeUrL199/evfuPr669+YKsOf/OTHVz/96U92ebxz9ctf7ux3BQ7rxho9tos7HaCnn9mdyPuTRnehgJOXooGN3HPHbtqwKQZ2Ig4w731Bty8kEScjB561+2R3LDgerukk2R0P3jisEycPRcNj08n52BR3f/LuT27Wgj7eXJ/uzgMeJY7TNN7ORic8j+TBI/Oe3ow7PUKxyDx25w/HgXWmbR9zfzJ+sDsJOW8Yl+OD31SofvTRdHxvsFsb/hOchdNY05vj/r6Y2/U/dr1erPf0RtnF4xyTDyjOdC6j3X9T9F2M/SPHYm9JPxPDcxKvr8FkOjX5P8ym/yPm3u6hpWx3sSeHPR5rz/61Nz+wNj9nipd3PeQ64JfHu0m9l2EeDuTzOJRmqMTAc/kyffNtDpy5F1xurM31YwmFvXmGLKM51o0h5o2Hr3v4WM3zLlv76yYekt4Gcv6yZ+kwzzlFSzEylpz7+EhcX1XMPPvsfr/k+vj+7lr4wfvvT/vA07t98Kmnn9pdG3fXt+kHzV3Bce3P9Zbr5oe7fYnr5K6pgO7C4P/I1RO76yJ76xO7sT7a+e9/GP/4wT7IdVjHlAKL6zD9FBTEIBcKBgoO+HD3w//Hu2KCfZN9mr2LGwNTPrv/0w+2fp4/RcGxE49cvx/fCX/22l/96t3dXvHk1fMvvHD1wk7cbaEeIF/2wUd2exz1CHUG8+HGA3szN2HYp5kPObBXP//887ui5pWrr371a1f3/j//3//3bt2uf7LdJcTAFAUcACamC8V+U/1smjgJ/XJXXGD70ktf2QX7ymTDANgBE90f1P1dBDZcKqz9ou1/mmeTpcJ67rlnp9dslJ9+ur8LI3SQ8Pv5z39+9bOf/WyamMbyMSkoKLL2hcVuIXdzwB8bxN0WxPwYi437zTffvPrDP/zDqz/4gz+Ynr/9ztu7xf7V1Su7BXrllVemguZP/ak/ffWnd/pgd2L87r/5H6/+x3/z/5tyQW+//fZujH2enCjPP//C1YsvvjgVAvuD8bAaJof9HD+9kTt2nGD7Cnq//oAvcj8qfm63sXYci/2afjSdcLxmzozPScI6ob0fJ/c+LsUlcydHneC8aVjj6c1zLcbWTxjE2N/yo/jZPzJnYtJP3lP+vBF2xwDRpjcKJ+K7u5OYtWXcp596eprndILuTk5iOjpvdCpoffFhvaZjurPhTaJ2Yr3//gdTbvKBXZTpkdfcSeKR+Ptbrvtzg+eTjd6Y6NpHkMs+p4fxHt6h2j8KTMgvnsvOfoQwxnWu7udM7YW+PQ/ziOPNRbnAftzrFwdSmpvI+y2X60eRrWNGa9zrMDcpuHgsX6eM3vzW4OYQ88bD98a56HPcPa8tXzq36yYe5s99b5/53Wx6+KJ5fJ0Z6cyKe81+vXbaXVe43nFdZk9i82W/4/W7u2sh10OuP/o0YNo3dps51zjF+Gy3J1IAqCgpp7MvavDlh8tpzF1BwrX4vd047NnsB9ojGUuxuE5z/aR/uvO9i0G/CgZg/A8+eH+6VvMDrvYw5bnfr25eB5+79n/uueemazRiL3vjzTeu3nrrramI4Q7LV77ylQf7M3mzd0gUNuwt5Md6/eq9/VzYT8jhpRdfmva8V1559eqrr+6Kmv/Lf/9/+kKbAGgySMmR8P7C//m0YWgjopJ74YXnpw2Us0Q2ex8/Ga7v1OwODgtCXBaAuw18vMPGSSWmjyrkxyO2CL93uFOzEznsx9rbMjEetWgScwDZqp2FwoecKNB+8YtfTAUKC8ZB5dbWC7vihIPBnZpvfOMbV9/4+jd31ezHVz/58Y+vfvyTP57yYGHx2S/Tvd14+yKNk4aDwBz9AJMjefjJwOP+ZNifSDySH8hfPogxqPyJzzpw94hHfRTG/DiByGHf/vE0T2JqPfYn5f5OjdaDNrSPufdjfI2HfRRw54RCZprv7s3ACUiRgZQjcR8UTLu1ncZ9fD+u2hUP9mu2f6P41UfnJXmxJhQNVPS0EYsCjzenYmntd5GmRzYXfIHYe+k8mponH0mvI/u8rm15E/Of+Qjyux56IosF3q5c3c/Zj13onHgYqzReLw9y2TGNWxt2Blq/Enm/5XL9KLT+LVrj2tI9pOCSxnL/rPvA49HDzSHq42X5eJPPkee15Uvndt3Ew/y57+1bOcoOmsfXmJPPnLhieu/wv50v1ztdf3Vt5Lr6IT+U7n4Y5TrBHQtdM6fr/u66ch1ouj5NX4/Y2bOHltF+ud9PGG/aB594fLqDzd623yNoZywKp72nrvtI45MLRQdFBjA++81+L3q4/wKP+7FvvheZE/6aG+uAH/UDd1v4ZIG9SjcbpH1htt8P+XoDewsfn300ffy0F3sJ4z7z9P6H6K+//vWr733vN67u/eN/8qMvqL4ECRGMBAAnNG0iO3G3RncFsCEYwm8/yf1dH+aqicJDfz6z27fxfQ4qSuLs2xjn4SIhoI+NijE5MMQA2fCaR+Xtj7Rr7GmBrhdKbcScqr+dVAAQTycfc3vxhRevXthVgvTtPwJ758HdDPz309mvmw7KdGJcz9NRzv4cO7fXo9o0Bx4ZQ3MgHxUoEieNct+ffPsCCnv8QO281jppPZBiMjb9nPycxB6PR1Au0y3T3ZtJMcmDdtlPMXfnDj910K5+zQEbwbgsAcuktQDlStuU6+5c00detHusfYy9r9YbGBO09nv1FTUx3mRXKWp8XIj9S4gxa8R857Jbmetn1zGWhfkSS/Kp+fjaL50r+HwfMCOcH985eaxxXvTiY7XG9TksWtfr8Hp/zEH2LT/v32rNl55T0/m0+x/XHMZ7cK28FtdGronY0Kd+1k1rphgPr73777OUwEdSPB6nsXbXR66NtHEtneJfB5uupzvptWLomgsaP9ujhfyE5qXxpvnt4DrN1wQoWOjTOJLiuPbj7/ce5Us7ewn6zne+e/Vbv/nnru7953//737BHQeHgZGS1mT1fEpoJ2y0gYJs9ByUkPrUDurTcwc7xgL6eM5BQR4DmKTaPB6iXYsgZMsj8VShYiN/HYhHH3v06snH9x/d8IUtCh/u2DB/fIktWA8/KJGsTaiPnHwu3g681omhNeFRc2RsDjBVumK5L2BHm46z4gHtiqexEG3ykw0oJo9uj9QnH/nJjkfadPwUQwI9As/lp3yyNo8FvBbYAm1q9375xEfw58Brt4v9kVZ/D55rC403x8dxv6UxMpbEqvn42h+S56Fz9OM7J9Ya50VGK26r/9D1kD/jLM3l0DmswRrnhWLwyDWqB83N59jKxW1ra6M+j0dbzaeXVozYH+fk/Vkf4jouqe03fuPfu/pLv/0fXN37O7/zH3/x9ttvXbvskREBJdCjNlBsVGG5fYlSH76RLJY2LQcbbWSZyFX5OhoTG/qwAbX7oqlQmeLxZdldda1cPK4WWI+RrA2ISx+Pei3kozZeS4xNO1Iu5KmchftCFkuvQXFBc/GxJMdjRDnyU5/Hch+kNuHtWQ5qQ7UYQv4eJ/qUfEVmJ2JbZnPO+Lr480NZEqvms9a6HjpHz2NOrK3Oi1bcVv+h6yH/bJzYVsrl0DmswRrnhWLw2BtvydzcJ/NvxTx0TJg7xpz1xRfd3GvZp+9dff/7u6Lmh3/p6t7f+Ft//Ys333zj2mUPg+CgA6DXqJdSoqV2R2OKOG58rQ2XRxUxKmR0N4XnQnORbi7QzXnuMtn/lkwlH0E7drG/ZC8U28fw5w6xFC+O5a95jP3CbRxey0/IhjbJ8deZH2uqdS2hcaPUJ/Tcx/FiC2IOqDV+lrfw11mMWlz1xcdLxNfoUDzWmnHvCr3n0anPt9qxPeS94bbHmCPzWHqekh+SfxZn6RxafrFfuSyh5jc3bmZbWt9oq7Fc06/B767x3//+b1z99g9+++qRv/iDv/Cj999/78aiIzYLbRi+cSCH1yoaop3aXN6Hn56X7JHARo+ZsCUmhYzEx0S0eY56Lj+4uUgPP6LgexvT32/BZ/ruxcP5uw9aimJ6bH8eoS/m4Y+xfw2Wxiytj2J5f0sZipPl1uMPNRtvq8WA2K/X8XEwOITe82jO+dZ6b3us3utAtPMYh8xhrm8t355Y+PfOuQXj9SqjxwaiXaY5ZPYxntSixwZi3JL0gzO/QfWNr3+D30R92JgZ6jmPIh7kaC+pLbY7snN7t1Vb1tci5lhC83F7sRtpGnf6WOf614Hn4Pm6nKw/zlvKbCOZjVSKkakHtye2PqqTNF5mm+UyGAyOj65/+sEv/tDnRNuSXYn4PlesuXGE/BUjQ7FdvcheY2S56rXbeRuaS69/tKvZRnr96CvNPUM2mRRDxH7vW8JU1EjaaHyz0fMaspV9jBEVoS2z974YtwdfnJZPbSE9h96xl0Dsueoh80NroFh+fFzZOPKRBoPB6fFNRSrRa9fDoXHcvxaj1y4j+mb+mY20lB5/H6dlm9Hj5/Fbtk70k0q0+nu49zf/9v/yizfe+MX+Rdhg+A0a/Y45vx2k3/iR+C0b/cE7+vj1Zv1aNFIMfsUZso99iKFf98KHv7ir77Ag/+hIyFc2SFUktsC4xOY1een37/d/qpmPl9hQb37nA399XKU7DeSmOfDH5/gLxPyOPa+1NsLXgJwUV+vq66s5bI2PD/48Em09R61zRPaluFl/qc3bXRHPQ+eTzg/11WLpcS4tv9gfx1s67jmQHfuleKw14941lpxP0cfXX9cr2tTuzwU2fs2UjXx5RLJ1PBbPFYdrrceSnftnseTPI6/jdcBtgEfkY3m7cH/wfvkphtp5fJDPvd0es2vmudvLtgfF9hiOYsVHt81s9Dzi8d3fxfyYh89dcrwPHwS8pk8x1OaP4LmA20T5d2p++IMfXj3y23/phz/ib784MuaPuPFXdb/2ta9NmzdFgg4aCVHQfPWrX7365je/eaNwQWzw2FHwvPTSSw/+SiBFArYqCvijO4yjv3DIX1PkjwUxHjZMTkUSz+NkQQusRWIcxiRvxidn+vnDePyxQP7qL+PSp6KM19iROwUQMchhn/9XdvN8dZffE7uC5aPpj+6RO3/FkM/xeE4c5kaeFDbE2S/4zTfUEvCT5hL9ajGWjCH7kl+pn9fe5/16HdszdD7E80J+MUZPzBItv9iv1/FxMFiDJedT9OF9gygquOZN1+Drj43Vz7VMdojrHLaIeLQprp7jj50eiek2Eu3+gy9tetT1HPCN/qD4+Ctn3w94pJ1xsJNkp+s06BF8DOzj2mCrMYB2NNk9tv8jodMfJX3s4d95UbxeFFP5gvKK42pe5Ob9PPe1i8/l6+2gXGWDtAa0EV9jROgnDySfaT12zxGxQLlhRw4aQ/P1MZQbj1/W/niwT/MH+HZFzQ8eFDUaRBOlMKBoef311x8ko0AMxp92fu31166+/e1vT4mpmGFj55G2/Z8vfuXBpk8MigVEGwUNojCgH6noQcTizgeFhhbaoc0nz5jEevXVV6++/vWvT+PQRxzG4a8fkxPFikQesmMs/qieChr+qjD5829KkBt/TZm/Qqx2/sQztuTKuuDPnRzWglwQ7aDHubgfz3viuF30X5NsjEgpj5LUXyKeB9Gn5uv02m3NOeSRvbcGt4t4nvn7hU2H65hfh7l2AdcywI422SHZCK6htLFfcE3kkdjEU7/2GYSNYqkN6bqu1477Exdf7S8OdojxGUebK8KX+Cpq4higdux9bZiT/NlXtBkj/jIwdtirDVvy0DryvITG1BpqbwHG0/oh5YKN5qg1YKzSOIqPrebGHEA+etQYxNax0twRzyO0aU3kgxiLNsYmvvZI2WkOvAbig8bwx5uqFDXAJEiAOxf6N4QoXkB/OnlK4vEnpo0dG4oFDq4WHHgkQYqLr+0KgmeefeZB0hQLxJdUVNDHo54zloqM/V/ufTgRjcHC6CMjxSYnCjJyx5bcEP+Y2HPXYz63yx0b7LEhBuPo379gTsThTsyLuzj8o1vTQdlV3/x7GtwFoqDBTicEhZf+CQnWggOGlK8e57LEz31KzzPmjiX7ml9mw/MoR69jewmddxkeS9LrNYnx4jil8dbOYzDI0HnGewVx3eKaxvWXayXXM35Q0w9+XCe5fnFt5ZqvH0Kx44fdV1959cG/WcQ1m5hcA3mOP9d+rp/EZK8gDtdW7HSdVj/SfoA/uXLN9ve18qaPPYpcuIbjSz6MQVwvcHhkDHIhb+wZl72C+RMLcb0mP2AMrQ3jYI8v0towBmuDH88Zm9j8O0Q88poxWDfia5/SHCJqJ1/mzzyYFzcUmBv5aI/VvsJaYcNexBwRa6IxFTeOO+3fu9yw/eqrX53+GSCOI38VnjGIDYzJfBmD2DxnXqyJzw0fxiA3RLuODcKXR+ZFH3EFsYiLDeuKGANb1p/1IG8dGx2vm2oUNQzKYhF4msRzz08HjUQYYCpMdgUNg2JH8kxQC8aC8JzJYcOCv/baa1fPPvPs9LEStvJDxGZi2CL+HYfp3wV6fF/RUWjwTxjEokYHicVETDoWNMTHlkVXPwdvWvCv7N8MjE8/a6CChEdi0I/4d6DwIc9ndgUNfTrBaQPi6y4N+frJRw6gx7nM9cPe5bRitfojsu+J6zZxXVr+js41J2sr4eOuSYwXxymNt3Yeg0GGzjNdn7mec/3iWs+mwsbPBsr1DXG91HVN+wLXvOnu/WuvT9d22vghj1gUNFz/uKbqTjnXT55jx7WcfwCY8blO065+2SD2GMbFnkfsJfJmHtM1fJcjflM+u82f3FTUYIMv+5b6sdXGSb5APKR9RONobchHayN/xmWvIj5zZkztCdPjV16e1lQbOPGIzToylsYAHRO140M8/MmZT0HYP9mj2JeIo32FsbDh6x/kiLTnkRvCj71TY+LHHszc8P/GN79x9b3vfX+3ZvtjzT6IP/mwBsyJMaZ9kHpglxf+KmqIr5sOWkvFZt3JaVqXXbHHx3KM7zBX+rFlbbFnHGIzPrn4HLRv3NTNoubBCJo0nQTjoJH4/euqimCcbCo++GfSeY0PB1YnED6ymWJc/8OFWkiddDx3O0Q7/fTphNAkGAf0HGkREa8ZgwVhYVggTkhikSexdq4P7Pn3jOjDh9ccTE464ujE4sAg/Pk3i+ijKOLNyonGSU4/eetNotykrdgfzPk6hLXitWLENezRUmIuUYPBbcHfK3rk+sq1S5sN7bzm+scGySYmca1jA1LhwTWVa6gKBXy4ntKHuI5ybVQhgC3vKfywZaPUJkk7j4zJNZwx8CUGuWmT5lqNLfuFrs/YEZMxiavxtNFrM8ZOeeNPG/20M4b2BgRxbUBzIk+JOIyhdeCuPu2Mgb+uI8T1YxBRO/aao/Yz1oOxicc6kQNtEq+xp4/XmjPrQbuOCXPXfHh8+qnd8Xlp/4mM1kfjINroQzq+HEfG8Pi0y48Y+Gld9rnsbwDQz7iao6S1RpoDx5AYvIba2jkP7tRgzKITlCRJYJrg7jULoROKR4oYCgBVt1RRek0/z5EODHEm3+t/wVtxqMBAE5uS3p1P+H7w4f7OCd9fofpnTC2GclVOvCZHVeT8BKHFxIYYb7755oNqmX+7iW9MM1di//Ef//HVH/7hH07jAXOn+qVK5oRiffin0qlI+SIzBwyx8BxU3U2a/jn03Vi6U0NOiJxBj3OZ64f9scYSLT/PSc/dx59D7eTN+mr2Io7rz9cgxvJx/DGyZg6DQQ+cc1xPEXB95Vr4zjvvTNdJ4D3FNRobrnNsMIh+rnVvvPHGdE1nMwP2AaRrHr7aT+AXv/jFJOz5oZBrLNdnYv385z+f4uq9wHNd48mNa7Bgk+MHSmJwHea6TVztY8QnZ22+2BCX6zTzI29y0+ap67f8Ef6ah9YGG62N9i+tDdpv2vsfxqd9Z9oT3pn8yJFxmBNonnoEnhOP8fEnN4oj5kPO7GGMyXxop5+1xcf3SnxVnEgP9vPdc9A8pk8uWIOPPpxyxZ8ctX+pcOQ4kj/9+JIj/dgxPnG113OOTMUdBcnjT1w9uutjmvv12O2Rv3p3WmviEQvxHHH+sN6shc4bzU3HBdH/UDfv1DwoajQRkmcBWDgS5V9A5tfTPt/18a8Zs2BTYfDRvnBBJMNi4w8kpcSmb3/vCggSAhYCW/p5xIa2/cHcv5H458X5l8M5GVhE8tNBwF4HHSkueetWHI/76vD5KT9Ohp/97Ge7BeOfX39/WrjHdnnx20zEp6D5vd/7vWkMFpKDSEHz3e9+d4rzizd+Mdl8uCu0qGzp56TiwHFikSdj8IZRUUNezAuRM+hxLnP9sD/WWKLl5znpufv48xY65nOJ4/rzNYixfBx/jKyZw2DQA+eczjveT2wcXMMQaDPkusw1UQUN1z02pp/89CeTsKGdR6612vB45LqNLxs+10E2ZkQb1+nvfOc707g/+clPrv7oj/5oyoc+YnFt5zV7BPsL11UgDjYqithEKWh+//d/fxqf11yT2cOUM3HIhxjY/smf/Mm0X3Ad584Te8Bbb701PQL5M29BjnxsxrwBX22sFEaMhXiuveyz3XjY48d+wFqw7xAbPwR6BJ7Tr/1RRQ1xyU8f3dFG7ow5jbWzZwxsGIc1YN/SHs5rYuh4Eps5EevZ5/h+6XO7to8f5Em7agHGYZ9jXqwPc+LY0EdMcuY5YyDGIG+dK3zkhO8u5NU7u6KJf2eScbyA4bnaOIbE5xgzLvE5bsyNvMhfa/9QN4uaB0dOEwGSUJIkzGse+ZKsFoh/tVoLRb9sEAMQj+Rgn8j+4Hkhgh3+LD7SCU0sJRrBV/LXQj48Mi59jLl/w+0LKV5LvOaEZ3F5jR9z4DmLjMjnxRf3t0R3o00HgIOrIoYx6FORw7r4Oig/Pdfrc8RzdEUym0wlemxquH9Jc8liLFGJXrtDiGMcSxmZXdS5k+U8VxmZ3VwtheuSrk1c57j2scEgrndcE7l26hrGvoAt10Gu/zzHjmsfPtjrukk/dvho0+KfmfGc6WNcFUD4ce1HXDt51A/WFERcU/VDKs99rwDG4JrMRq2YoA1QUn4aQ+NoLGKzEasgYB7Mjb1Da0PexNHY6teGz5qQCz+Y408s7QvKWWsPesyOCXMhPtIxYB7EIBZ50M745EZBwiNt2OhYAL4S/cQkvsRr+pSD7EBrxzpxDHxtyFW5Af7KiXWY1uPd/bEBHUseOQ6ALXY8AmOB5s4YyqmHqaiRg5xYEBJ/6qndyfPEw18Xiwffpdtv2LIIJIL4Q3dP7gog2pmwEuS5LxQTJQYHi7GwJ4/soChP0GvicnBYGL2Z+B7MdPA+2RctLPb+AO3j8pw8eNRzRDwOAnd3+MmCXPipgm+JkzM/zfz0pz+dPrb68Y9/PMWmoqVK5OMq5qF1UH7oNlObn9b1HDgkDz+WUYPBpcF5q+smj8B1kevv/vr/1GTDZom4lur9Iz/fdOjj+qhrNtdbbXgufIinHwi5/utLxdo0GZs8uJZybeWrBfRzfcWGfYLxGJt40/XecuE5+wDiNXsJsfDnLg8xGcf3INoYQ19aZXzFA67ntLH/aW0oZriDojtAPO7vmOz/LIg+PeDjMvZJ2lgfX5eI2jMBeZA38yeOFybkCzoGrAt7Gev9YF/c2fn4fpyA59j4ecG8WR/2QNaQ8VXo6fzgNT4qeKc7c9z9e+uN6S4NtcDLL78yxeAOGWtOXMbFl/lwjGhnjsQhd+3dvTy8x7ZDk+IE4KDpxOI1jxwQTgQG9oKGg0w7/SpetFDTibAravhtJrUzDs/9hELEVQzGpB9/UG4Z9BGXBaWoQTrIOjjo179m3P0JwXdqyEFiHD0HFpPPeTkw5EJRwxsPXxU13DKlsCE2bwJO4K+8tP/iGT7EJDdpMBgMzgldN7V5cc3i+qvrObBhscFwLdX1EXtdX+M1XddstU/XPi5/POye46ONj9dc+2NRw9jsOSpq+J4k/TzHhj6NoWu858JzNkr2Al5zPfZYPLL3sPkzFvsYbf6bOKyD4gHzYlz2O3xoZ5+gqGGfoKjhr/PzEQtfVeCHeeZFUUPujIG/7wsl1O8SrDN580i75o78OAJ95Mh6a1/ERvGy+L6mPAfWgvXxokY3EFTUKD5tD4qandgvuYtFTqyDjjXrQVzGVlHDsef4YutFjefX4kZRAzppCcIzgjMBFpHn3s+EEYukg++DY8tdkSeeoBjiNuJz06+IT7ouYoiphWFBCM94HHxOOiaNjcZyxYnSpkVVBc2i0M5JqEJDkB+iDTEP8tBJyp0axAFhgenjOX189KQF5wTgn3ZgjTgoeuPpTZHl6iiPkjIyu5JOzSE56ZyK6iUbW5pDloOU4fEzH+mcyPLrUYu59oPt8HPfjwfXLTb7733ve9Ndc65Zv/rVu9N1jjsPfJTAtY7rpF+feeS6Skxicf3leoj/g7H43/Vz/OknHj806gdHxuCazRgqmHjuGyvxea79BojH+FzfEddcXmOjgoMx+N4Oj2y2xETE1xhxD9O6APsUa/Otb31r2ogVWx+v8JwNXe3MhTs2WjNikSe5qejTWE2u105o/loXYnEMJN8vsdHeyiO5sK74a+wHx2iHYrN+zFOFHXHY91jD3/3d353mhg8FIOcNYENsF7Eo7t5+Z38ni7UiD9rxZy3wZxzWV59ysI+ynqwjYu/1PFt8qagBP6h8F2Yqaq7vbID6tQiaAK/dV4nv3wD7j6341S42fAobJoANE+VkYGGAX7d+4on9Twt6wxDb4/s4gA2vyYUvBE9FzXXhQbsXNdFPwhf7WNTwxo5FDY8qxPAjN2Lzq+4cHK9CfbxTo3xca8D6RbSug8HgvOFazMcyKmq4nrMJce3jeshzNkXezyoivKjxjZTrIdcVvf8faLeXYEdsrs+6vrLh8dO8FzXE8TsLQHye63oLxGN8ciEn5YMd12c2RYoZviagH1BVyBDfxyCm5NdG9i3Whl8e4brO+OTqRY3y5jlzUQFFfOIpT/ZD1qL32qu1m+4w7MCHcciZuLrTxLxV1PmxYHz2LvZYnyc8OC7XIjZ95Mk8+eGceMyXdWMN/82/+TcPihrutrBH85zY2CHGkPgYjnPoF2/8fIrx0Uf7O35A7hw3xtFHgl7UsI4cP3L3PFvcKGrcQYvuUjsT1wQ0GSZAX2lg2lhsEmbRdCCApNFnn306fREXOw4+C4o9MKbkOSGhvDjBOKE58Vgc3kwslk584hJf4jV9PCcGJ4FOBMRzncR6k/Oc2Myb7+7ojcI8mR9iHp7fVmjNJYhr1Csn65fimHPUSzZuVA9ZDtJgcFfgfI/vHV1rn9v9kMnHLtyNoKjhrbG//u2vhVzruMZxfeWazGaGHddNXhOPPl0TiasCg37+FAbPtekSi2so11Wu1fghrqGI57oOqx0fnvOo6y3jEpMflCk+GJN50kdcCgtJRZNyZX4UITwqnsbgOZA7sbmTwMcmbPb4Kw/s2DMYk3UE7UESr2WTQTyJtWFM7SHT2u2kfUp7FDkTl5jMmePAMWF/o03zwMbjg4458XlE/JaznhOPWIixOZ4cB4oSFWvEYkxywoYxM+1m93A9Pt2vl68Z+T746sZX9v+OosbU3qt5kjc8mA+fZyZ86Ve6mRAnKwMRnDYtDIF5rYKBAUmWJLHVgaAfkRiTxm86wXaL8st3f7mLt9v8+W9XbBAbERew5bUmTwGBOPnoQ0A+8uE5E+bk46Tjs0xe870Z5s1z8uKkp/+FF/iz1/zzBy9ePbo7mORJXH8T8sUuPj9ksSmIGIM7NHyXhgPL4rNOiPiff7b/ewvcosOGnFkfvcGRco+U2mu4zxJ/Z0msaMfrTN4XafX3UPNTXNnE12sR4/aOEf0uldswhy3Zam3mxpW9rp1c57i2cd18/fXXpmsdhc3O8vq6//mDDYjrHRsQcH32QoKNkA2Iax4/9HGto51Niuso3zPkKwj6cxr0E097DXb6o35cf9mM+SldH+Fw7Wf/4JFrKjkxJnFA45EPOTI/rsXkwniMRR93AtjX2AOYkzZqxiJ39jRtpIzBeuH7ta+xNq/tcnxlaiP+fo/ijsP+n3zQ3sMjc2He+niGmNxxYP9gDsxP+wLx/DiyrsTTRs/xIC75aJ/jkZj4MV/GUDGCP3PTmmGLDdLehh2v9bEPufI1ESA+NuTHHPHBlvi0+3js/YyDnY8vG0TurDv/pAZ3dviXBcgJP44t8TkHmKeOP/3EZh5aI8YArddN7W2Kf6dGJxqJYMhdCA7C7umDBeXgU63p4Pvk8SdhpBODfnx0ogFfHMaHPsTY2DIGr/FlYvpcDf/9BB7eJkM8R/ixKCwiefC3dTgIj+za+Vs55MUJx9xefJGT+4Xpd/TJgZg8Ii0iVTl/p4bbYozDfClmEG8CvWlZJwoa/ljgW2++NRU13KbjgKlYUkyUUWqv4T5z/VmvjFqO7uN2ei75XCXZRbwv63dqOZdQXNnE12sR4/aOEf0uldswhy3Zam3mxpW9rp1c77QJv/ba69MmygbH3yOjoNF1eee527T2P42zmeLHhsgmxWam6zvXdsS1lmvj/iOFr0z/zAzX+w8/3N8R0cbKBkgcxiSWNmRi6eN/rrvsT5L2HGJwrWF8rsXEYBMFcmSvQYzHHFVksD9QNGBDrhROPGKrQoBHrjf6wXVf8H198qedYob14Tm/0aN9B+3Xcv/X5pUPewHzYSzyZ18A1jMeQ8acioCd/5TzV16e/t1ExmK+PCp31oC5kCPrqWKD/BmPubMXcixYW/yRig4VExRr+/793SbyI0/GUVzt7cwVG2IzL449r9VPHOaAD7lNc/nqq1PxxDzcl+OMne4Qai9mfM4D5qfX5MLctV5au70qRQ1OBCZxEiMYBQ3SnZ5PP9t/aQgx0P6k33+5lySAPhU9isFCMwketbigkwgbFgjhRxuioKGKxk6TIE8JNFlyZlF5zon/6W7xpsddzuQhf96kfLGXsShGiM34LDb22KpgIR7z4YTkRGFe5MUacVIw5v6PBe6/b6PPAYnDWKwLc92Pm1PrK+E+/lxr4nibr1tr3CwW4Cdff4ztsS3itkupxZZE1lbD16pGKW5rnJJfjZ58Ij0+S+K22CLm2lxCjiXmnDcOc0Zc69lUEN955HuMbBBc49h0uM5xjf/kk/0Prlwfuc5xnee6iD822g8Q13ja2dCISzyutfyxVn6tF3uujcqBOGyG+DAW4xKHaygbN226JpOD9intNVxbtamSH+Pjjy+x8NUcscOfOBoDaZ4+DvGJud+g9/88AOv97ru/nOJy12m/Z+2v8zoWzIM54U9MYrN/IcYkPriPoyICKQ4++xz5SO6DB2vE3LFhXtgwN8ZkTuxDrIfWhrlJxKR9v/b7uzDM5ePdPqaCA7EPY8s4rLn2ej9Omg/w3F+DH1/+tAoxFZ9jxdicK4hzSzWC6gHywQeRg9D67XWzqLn3N//2X/+CDZuESYgFoNpEDDgF2P1H+5NP7W8/6iAxiKoykkbA5o/0BkCeBNU5BQMT0ULrALEATIaFQ7o7whtN/soVkQOinSKDqpycpiJsd87IB5Eft9l45A7OdML8el90MRYLiMiH/BBroPmoUGNe/GShb2yTBz706Y1Cjjp5GLtGqz/Dffy51kP4c/DX2bi9uUY7XiOOo1478bWT9SlPf4xzgcyXNpfI2pwYP46ZjQ9ZXH/t7U6rP6OUQ42eOQjPZclYl8Ylz3HOeeNwbWLeXAdVfPCdmuef5y7Gs9P1kL8wq+sij1zfdN3VXQmus1zzsNHGw7WReFyH0WOP7f+IK5m+9/7DDYs4xNP+wSPXXvqIgx0bHHuBQ95cY6b9aCfy150S3zfIAzEGedBPHviybsTXxsrc8NV+AiouiK9fbtnnyLqwTzx8BB0LbMiLa/9+HfeFoMYifu24aU46LsQjb+1NrI2KTmyZF/NnXtN+tpsDxYb2S60vc5SwQ8wRX34rGSjQWAfyRIyHLyIH+TEv5sQ6s79pj2NsxHOk4+RzYHweiYE/sVUP+HHgUcdT+fh7dRqDL57vChq+ZsJY3//+b1z98Ac/fFjU4MAJoBMd8VyLxXMWARuqYIoa2kkI4U8SJEY/4gDQrgPJ5PFRfCasiWgBVNTohFBVRyxNRm8u5PFZOGIQSwuzm/o0+f34+88U6ecWq3wl+hB5Egsxloo48pkWcydOJk50Dgq+jEe/3oy0YcdYPNZo9We4jz/3+eh1iWzc3lyjHa8R89VrJ752sr6Yv8/JyXxpQ9naqy8jxo9jZuODYnpcfx0fI6X2jFIONXrmIDyXJWNdGpc8xznnjaM5469rngv210gKoP11lmspj1yvtRdwneQ14jopaMeGx4dwh31/zcWWeDxiIxGHayh9DnnGuRIHka/yIT/lSmyEn3LZz2nvh432Hmx03RK8Jvb+ce+LSAP7XYhd/H1hxpgaj7EQtsxFY2hcyOYjNB8eZbcfb7+fMIbi8ho7twX61M+86QeNz+uH83k4L4EvYzAWfRojHice1cdYiu9zxZ59lDnJh7iAD/EVV2gePOqc0xqqfXqsFTXchVAidHKCkIhPXpMiIao0Nm/aVKDQrgRUsWthiEsiWgAVDExUJyD9OiF8Iqq8ea0csZfUBsqRWOrnuaS5qF++vJa/C1v6mSvCRzFYIwoo5qE45MucKcgUV6rR6s9wH3+uXJBel8jGLeWi9lo/Ym38tSj5tWDNIc5H8bK4GltSm/DnJbSGtfVzfCzQa2/3/qX05uO4T83fc4Vev0vmkud16PnE3OP7VaKdR2yQNm6ucX59pI0+xZKvJH8fg9f46XpKG/GIrXEURz7I0ZigfDyuUBwEygd53hrLefj6YTvfO4mxNCZi/1E89izPU/OQMtSHv+KrXW1aI7X7IygnYF0UUyg/uA6/6384NvGVt9qw1zrTp2OlWNgoV+A5kg+SD+3yQaB8NJaeAz7MR6/9cW9fKGpAkyABDSr2zvtFVXKy5UBqEgyuJDQB5DH0iLCjnza1xxh+skuKi3gd4+t19hyUk8aGaC+UA8iGcbROHsvzy2JltPoz3MefM66k1yWycUu5qL3Wj1gPfy1Kfi20lkLPFS+L62Prudv58xJaw9r6OdkYLrUdSm8+jvvU/D1X6PW7ZC55XoeeT8zdY/jx13OtD4+I96Ouser366+k1+DjeFts13td7fFa7mhMt5VvhH75e38pb1Dc/fPpYYKmaKdH5Nc/4msM8DE8Rgb9nivIR2OB7GI89WfXYz3viQ+y1/GgT8dKfRH5u5981O5+2XPZ4KOx1K5HlBY1fKlIKIBLySBQ5QUqOECDqNAB+egRVKCoTUnS5u2O+qKNv1ac/UT3RYfaBHZZfFCf4iHNJ8aSHRIaF2XEXEr02LlNzEvy1xlxHF6XxlZ7rR9p7tEu8y/l5dTyh2wcb9Pr2J7h42jc2tigmDG+Xnu79y+llU9GnFcNz3HJWM6h/j2sme+lcej5lK1XKSbttbWOfrX+HltXDXxbuUDJphTf7aNvJMao5VMaT+DbM57HycbLxon7Um2cGCPGy+L3EmOX8pCdbLNHFIuafPfdIYe9036jlmgTvNamj2J/Royr11nbEpb6yk85tObjtvIdDAaDweBQtKdEbckxxtiatKjRxLRho6xwkY33qR9qFZjiRskfaYw5yCdTqx95HnE+jtu6aN8Cz3GrMZbQm1frp4859Ix3KOS7Zs6Dwbnj76uoyNx+V6TV36LHv8emRPSNirT6W0T/TE6tr0b0iypR6ytRi+t9meZyPzrFgKWN2/t981e/yDaHLG6pzWMJtSm2jyGfkm8N+fTkkdlmdmuguKXY2TosIYvjY89RizhWSSLG9tc1OTFmho/dq9vEnHmVbHv9B6cle7/UJLK+LdRD5jdHJTLbNdQi81miLFbWdiqJrK+kXoofPw3OG99QXJdINg/p3Djn3AaDweCuczFFTVax9W4uvhFlOldKFWo2B+lQ1ogxh5h/pkPI1m8pa+d2mxhrMhgMzoFZRY022TU3ijn0ju8X2CXycUqKZDZRh5DlWdMcMv9MJXrmp/4s7lKBxm4JshhRkcympLtKthZRg8FgcAxu7cdP2QXV20o6B7K8orZk7fFUVIgsviuj1T8Hj+Wqkdm7BoPBYHB6bvV3arLN5pI2oFNvmFuOf+q5DQaDweD2cVFFjTZC3wx1FyDeDTiEbJy18TG21jHJxvZHb++hZu/xMtVwO/0RRZf3ozWIMU+hEpntHLXIfNbW1hx7vBYxn6itOOZYg8Fczrqo6S1Uen+tmna37fE5B7KLh7dFHQNfS1+7mIsKhFgorMUhMfHJChgpQ+fKKc+XLNea1kQxfd3mIj/FybQ09mAwuNucZVHjG0fcQHShy2yiIplN1FLWiiN0US+pRKs/I+Ye5WT9kuO5+iblErU4kR6bEiXfWm6O/F13hWyNSrrt3KW5Dg7nLl83TsHFf6dmnCjzuMT18pxr2oJsHNdgMBgMzoeLLmpqm0yt75I55KfDuWvS6p9D66fbmNcaOoQsXk13CT+WpeN5G9FxvmvzHgwuibMuavzCmV1E4sbiqtFr18taceJ8M/Xi9qW5ltpqEp6Taw5Z/LXl9OSZxehVho+5lo5FNrbUQ+YXVSKzPaUGxyU7Br0a3G0u/uOnFuNkr+NfmPZ/vwv1bNqnZosc1453WzjkfXTp70PPfZwbg8H5cuuLmkEdLs5eyGTFDBoMBg8Z74nB4Dy53/uTk35Skeb+2qV84q9sZm2uyLlssp5HT97HwtdGuWhtvU0Smg/KihvhvtlxE+5bUg/RLo6TkeUjsr7enNzOVcLHOneJrE/K6FmPLFZUicz2GKrhc8x852orjjlWiywX1CLzqWlwGcRrRqYaN215vdN136w7NdlJhHqQrW+CatfmWNogS7htr0/k5uLsdQlkeaMIa6J1Fb5ekmjFzHylLcnGK6lGqx9ivB6fuWRjlHRK1szB5+Q6hCzeUg0Gg8tn9sdPh1wIMj+ex4JmDvKZ65eRbeKXTml9Su1ezNTWwv1jjNvAbZ3XbcbPx5oGg8Ht5d7f/Nt//Ys333zz+uXNi7k/+scRPFf7559/PhUkQhuhHhUD5E+bpHYVNl7cqF9tPGo8PcoG/IuuwmNp/ChHtuBxINqCx5ef++NT6vccYmzZlIj2jvfxnFhaL14/+uij01qBj0NfSdhJaoOHx4Djs3/cRbpho0eN9esvdj47W/67f6/+MZeeg9ZTj5mPcH+BLW3ykU209diyBX8u1KacMrJ2H6+F+8/xW4LH17qorTQ2+bXmWPKFkv9camM4pbG8fY18ejmXsehbmsux/UocMoetWHNtes9xiP49a1Pq9/ZWDEe20afUHsn6aXNx7UXf/973r37wg9/O79SwcEjFAwI2wscee+zq8ccfv3ryySenR4LJBnttcnHx5Ysfj/ipnTjIN1qX0Gvl9cknn1x9+umnD0Sb7N32s88+m/p5VK6yc9xH/b54NeRHbI3D66xP0jgaq4TnkMlRG+tL8aK19ePE8yeeeGI6Dr7m6ldexNFxI5aKIV7jj2jTsfxiV6zs/ffrm82Ltmyd3D7aSLx2u4wv++6Pe/R3+Tg8R8rJiX7SXSCb9xw5OkelwWAwWItHfvjbP/jRBx98cP3yIfFi4xsZhclTTz01bXBsABQMwOYmP12waEP44/P0009P7do0iPXMM89M/bxmY9FF0C+GPPd2jaMxEfl4DoLXykOST7RVn9v24LnKP47h7R5b/UI+NQl/DsRkHSg2dJw4ZuTH2tLOej///PPTmpfyxB5bHTce9Zq4xFQhup+LYuzGv//wOCiWmF7v/tv1XN3b+ciOR/Vn2o9xM1cUURuP5LT3IZ+HY0UUK47Bc6fmK2WU2o+Fr38Lt+V51ByivdZhq/WYmx8c89ic6/kxlyzfU81hq3GPOZ/SWIfmEP153YrZk0srhiPb6FNqb4F9SS+99NLV669//ere3/hbfPz0xrXL3omNCk0Xiel/X0zFyDNPP3P11NNPTZsc+vDDD6/eeOONSaANTndQiKU7BWykzz777KRf/vKXV++8887Vxx9/fPWVr3xlEmPxMRjCXz8x+0/Ogs1Vmyp++imbePLVHFSEIWx0V0dSXOJgy7yw9bHdVguIvaQ1Y+7EYONnLNbno48+mtrUTu5I/RSUPjfFd+JrR7kQA2kOWm+KF8ZjzRE5st6cAMyJ/CTWjkfWkdw45tghbfCaKzFBazMdo8/3OXz08T6Gjgf95Kg12p8Tu/V4/LGrT6/7WQ+tN7F1zLDXHIlHfthEFF/r+8QuPmvxyCP3OYUf+OuYuI+OOeMQW+cJ9jwX8TjwOioja2fsYzFnLNnyKPnrjNLco71sSuvUSymPXnz8Ui6H5phxzLGWQB49uWQ2p5rDVrkccz6lsbL2Oed+9Od1a149ubRiOLKNPqX2FthHsUcgffw03an58MOHd2q4yLPpsCHwyEb8+GOPXz3/3PNXL7z4wrTBvfzyy1evvvrqZKPN2X+CZ2PTZkAbm+sLL7xw9corr0x+9LPZcYC+9rWvXX3rW9+aNl98tOGQLGCjDZvcEBs2OeCLH68ZBxttRGxs5PTcc89N477++utTbrSxANg+2Iyv47O5kSebvuwAG2yxAXLjObkhctL8yYc1og0f1oa4tL/44ouTiE8bcZmvx9KBcuJrR33EQsyROTPOV7/61WnePOpYMr9vfOMbV9/85jen5xwbihf8WDPiKW/mo7Ujf+w1B0QbY+2Lpxd2/ft2xuH365iP1o7nKjjweemlr1y98vIr0zqB1kBzIA7HWOuGD3BssXG0dlMxs/NlbTkGr77y1d1av3T13C63559/bjqe+HOOME9eY4+tziXmzFoBtkj4ceC5Yqjd+51S+znB+sVHSa9LaC1arLUOtVwi2ZjeNienQ/Mv+R8ady3IoyeXzOZUc9gql2POpzTWoTlEf163Yvbk0orhyDb6lNpbYF8S13Hu1Fx//PT+tcu+qOHCro3uySf2H2GwsbAZ80gRQT8bkX6yZyPADx9tZMRSkcCA2gDpY7OgnyJHBRKFDu1sFNosiEUbY6lwIAZ5IHKTNC5+5Mh42oh5xF+bO7a6q6PxyPPrX//6tOFjw8VTMZkjz4H45KONmLXQ+mg++BOf4oA+NmikNWDu8lc85slz+niUaqhf+TBv8qCQURHJ3BWLfo4FOamI0fw1LnmQO7Zs9hQ1PGeNWX/mhi3iOW2TducKj7utcJoX+bB2rAGvGQ97xn711a9OsUmfddVa8KjzjTwZl/WlLaLzAj+EDWurc+7lr7w8+T/y6L5wYk46Xznf6PNik3ND60ls7PBxtI6SzlPUosdmS1ijEurzR6lFaV49vktoxT31OkeUTymvc8s3w3PM8j3VHNYctzXHrSiNlbXTtlTyr1Hq9/bMhrZMwp+DXsf2FoqbKRQ1+zs1XCzYeLjYsznwqOfalNkEQBs2mxYbizY2NgY2KTYFNg42VwoF/IhNH2IzwF4/HTM2vz2jje+RR/gC6n6DZXPhUZsWOfGc+Nqc0D7G/iMYFRjE5zXjkZtsiafNVgUZdzD+1J/6U1d/5s/8mWmRVMwg1ggfoI9x9Jo5Ugih1157bRLz0BpRXLCBs37kooOADfPQWNjynGKhF+xBF3o2Z8b3OzGMSb/GZL5AfpLGZZ1UKOBP3ohjgg19rMf7778/PcK+b7e5755T0Px6d3zJhhjMCVuOuY4t6/D13cn39a9/4+qLXbxPr7/MC/hwLBhb5wb5Inx5zaOOH4/KF3tis94vvfjSFIOPn7D71bu/unrvvfem48has04q/DgfiEmO9Plx57nWGHgedUmwThlaQwlKtpFjr0Etr3hM5tgeSimW2lv950BPjpnNqeaw5ritOW5FaaxDc8j8WzF7clkjrl63/CLYl5QWNcDFXT/t8oi4u6DNgudc7Nkg2Cy4aLBZsdloA2KjYTNgM6VQ+Pa3v33jzg4bJ336CZzXQCHz9NPP7OLpo58vJns2RWIqFx61yRGDzYx8ic/GRGxyZXOnn1jy1x0j4jIH2rEn9+9973tXv/mbv3n1W7/1W1M76/KrX/1qesRWGxzxGAcbnlNA/MZv/MbVd77znWlMigDaWR/82DxpJycKB/KknzHJnVjM8d13353aWc9eyAc4DjznOLHm3/3ud6f5sr6sE326u8Jz5qKChnnQruLBiwRy13xow5Zc+X4O5wGxmcf+uyv7wpTjhj1oXvhhS/zXvvbatFacF+Tx0UfcEfl4is9aaF0Qx0ainTmxPqwtOeCvfHWHinynomh3nGlnfL6r9d77703HnTFUiPJIPGKQo+RFjcPaRV0arEmEtqy9h7lrMGecubF7j4ns5savUYql9lb/OdCTY2ZzqjmsOW5rjltRGuvQHDL/VsyeXNaIq9ctvwj2Jamo2e88Bhd3LuZsBHyZ9+23357Exv75rz+fnLkoceFncwBt1NrE2QjYKCgo+CmYIoJNCXuKBG0sxGGcn/zkJ1c//elPdxvge7v4JM5HEvuNBTslzZj4spn9/Oc/v/rjP/7j6UvK5EYsNlI2TcZifHwolGgjFx7v399v6oAPduRIwcGGSR/zYLNXji7mSTtzxo/Nk0c2XGLRR46sATa6o6TCQvmz2dPPHQNi7AuD/Z2SCH6ZgJyA+IzFHFhvCgJiYkfOfjyUC2JMrRn+mhPFEScJPthgy1jMb7/x7+9o6DzgkdeffrpfN2AuSL70c0w//OjDSdN5sDuniE9+gC/rzzn3J3/yJ9PxZb10jJUnc4gwjsZEisv8nnxq/zEqa6J5skasldaJ+BJr5q/RHKJvTUvI4pQ0194VYZ0kkfltqRY1W++rSWR9mQaDc8Dfn5nuAtMO6pNmU6EwYTNhU/nJT39y9eOf/PjqrbfemjYb+iVd+IHNioKFn4h5zobC5iHxmkKBIoYNHRvEOL//+79/9Qd/8AfTGPuNcf9RDHngA2xS8v/FL35x9eMf//jq3/7bfzsVRPpNKnLShkZexOGR37R57rn9T/28xpZNmPzJi42Nj6rIk3GZNzE1X9/geI4vmyqbIn4UEsShnZynuwK7R2yJqQ2bfLS2xCceMfBXUUTufjxqAmLwnLkRR0UNj+RIP3kRl1woUrDltTb8J66/C6N+FTUUXLQRnzisBbEoOJkbf4+G57QxN44Pd114ji0+IH/ap7tev3pvKlTefuftaY3pIx9iEoPz6Gc/+9l0XnCcWS/a6MOOefHoaAxi7I/Z7njt/tN5yBfdtS4q7hDPVeQBMaT9HB+e45eMz6tXczjUv8S5xM3spcFgcD7cv76WT3BhZ0Og6GBjpnhgg+cuijYg+l28qfHThq0Cg02HzVPitYoSNjaeIwoZ7rggfNkgUamoUeFEMUMhRH5skPSRD7lgy2ZETuTHpuWbvG+6tHlRQ+7cBSImz31T0yaHL35s/rrDw+apTZu7DCpqmDvFg8alnTmzDrQxNqKoIEbcrAXzigJi8Jx8tFnzqM2aHFhPbe60U8jw+sFdjCcfHidsmA93afTxD/EVBzF/XwvamNv+mO6LGv0BPmBOPH9wXN9/b5r/L3+5Lxz5o306ZsRgjTj3/vAP/3A691gv2ohLLr5Omr+P4XnyRR/m8Nzz+3Vmbr5GKibxVb6CfLw92uh1r+aQ+a8hn1NNJXpswO1qttGuV4Jj75pDFrekQZ1szXo0uBtkx961JvkOeg2bBxd9NgM2P2DTYeNmU2JDAjYHNnh+skdsMGxC/ITN5oR054MJ0E88/Ng45cdmw0bMxYmLL5vYtDEZtOOPre4mkB8bF7bk5YUVsbib8NFubDY6YGz8+AIz3z+hMOEneTb0/fgUZMz74fc6QItPXMbkezJ8d4UCgLWiH1ti890gYM4UiawHzxmbAorvfRCDWEthbvJnrTguzF13sijMWBPm9Ogjj05/FK904Xd/iro/+qM/mmJQUNBOPzBP4nH3C/H9JxUZxM7kZG2sG8dVGy4Qk7WiCOG7Mhwj/DQ/1jOeG6wvBS8F8r/7d//T1b/6V//q6vd+7/cmH/LjnOFY8T0a4gIfgRFL5wznpM4JnffkUoJ8Mx2LbOwoL2Rq6NjE4zMYDAaXQrqj6gLIxVw/uXNxh6yoYbNg82fD0AbPRq6ihk2SuxfYqyghHhsIGwc++0Lg4UcBbFi6+wK06QKNP7b63gf5UXxhy50cNih8sdNvUDH2/if9pKh5eb+BTUXN9ZeUuXtBmxc1jA3Mj76sqCEP/l7LM888vbPcfz+H9YpFjTZW3zBbm47DepAn/jxnjqy5Nn19LMeacCcCYYtPtmnhT54UQipqiEFRQ1wvah59dP/H86Y/oLc7XoqbSWPxmAlYVxcQk7VijTjOFBnE0/xU1Piasb4qav6n/+nfXf3rf/2vd8XNv5t88OWcoUCioOScZXwKGWJxfnLOlIoabLPjQ1tLa5LFj+tXErYl/JhI50Cc67HIxsvWCA0Gt4Hs3JYuiRtFTXwTs2Fx8acA4OLOxsYGoLsh2ljYMNn42RAQ8BMwdhQZPLJhsmkwBovEJoMf9sTnTg9FBe3YcBFmo9XFWItLP3ZsdN/4xjenR15jo+KFsXlN/th/8un+Yys2MGAuGlcb1zTO9Js7uhux/zVv7Jjb/u7E/reDEG2Miw32rAPj85w1404P+TImObFWFAe0qVgipvy0QbcEvhaI58RgLMZgvVVE4qOPV1gHbDiOGhNprelTYUNB6h/7YMM45Ky579dm/yvWEmORE2THjvVB2CGe+zwQ7RQzFCBIxwl0PnEu4etjMx5zwObtt9+aijPmQBsxOVbkjXgte84XxGvmRpHKeDq2yu1c0LmAHG+PaqG1j+ol88nyiDo2cU5ZTiji88s0GFwC2bk7V8dkydjpnRqcuZhz8WdD4a4CmwYbHF/g5CdlNj19d4QNRmID1EYpYlL0azNhHG3ybDRsrooRLzIUE2x23Ong16/51evpV7juP/LgOzCMoU1Xd0LY3H/+i58/KMJoIyb5sgH+7Oc/mz6mYG7Y0k8cjUssNjptsORKHDZNvqzMxzQqIsifWerLShpHd2uYs+aIPRs0hQi5a90056ga9MsXVCgwF3j/g/cf3DWjICUfcvFjJoih9ScGx96LOYo2ilD03HMPv6PCI2JMzY+5Am34q7DA3kUbfdgQl78y/Wf/7J+dfu2a48jciEW+5CY7jss+j4d/aJE2iTb8iQ3MmXOFY0F+xCI3xmduPGcsqbXugz5YR2kwGAy2oljUsJmxEbBJcLs+K2rYHLUha3PUBqlNEbTBqrChDx/EJsKGhBjDixrfXICNLBY1X//667sY9x8UNcqbjTIWNb9671cPfoWY3MhZc/q9398XNR/sbOn3okbrEIsa7H/3d3/3xndPPvt0/1eByQOIwXy8qNE6kRdFFX0qarRuJZWgT77A+MxDeTBGrajRGgMxtKHjz3FRYcOdGdaWNdgXDM/dKE4Q4xJTcwXaiMFalooaigoVKxQzKmoolJhbVtRwPHhUYaw2L2rwJzaoqOG85TkxmaOKKvL0887XheN6zpxrfpxHJQ0Gg8GaPChqdJHRBZ6NgY2CzYCLJZsJGzDiQs9GQT8bAXdY8MWGjZqNTBcsHrEnBhsRfjwyDn36WGAfZ/9xEZsfOSg+bfirnU2QP8n/xC4OX35lqM8+2//mEzZsTOSiuyD8Q4uMCWxk+48n3p4KMzZ57tTwW1Q87u9AvTX1v/PO/k4UmyjrMI27y4dYzJHigO+dUNzo4xq+0/HGmyr43ntQrDAH5qqNh3byw5exyKsGa5Up6xOsO2OzFhQxjKc14TiRA/NQIckj9vh5HNB66g6d7nbw207Y409c5k0ftvv+/UeOzF1ryKOOP+iYs7Y6vpwniHbFB17jL1seec0xoY9xeCQG57AKW/IgH/LjGCGOF+cCeWCPH+MwP9pV9DA+cOx0/LaCXOZKxPwyW1eLzOcYcjSnuXOraQlZHNdd4i7M/y7M8bbyyG//pf1fFOagcfHmws5Pt3xRkkc2DfrYAHQ3gk2En4K5g8NHU9zB0CatuwC8ZoPRnQ02FjYvNh82Ix7p5xGpn0dtrLqGaWPBj42OjUqb0HvXG/Snn3x69cluQ2JTwpacdTdid0pePfvM9T8X8Osvps2NYoJChrsXbMJsYjuzHfvv5rz1FkXK29OctKHqokps4hKHfjZMFQiMzeMbv3jj6k9+9ifTmrGG5Mw6aO7YMC7js4mqAGAM1sHxi7k/F+SjNWN9dMeC+bJG9HNcEGuFLQLiIRU2KvooUMhbdzzIlTX76U9/cl3U7I8zMAY+9PMlXfpZF50HxOZYc8x0R4X1ID/mrLH1HDutFe3EIK+PP9oVULsClX/LSedMXA/mCvgyFo/YEJtjobuMPh79zJV4Oo91XFgHxdRa6XkvLZ85sWrMjbPWuBmsmdZNjzU8l1Zec/qzsUv+rRxq49LXitvqPweW5rh0DofOfc2122qOLUpxl4znPpl/LSZ9S8aEuX6yj4+RrJ22TOxT0z+ToKJGhQAXdz7e4TeD2CBp40LPhsBPt2wuOPMbIvxDhzxng+Li7zbayLSBsQmx+WlTp09FDu371/svkTImSdJGHPLjkXzYqNj0Hn1s/wftprF2GxT589HPZ5/vN0h82JTYvJ95ev8PMxKXdnKkoOEuC8/ZkKc1uC4MtAFSBDAvIEflhg3tbPTYkAPSJjmt19v7IpANkpxZJ4o/bcaMx+bKR1cqjDTvVlEjCeWEWCMKGtZdOdMeixraNBaPrJkKCOZGfipqKEzZ5PmNKP42EHGYO7Y6prQxF76bxHyIQT/rARQwKux43BcRj05j7v+I38MvLRNPRSvrQpypoNn1MR/alTcwfwTEoI81Z70ZlzE4xhxr7swxF+JqzcmFNQNyx4ZzBx/WC3w88OctZFvymROrxtw4a42boePRA3l4Lq285vZ7LnEsx9szm5If9MRt9Z8DS3NcOodD577m2m01xxaluEvGc5/MvxaTviVjwlw/2cfHSNZOW6YvFTV641NIsPFyEWej5g4CF3c2sWnj320sbBTYABuONmg2cWzZyLAjljYg7IiHLRsecZGes5kwhgoFXqtfGzFxyFNFC/9I4ZtvvTkVEO+8vd+03/3V/g4BPghb8mEDU6HCGNqwpk13t24sCh9/7R6msYihQoXXKlZo4xFf9ZGXNj3yw1aFAbYqhrBnXEQeiDlir/XXAXL8tfq9DV9EG+vNuvOaHMmDcXTngZzIg7xYG8RzHQ+JeTIncmeOHF+KAvo4tggYk+eMoSJO+QhsiEM8YL7EV27vvrv/uAopP0Q/OWPDMePYvv/e+9OXnnV8EbF0XDQvcua51nryt/g6l8hdttgwHo+yo0/rjZz4uoTseuy1br5+TqkdsvjY9/jw6P4tvxpz/XzcmMehZPPIxquNqb6WTam/5V+Le2yW5ILP0jlsMfetYm4RdwnKQzm5nPgasjaRxTiUUjy1x8dI1k5bJhU19/7m3/7rX7Bh6c3PpshPyfzEzwVfRQGPXORx5qdtRGGjCwabnQoRbXpsrorFpoYv0KfxtNGpD9hIGFObHxsX42uTnR7v7x+JMY33Bbnic/NLxirSKMQ8LmI+2ABxsH30Ue4WPfwLs+TFmMqfNtC6IOUuOxUV6md81hVhi8hFa6qYJRQfmLNiCOXKXJgna87dDs9bmz42ikE+5Ea+5KF8ELa6u6I7cRxbNnvFpZ9jS78KCGyUm+eodWFMPWedd9lP/TpeKiJko7llwl6Peo40N/x5TkyJOfLIGkzn0W4cHRti0C8bxSWG5uKPet4i+tYg/+wxkrUTn3b39dcRn4Meo68oxShRs4+xfV08pxKtXNw/2tLHcRetsUA2Jdu1+s+BJbngs3QOW8x9q5hbxK1RGk/trXyy/poPfa2YcynFU3t8jGTttLl0Lf/+975/9YMf/PbDosbhQo/YkHWRVxsbBRsmt+xBm6GkTV6D8Ygf6GLmG5BeO/joUf3Ix5CE+zgaw8Fmv6k+vHsAjKHNDxvlD8Tgudol9SlP91d8XpOrz1NrqY1XsUooD+Wg1xHlqeeScH/GVpGhYoZcheaIrY4Bwp42HjUP2jVHHwP0SJ+vk3LVGMTiuWIpF8VyW0cxhY8BslehwzjY0O8CzwXFsfSax1JfxH1akFf22Av27uuvI5qDBO7jfqUYNUo+MTZofM+lRC0u1Pzp4xjreQ/KqWVf6ld7q/8cWJILPkvnsMXct4q5RdwapfGUy5J8aj5LY9ZQvBi31B7J+mlz8X5GKmrSnVQbgjYKbTYE4MJBYaFb//yEzmvZagBsAXv6XBFPUH6QXfiITT766VrSZqXxJdroi6LPx3JiDBRjZ76en9vw6HkoX2y2grXL5MeBwkF3ZfwYCrfnOfi8aeM8wZdH2ZTA19dI6yHRLvE6Hl8Uj0NJ2Lk/ot3zB+WTxR/cLuKxHwwGt48v3amJGxOvdTHwi4Ke0x83Q6CfvtpGV+pXmz9qc1WxJSlG9BGlCxntPgc9KqY2tri5ySfzzR6Fv9bYUTXU37L38V1qc19/7nal2JkfxHaX2sHzEJm95xKRjfBzICPa++vs/FE/j25b6ncbf+64TwuNEx97wd59/XVE+UvgPu5XilGj5BNjg8b3XErU4kayuPGxhXxb9qV+tbf6z4ElueCzdA5bzH2rmFvErVEaT7ksyafmszRmDcWLcUvtkayfNpf26eqdGl10kDsLNgN+Okf6yEEXlGgLHk92wuO7ImrXBPiJOkp9LveJ7ZDlE+0kfx1xm5Ivivmqfw5xPTOVcBuOG0WiCsXMT7Yi5qo4stF8avK10HNfC2+L8jgte19rX2+Ic5KPx4U4f6H2c1cPPX6ZzSGKZDYlzUXHcrAN2TGKOibZ+FGXTjYn113mS0WNX9SlCG3ZBgBzFjfzrzHXXsScXI5ix80v2vWwJM8SWRyfQyahPJZKm70fb2/LigYUUbtLZHnXmGsvfEwni9cT3/0yRTKbliKZDUWl5O0Z2fpDyw/cJqrGVrZzWTve4CHxuI213p65a+7v/Uy3hfROTc9E3aZmd2lcynyyExrViHPTa5eT9bu8uKkVNKLW38o90jPfY6A8orYmG1PakmOMt0XMwWBwN7ivjaamSGaDSpTsSu0Q++ZoLeLFO5OT5YJKZLZSiSyHkpaQ5bJUc/C84x2HmlpEm+g/R+6fUeuLyNbvspTmHclsaqrhdj3r7nh7nEdPLFQis83kZOcgipTaS2TjRmV4DjUNBjWWni/Rr0dLyWKhU3Cxv+Kx5eJlF62WasRcpV7mjgdzbLfGc6nlE+1qmkPm73Kytq3wHKKOTZaDq0ZmH7WULBY6NlkO0mAwOB8utqiBOYXBoWQXM6mXY+Z7qWTrG7WUQ3y3IM7LdWwOySHzdQ0Gg8GxmFXUZBcs6Zj43Y6ouWRzKWnuLXbIckRO5ouy8VBmu4ZaZLlHsrjZHFDJNmuPEv7a19fzdL9DNYfM31Ujs5cOIYvXq6VksQ5RLSZk58AaZONlGgwGp+Pi79SUtITWBSrrl9Ygi1tSicy2R1uQjVPSHPslzI0x1/5SiPOSRNaHDmVpvKV+g8HgbnKjqIkXkEPVomRbK068r0fCx1pDkczG5WT9PVpKFktqka2lyOJlymwPIcZyRVr9vcQ4kliyTr3M9Y027ldSDyUfn7urhxgzKiOzQ71kvmgpWYxs/m7nOheWHL9LIs7vUuaYnTNokHPRd2puK+OkXc5Yt3W4pIv+YDAYiIstakrVtrfHvhK1IkJ9WX8cw21dtb5enZKe9Wzl7DFqcXrJxvCxozJiTq7bQO86OKdai7l5ijm2g8Hg9nO0oqbnYpnZrCERL5xL5GRjZGRxWirRGmsJWUyfW6Y5ZP6oRM861HD/TFkumWpkcUvU+rNx0RyW+jm1/KHVX8Pzi3nW1gZKfqegNw+3a9kem5hbr86VLNel2opjjjW4ox8/6UI6V0vJYtW0JdkbTDo2Puf4G1GH4HFdc8jWB0U8bhxPuhSy3KVDqa1hpMdmMBgMMsZ3aozsYi6tQRbXdVfZah0Ojecb8dyNdov5HJNLz38wGNxNHvnhb//gRx988MH1y/NAF1K/sEaJ+DrS6nP/mq1T2uS8zWP1xi2h8UrjOnGs6NtSzScyZ17YluT9JeL4pZxEjO+4n+LMlRNfQ9bm1OYKpf6lfiVkHx/XIK6XP3d8zGiT2Z+CUu5C/cfMd+uxDj0XPL+luS7xK/kckg/2S3I5hNZ4Wf+hOS71n5urXs/1A9oyvfTSS1evv/71q/tX613DjgpvuDUvwEJxXSUy20wi66upl8wXHZNs/EO1FmvE1BvnENbII2OruKdg63n4WtXUwi+mh54Xg8FgPe7v3sKz3szHYq18trj4+HqVVII+fX/kkO+RyKdHcQ2kOWRx5yrO20V/JGtT3h63VxlxTSQn63ddOq01WorHdTlZvzSX3hiZ3VyVyGwP1bE41binJHs/Z7oNxOMbdVu4M9+p6Tkx44ksbcFtOokGgx5u4wU0w+fpGgwG23MnippSkRLb0f37929I7Yfg8eE2XfCyubgyan1L8THXjD3n2MfjPNgTj43rXGnl6P2Z4l3IuRoMBsu4FUWNbyZb6lgce7wa2QV3LTm+znHuWXsWLyrDY3m8SLRbW0vJYrlEbR2i7THwfKJOSZbPOWlwPPx9lGlwGdyqOzXjJDwN2cXYFX9aPWeWnkPjfOvDz4NzPxdEzDlqMBicDxdb1MTNp6ZIbHfbkg4hXgBbMX3cmt2x8PznKrsNvyY+Vil+7zr6ms/5+NH9euzX5pRjz6HnWJ2SLL9DFMlsMg0Gg+Xcz95UvVpKFqtHIl7Et1I2llPrczz/mr33ZVqDbD1LuG1U6bsCJWp9NWJ8ycn6pYzYl611JkdtXvhI3q/XjudXUolWP3icqFb/lnKy/l45vs5a68zn2DqELJ4Ecc4tzSEbM+qYZOO7MjK7uRpcLl+6U5MdYGltsjFKqpG9kaN67HpY4pMR49TUumPgttKSLzm7v4jHwe+6bHX3JaIxamNFm5Ycn3dLuoMjqU39xyCbT00Or3UMW8dPfa4SbhNjoxJuI0VftJQYZ4lazLXvIcZcK+5dJltT1+B2cBYfP2UnmGsOx9xcDsVz9ceaWsy1j2Q+2TFpbYinwnOMUn9Gz3rJxnXsgkbEublqzLWfQxYb1cjso+4yYw0Gg3mcpKjxC9bcN2zcPLShLJH/tO3KaNnMmUdpjDnEfGrqIbNdcnx68fxK42bSXQBJ7T14nJpfzG2uIqX2tcjmVdMcMv9DFGOWcJtTak4upXOzR06pXXj/XA0Gt52jFDXZRX3rN5jGjFIh48VM1laSs+bFQnHihTGqd7xSzj0oj55xtkbzjfP3dh7nEGO4aviaLl3bYxDn5Gu3lBgrSv0tO0R/ixhDcXuQbY96wdbzyRRjZ22Zov8heNw14g0Gl8bmRc0hF/7sDYqcrC1uPCXVChmn1O851dRD5terSJYvmks2Vk0tMp+50gYQNwKpRbRvSWTriZaSxXItIeYcqfX1ojHWVonM9lCtjeK2zs1MTnwN0X6OMlr9W+Hjus6VS8p1cJOz+E7NsVlrE9mK8SYaXBrHOl/13qjpXNg6rxh/izEGg0vjVhc1sViJhUzUuZBdrEqaw1rzPTSPjFYs73Nbbx8cl+w4SK1+qZfMF2V3R05NzDHTErI4UYPBXedGUZO9SdAh1OJlfdKhxA18jjJ67LJ5uLYgGyeqhOaQ+awtJ+ufo7XJxuhVRus8WUIc019H1cjsS+plju1SYm5bKVLr68H9o4SfI7EP3KdHvSz17fXL7EpaytaxpMEy4rVQ6iHzQy2OdqdmyYmRTQhtQTZOpi3YMnYvpTdxbI9akyy+tBQ/dq4a2fi9ypg7/jlxjjln696rFpkP6mHLtVqa02Bw17iT36kZ5IyL5eDS8U3/Np7L4/05GNTZFTXn+1Oj/+RTU43MXhLe5r/e7XIb11KyWCVFsrZe4kXf5d9LkE6Bj1+SyNZIbS31kI2N/Hsccd3E3LGcQ3zB/V1z6LH3+Yo4Zo9K1PpK6DgcSxDn08rbfT1WpsHtJjt30KWQ5d6rjMwuqsZZ36nJJtOjpci/p6Bx+yWaw1YXOI+b6RLJ1nqOSmTrU9Nt5dLmGfPdQodwqP9gMLjJ+PjJyDY5120lXqSlSyc7hkhkbTWyNcp0F7jUecZj1aPBYHA5PPLD3/7Bjz744IPrl+viFwQ9L10sso2ltgFF+zhWlOO+ficGYlz1eX98nr1eIhFfO2ov9YPmG9cgSmTt/qjnwnNwqS2j1C7iGHPwsVsSpbZIK69Sv9p5lETJB7I+94+PkPmI2Ndrq7VQG4+SXp+K7Dg5tdw8/6ga6o8+aoeevDK/JTBWaTyP7+O11EtrnseilMfS/Gp+9B173q3xsn5va/VH6Kv1l6j5qX1OXPep+alfeumll65ef/3rx71Tk72RUIlSf5yox2rJiYviceNrcLuoOWT+rh6yua2l7Hsi0ppsFXcpns8heWVxXD3UfGp9GXNsxVz7S0Bz8vM7O8eRo7Yev0OV0WMjou0cnZIsn5IGgxoX+/HTGid5VlD0qvWdG+SU2sH7Mpus3eefrUO8AEuZ3xKJrE86Jr5GJUWynKVDIUbvukcym6gStflG3DYbI9OpyHJBTtYf1Ws3R0vJYqEWmU8mP/+y8/A24OewNLgctjh+4zs1R2CNAzW4SXwj3NY1Pvbm45ueazAYDC6Bi/jtp8hWF1nfIKMyvC+zUb/brc0hm4585/i7T8uvx6ZFXMM5yojtvXM5BZ6bayuysVznQi2XQ/L0uWbagqXjZH5oMLjrbF7ULHnTZZtSjNOKpRhRGZldJifrb0lkc0E91GxLsby9pozMrqTMfgnZ2q2tYxLXRMrI7KK2JBsvU4+tU1r/zA+1yHx6FclsSioxxxYy+x71+G7NscY5J3x952pwXC7m46c5J0q8gJbUoteuxJyxjkVcx9Zangu+lrXvMc3ROZMdJ3QsTjXuXGKeNc1hie9ce+F+mUrMsR0M7gp34js1p9zMzn3zvDTisbzt6zs2rcFgMOjnkR/+8C/+6P0P3r9+uT66EMcLctyU4uYU7f11dnH3eK5an+TodezLxsyQX1SNVn+NUvxDYgqPUYqndh4zG7VnfSXcZ00pdnz0/rn0nhctiJMp4vlmcrI+f+3x9Txra9Gy8/EB+2y8Xko+HncJnmMJ2WhOpXkdQsyjFDPatYj5ltA8WuPOHX8J2RhrjHuM3IFxjjWWUxq3lsvSXGt+am/1Z9Tigvqlo/6dmqVv9NabawlxIUqaQ+YviawvqofMz3UorVje36u1yGJLc8j80anw89y1hGxeUUtYkpPPpaReMt+lWhvFjb8yHdVL5utqUbLzGEs0GFwCJ/n4KbvQuuZS88lixzYpEt/QmY/L/3ZN6Xsf0aZkd6icrH9N+Tx8XmpDLWQXVevLVCPaen7SFsQxNI7Orfi3RJCo+Ukloq/8IcaQ1iDGzOYXbXqRfU/MTJHMJpOIz6Xe8TNFaItzi/FLuM1cZWNKshncTbJriXRsshzQ7v+m/jvxnZpLITtQUYNBxDemmk7JueRRw3N0RVr9kWjvGgwG6zKKmjMgK15qOoS14w3WY85G5xvjEon4ek18vJIO4RjxJJH1oRqyye5+tJCvq5fM9xANBpfAakVN9iZAGZndHK3JWnGzYuFUqpHZu47FFscyw49vj7YgG6emGpn9Wrp0sjm5emxamkPmX1IktrvtWsqo2WV9vVqTLL6rhyV+mQ86J7L8SppD5t+rYzPu1HSQbf5z5cTXc4hxpUPojRXtaraDPrZ885/qonLubLnmhzKO2WBwGKsWNX6x8DfmJW5+cfOOX4CdoxgrKiOzk2rx5+B+h2hL1hwnnp9+jp6CLfLJYroySu1L6T1mbhe1JXFNpDXJ4rsirX6INpmOSTa+azA4BfcPuZBkJ3JUKb7brIGP01KLzOfSlJHZnUIlMtuWMvzcmqM1yeIv1Ra0xqmtb8SPR6aMzC5TlmdJIuvr0RrMjZvZRzlZ/xwtIYszR1tyzLFaZOfvqYjrcuq1OSYH36m57YuWnahrqOcOTk0lMltXi8xHGqyLv3eibgvZeST1kq0POpQ1Yzlr5pZBe/zScSbFqMWag+JsPc5gcAjjOzUHkl2sUUZmV9KazI3pecz1HcxjbAT9jI1zj69Dr9Yii40Gg3Nh0+/USHCJm6Nv6ucqkfW11EPmV5NTOhcgswePlekcyebpEqX2NcnWzNWi1w487pqCuFauLYixs5witX7PN8aeQxZnDZXwOfm8shhosCeum2twXI7yReG7SDyxsy/3Zm0t9bLEh2Pmt5PXIsabm9cloDnGubZgHeJ5MNizdE1PwZbnc1yHmgaDu8798YZYD23Wh6iXmm2M6ZpL77nh51HL59C8arF7iHlmElnfXDmxPVsL5ESfiPfPUY1STlmclnrI/FxzyHJHLXrG7bGBXjuYY7uUbIw5qpHZ1zSHzN8VyWwyrUkW33WXydYj05qs9mMhF434E2fPhWRQpufg+0X7UB2bU49/G8nOmahTEY9365ifMtcezmVd5xBzlgaD28LBRU12oYqqUbPxGK7bTnbRcQmtRywml+gU6+tjHntsUVrbFkt8xFK/Fp6TK/tNFefQdfexXI4fYz/fSpTiHEorXu+4bleyL/W15r4V5OHngp8PMcc18NhbjZGRjYu2JBsPDY5/HhxU1OjNKc3ZKLP2Y026RS3vtfAxlowT/bfQWmQxvS0q9mesfZ74uedagyyuK1KaM2T+h8ip9Wd9Ugs/lpnmMNfeibkeEmst4lr2aAuycUpysn7XYHBszuJbidmbIeo24Bdy1xzm2s+B2L1F6aCfLc7nLObaclr9xybLp6VjU3r/ZLmtrSXgV7uTU1Kk1D4YHIPxqxaDB/hFOGpwGFtd6BW3phI9NpG59oMcX/uWIpmN6xCyeNJgcAmcTVHTetO03lze39Kx6SkSstwyP6nEHFsn88t0bvhxjeuXkdl4m8faWkvJYkkZmR1qkfn0qERmW5NT64tE26itKI2h9473Z3ZOZruGIj02LbIYvRqcD9nxkS6JcafmCJQKgtKJI/tMg+MQj40fnx4yf+mSyPLPNIfMP9M5sOZ7bun85vi4bVSNzGbO3H2ckgaDYzCKmjPFCxnXYHAOrLVZeRzXYDAYLOHoRU3PBn3oBp5dJKUe3NbzbSkS+zyPKMf9SppD5l/SUrJYUZHS/OfgMXpi1eyzvrWUkdlJkVrfMakdz140j/ilVNdac1WcufF8nq25xjF6JbJxSra9RP9MtfX2nFq5uZ+T2c3VMcnGd7XIfKLOiSy/Hp07Ry1qsjcKin3niueYqZe5J8nScU5BzDXTlsS1bWkOmX9Jt5HsWKIlxPWKG+y5E/Pv0TkxJ7elxxjiONJgsBX3D7049eLjHCrI3ijSmmTj1xTJ2jJinKVqkfmcQi2y4xpVIrOV5pLFyLQ2vWvldiXbaNMjoeexv6a5rLWWMc4hsSCLV9Nc5BPjRJUo2eoxEm175GT9aDA4Ntl1Z9Kub3ynZjAYdOMXkLtAtolHHcKh/mtDPtwt+/zzz68+++yz6dE/nooaDM6Niy5qet5cfhE+twtxzE0afBk/1n68j7VmpfHvCn5+Rp0TtWPTyjWbkx/z+BGZaykxjtRD5odqtOxoV1GjgqY0Z2kwOCce+cEP/+KPPvjwg+uX65Od9KU3gtrjY4T2Uh/4xSlTL9G+5NvKFzznaKdxSnJ7xYkxRKl9Ca1YvWMxhxZxnr3E2LUYWd/cMaO9v+6Z5xIYQ+PER/DnW8C8MqlvLpqPBDF2nJO/jn0ia49xkVNr35JS/NLcesnm4vT0kYPy8HiZby0eyL9ld24smWtGnPua69CKFftjLhmlfm/PbObG1ev46NBWa4966aWXrl5/7fXj3KnRm8TfLCWy/uif2axNtmg1SjnFvEt2LebEiLaZnKwfzSHzRyJbT5fIYqCMzK6mNVkSO5svxFgo/nTsuF3sWwvP1eVk/Sgj5iy1yHxKOiVZPlFO1u9ysn60Jh6vdSwjMS8pQ31+B8hV8z0UxS5pcDu4mI+fxsm3HF+7rddv7XG2zvcQ1szN1y3qVPRubr2b3xJOvQbHoOdY99isRe9xX4rPJRYzaDA4hBtFjZ/MPVqLGMtP8Lkn+Ro5xhg1XSpL17eEx3NBtm5RUPKvMcc+2rbsI3PtRTZfVCPmGVVi7ji9ZHFrgixvV4Z8IfNBLWIeIovVUg+Z3xzNYYnPHHztfA1L+bZycb+5GgyWMH77aTBYSLzwz8X9SzHGxf40LFnneJxqOneyc3KteawRYzAocfFFjW8KehPehjfKmm/8bI2OSRxfWsohvkuIxwLFudRyyvwzFCOzj1qbbIxM50KWWyYn65+jGpn9Eq1BFjdTRjyndU46WSxXpNXvRFvXYNDDuFMzGAwGg8HgVjCKmsEq9PyE18NSv61Z+yfF3p9Ce+3WIo4n3RayuWXammONszXHXLPBoIeTFjX+hsjUQ+bnWkIWBzlZf001Mvua5tDyjf0lZcQipqQsXlQpnsh8SppD5p9JZH1LdQhZvCiRraco+USiXZTj42nMzEdySn2xfanOjSU51uxjX69EPHZSjVq8XrIYmU5Jlo8rI7OLGswnW8dJu75xp2Yw2BHfHIOcuE5jrQZbMM6vwVLu78rwL1XlUVtzjiew53SsvOKY0ly2PGbx3GgJsjmhpawZC7J4roxaH7h/JidbN7QFWdyYT4k4B1ckm0OPH9T6wP3n6FxZklvPnGSTaW3WjKtYW/8xvlOg+dy2edXQtcC1JTf+le6WTskaecQT6tgn1RpzaNEzRo9NRm9M1xwyf9RDdmzX1NpsGbvEknUVnm9LvWS+vdqKuD7Z2JnAfTOdO9m8pIxWfw9L1uWS1vSu48eqpjW5mI+fsoVwZZTaB7cbv9geqi3RGPqrqpfwl1U9vzVyjPF6dCqyXNBtIptfSYPBOTK+UzO4dWQXYHRuZDmiwZ6xJoPBYC6P/PC3f/CjDz54//plzrEvKvEuTFRmozZx/35fveY+kVJs0Jpc2kW3Nt85xDhrxV1CPAZzjod85/j00MpnizEj2THycdfIITvuiuvxs+fe5pTae1FOh8SYg8bL1qKHOX5uy3PpmGTj9eYQ7bbOvRS/NYcleW01l2PGLY3l7XP9pIxSO5T81KZ+afpXul//+nHu1MTBS0Q7ChMp9pUk2xKy6Ykb0cU26pypzWlu7nG+pbi3Af9ISB8LZWhNlqiXS1jnuF4S89TjKfD1bikjs0NbQnxfvy3wufh4Lu/vJcab41vC47nWiD24fXypqNFJ6ToEvyAfUxmZXa/Emmsj5sTKcnM5rf4WPs+oyKFjLSXLbQ2JrG8N9ZKt61L10LKP/dncss1njpbSyqsmUWqPZHaxTZpD5o9KZLZSi8wnagmtGPEcAm9zObWY4P2ZTRa/pGMRc3YNljG+U3OHOfYb+NIZF55+srVyDQaDwRbcyqLGK+6oc6J0gd8yV1+LqEtm6w3T45d018nWpKZDOLfz99D5HMJa67pGjMHg1Gxa1GQXnihR6+sh819Dl8rWc/ALoOsYZOP2qkXJPrZLW+HHL6rFXPstydbMVSLOISqj1ncMsvm51iCLm+lS2eoYKm5Ng9vBrf/46ZxP2lJeW16Y/MIXVSNbx5bPlszJfXBaxrFaF61j6btLg8FdZnynZnCxjIv44C7jhc14LwwGezYtavRGi6rRY5fdNXC83yV8jLnagpifyMZHLTIfaQ6+dlGHkOW1REsoxWnNqWf+MaZT8nefXrXIfDItIYsjHYts7CiR9bmcrL8kZ0n/Uh2bLIe15bT6nVb/sfGcXXedY6/Jl4qaePH1C/AWLBnHfbK/NVMjW+BeXRKH5h3XdI568Rznaim1OD4H/1tGNcU5x/hxjF6yOEh4rpHMz7UGa8VZk9L81F7qz4g+NfVyiO85kc3DFclspIxSe3auO/6ekAbnQeu4r3nszuLjpyUTWGsBBmXiGmdy4ute4gnf0pbE+bWUccx8a8Q8TpnLbWOs5U3OaT1q783B7WdX1OxORo7/tfyCHbU2c+LX7Lwvaiu2jl9j6wuIr19NJWp9axNzqqlF5tMr8OPCc5d/7wHJZgnZ+NJcDvXv4ZAx5vj4+kpbko1X0xJqcXxN56zTMSjlk83HVcLnmMWFaOO6jWTznKNeMt9e1cjso0pktpN2fRf7ReH4JtCkWtxYgA77QR+ti9JdRmsTdWksee9Enx4dQra+a8St4WNm2pot5zYXrXWUc4w1GdxdLraocWpvICfaRa1BvKD1vIEzH3TJrL2uvWTr6Ool83U58fXW1HLJ8GNRUkZmV1Mks5mrQ+mNufYxnHuMlqL5xHnF8TOtia9vphpb5uXEcaIGt4NbUdQMBsfmrl8IezarEq3NrtU/OC/G8RqcE2dX1Iw3yPHxNR/rfhP/Sa6kyG1eRz9P5s4z8+3RoB9fr+zcXJN4nFyDwanYFTW7k9D+q5GdvNIaZHGlEtkGk/n36hCyXHqJvq45ZHNaohKZbU3HIFuzTC0yn15BNn/XUrLxaqqR5SXVyOyljMzuEDlZf0lOfA3Z+i1Vjbn2Is7HVaJ3HO/rjQ3RtiRRy2EupTHA53yo7iJxbaXIkrVqxVyTs7pTs3TCcxd4bdYY32McGguWnkBz/Ny2x/6SyY5P1KUTj2emjF67JcyNuebYER1n/RVf/2u+pyBbF+Xo2gKN7RoMzoHxnZqVWPPisdWFaHAYW28Ug/PHzwHXYDA4D7qKmqwqX0NOq9+JFxT/iQllsaRjc6oxT6VIZrOm5pLFkJaQnYd+LvboHNAaZH8t2RXJbEoS8XlURqnP/Vpag63iZmRjlVQjO+eQyOKhSGaTqZce31K7qPUdG+U6V+dAlpdrKVksaSsu/k5N6Y16TLIDJg3Ojy2OTzwPe7QVPr+11EPml6mHbJ3mxlgbjZ0VfIPB4Dy4FR8/bb1J1NBF7dAL3RKfU+MbzyGKZDY1zaG1xln8HmW+vUS/OYroPEJ+10Vq9ZeEfQmPKZVioCV4XD1fGmsJPiaK84LWsVlCjJkpEnNtUYrTi+dS0iWQ5S0NLoeLL2rmvoHPnds0l8Hp8POoJCdry3A7Pfe2wTaMjXYw6OOsi5p40Swp/sR0CDF2S2uRxZaORTa21CK76La0BVnurl5auZbaT0025zkqkdku0WA+fh72SGTrvdWxqOVxiRxzHn5MMg3mcdKiJjuAS+RFDZqDxzlEc8liSD6XkvxN58rI/JdqKa0cDyXLNdMcDs01G9+1Bp5jNsY5q8Yc22OwxXmr90Mm73fcJpOI61dSJLNBg23ez1mctXRXuRXfqRkM7jK+mQ0Gg8FdZhQ1F078CW1wt9DxH+fAQ8ZPq4PB3eUiixq/aGVaSharRyLrQy0yHzRYRraWrkvnkDnEtZB6KNmOomo5XpTe5nVca34eJ2owgHGnZiV8g8gu/IPBFoxz7suMjW4wuLuMomYwuHBGQTMYDAZ7RlGTMPenX7cvaQlZHFe06fmtKafWtwYeW7+h5tp6zN74/pN97Sf8GLNlvyU+x5gXZP3Ic/Z/1iGT27pE1lcTxHzOlZhndu661iZbv6jIVrlkZPmsJSfrzzSXQ/0H58v9td4EekNFnRtZjj06Btm4UYLnuriWLrSZZFuyP5QsZi039S0lxlsaq3RxmxPXbXvse4lxkR9Hl/prMM9YtGSFjNpc6hNuH/suid51zexin9RDycfXM1t3pxRjazzHDO/P7LK2Hjwea7MFp1jPtfE5bDWPOEbUKbj3t/6jv/HFG2/84vplzpITD3TilTgk7pb4wdBYpbmUcvH2kk2NnrjO1idQNu6ceZXWVI/S2rTi+tg1O3CbaL/lmzjGjWNl/f7oKO+Yvz/PyPo9TsvfcfteX7cp2bc2f7Vn60KbpNeO94GPoXFLlGJCKW6Ml8Xwggr8OfhzUetXvIzMz3Ms+Qn18yhlrzPcNkJbtg5zcX/IYiyJCzW/OK7TGi/r97ZWf4S+Un+tveYnYr9ez/UD90X64eJ73/v+1Q/+wg/Gx0+D2wsX3dpmc5fQWkSxIXsxUNJgcCrGuTiYwyhqbgnxjV/SXSCbt7SUzF8/Kegnh3NFuauAccU+vS4pI7Obo7XJxkCD7cjWW1pCFidqMMgYRc2Jyd6sqIRvpKfeUOfkMmeOW1Iat5R/KV+fc+brfi0tIYuzRL3FzCVpCT1xSn3ZuZCphMfN4tfIfKNKRBt/PVctlvicG9kcXJdAlvcSHYslY42iZiOyi1rU4Ca96zLWsIxfeFSwRLlNpOWbyeMtUS1mxP2iToWfj6c8J3vWpNZXw/2W+K9FXOtTrvfgPBlFzREYb8TBMdGmkxUJUolo16ulZLGkS+Jc3tOXtm5LGdfSQYmuosZPINehZDFRi8xnTWVkdofqELJ4PVrKIbHiZhUFWfxeQYw3hy1iHkqWk+R4jlvKCyRXZnsKbUW25uDH4xBlc4kS0VdkPiU52eu5qhHzhMzP46nP59mjuRzq30scJ+qciMehJHHs/HvXbtypGQwunOzCs4ayIiZT5jtXWVxX5iMNbnLI+kRf6Zw49mY6uCxGUTMYXDi1zcf7opysP1Op0Mjw/qhIZpNpMBgMaoyiZgbx9pdrCWvEgDViQLaJRLVYmov7taRcSj/FC9nX8Lg99scmyw9FfD2ydYl95ybPdY4uidrxOzfmrK/Py1XDj2FNTjaG6xK41LwviVHUnJjsJEeDOrWL310gO0fimpyLegqYjMwODW4H49gOtmAUNUcgFiyZIlnbKTmHi8+px2/h+bkOoRUv619TtYIk9i2Rx5sjp9R+KFvFPYQ5uWTXkGw+pWtQCcXIYkGtP46V+beI8WsabMex17d3vFHUXAC6EMy58JwzPp9sXqX2QRu/oLsyok1WZPQS/VyRWt9gfXy9x5oPbgtsD5KzeVHjG9TYqG7SWg9fs6hTseSimOU/R04cv2V/CtbeOLQZZRLeVroTIrxNcp/oh2pk/lmMkjIyOymj1H4oHrf3HHO7lm2JNWIIXztJ9MbPYqBTcm75XDp+vtU0lzViZHwp7tR4YFHzpaAzVSKzdR2TbPy5ElmflJHZSSUyW1eNObY9xHiHKCOzc50bpdyyi3G8WLc0lyzGKbQmMaavd69KZLaSyPpcPWR+0lx8nX1dRIyZ2Xpb7INWv1g6h8G66Dgcql4yX1eLkk2MI+3+b3z8NOjjxokzOBrZppHdCVmKx4jqIfNrabAd2XpLkL2HM9uoGiUbv2bM0WBwCKOoGQwuCN9oso1kCTGmNLhs5hzLrY53q2ip9Q0GSxhFzUrEN2emU+EXt5acLGfZ+Xcn/M7BHBSrpiUc4tuL57jFeLWYPqYrktlk6iXz3UprsFYciPm5elni04PHbSnS6he1vki87vWohI/rec7JZ3C3GEXNoEm8mKCsoEGDw+hdR9m5WtR8so0GRbIYa+jUtOZ9m8jWH63NbV/HwXlykqImXkCiLoks/6geDrF3ibUvVh6vpKVksaIgztGJto6vTxS4r/v32EpO5hfpsekhy6VXDjncv3+/mFPmP0clMlupRmbfkoivfc6ZhMfKtIRsvJbEknE93/hDyVxKeUGpPcNzkmqUbHvGGtweOPSSM+7UDJqULk5qL/UPjku8yDvZJtDCfUo6NeeUy2AwOD2jqBlUiYVLTWvhG9XYrL5Mtt5xzVpqkfmUtAZzYkbbls4dfw9l2oJLWJcWl3J8B8dlKmqyN5JrKVmsOSqR2fboVGS5lBTJbFpaShZrrkr02Di6YEXNJRs3iysJ93PfGtEnqofMr6aMbF5rKX5kIWV4/znJKa2hqK1zjda4QvF71SLzkdYkix91CKU1m7uOa5LFn6uMzK5Ht4FsXjX1MO7UDAaDB5tI1KnIcpEGfczdDAaD28Aoau4wftE71wvf2pva2vHOnWy+LWV3YqSlZLHWkJP1S3M4xvth6zEU3zUY3AVGUXPHyC52rmOxdMOJeJxjaglZnEPlZP13SS0yn6hIb5+rxdbvuVJcHzPrb9E7P/D1KOlQls5jcLu5zznhJ3pNxybLoaRLx+fiv1q7FI/X0hKyOCij1L4W2QWzpBaZj2sNemJGG/8uS+lOivC2kq33lfqjWmQ+Uo3MNmvLyPpa52QtduyT5hJzcEUym0PUy1I/Mce3tZ4eq6SS3V1l7lpk9q7bwrhTc2ZsfZJtHf+20LoIH5OYS6ZIzSbrc4msrYclPhlrxZnLqcbtwd+/mW4Lt3FOg+Nw30+euTqULOYaKpHZuo5JNn5JTta/llpkPj06JtqQMvUyx2ftOfrYJfXcYVGsEtG+RyVa/YfiOdRUo2Yb+2rqxc//U6hF5tOSk/VLonfdshhzdShZzLk6FtnYa+k2MO7UnBHZSbZUg8uHzcALmKyQydqX4DGXxtgSz23OnN1W9iUUK+oc4T3Ox9Txr0DXNBjcBUZRcwZkF6Ct5Cy5eGcxUUaM72O0fI9JKccWPodD5hHHbylu0iUpdg/RN/OLbdFemkOPb7Q5VMcmnid+rmR9qEZmP1dLKPme25oOjkd8b53iXIiMomYwuGDO7YKyFa15xn7prnGMzX6LmIPBWoyiZrA5d3WDWQPfoHu1lEN8I2tvqppb9jGS+qJNvJM1h7Xz3xLPtaVDWTPWYLAFo6g5U/ziMUc9+IW+V2tSyrd33F67FmvFaRFja94+bq9qZPYliaythNu25PQcZylSal+b1hjZ+VpCOUdlZHZRS1HOJc1lbozMPlMkWwPUYonP4HDObb1nFTXZCSmdE1l+aPBljnEizln/Nd4cfswzZZziDcmYflch3llYklPmH9sy9ZL5ltTDXPsW2fGW5nBoXnP8fCzpXMjWMVONufZwyJrMtV+LJfO8LZxmvR/KGXdqBoMTogtwpksi5n3K/O/iprI1p1rTS3sfDE5PV1HjJ/SaKpHZujIyu0w15tqfI9kcXMekZ/xSu2+Scy5sMZbiR7XI7OLrJfkdSmksz2WJItlcj0HMSxKl45IpUuurkeWDbhu+PltKZGsaVSKzlTJKOaxBjB11F9lq/h431e6/cadmMEiIb5ZzIruQI5H1ldSi124pcX09t9LYpzgeWV6uwTzi+mUfwZZY6je4G4yiZjC4UPzi3sOlXPTnzmtwufixdvWw1G9wuxlFzWAzsotOTUup/eTeO47uGNQ0h2xcV4nM9hDNwec4xzeukxRzkTJbVGOOvcYRPT7gPhmK27I7BM+1J+cesphIf5HY/zLxWvg4GbW+GkvXfs6xzTS4HEZRc8dZcmEZ9JFdHNElo83IdU7ENT5GvofGjPn1aClZrJqWkMU5RIPz5FyP1UFFTTapJeoh87sUbY1vmC1BlmOvtkT5QRwzziHi9q5ePH4mkY2B5hBjgo8VJeLrQ4lzyGJHmx5tyZzxMltXjR7baBPVQ+a3liKZzVzVyOzX1KHo/bPme+hUZOvTUg+ZH4pkNq5TMu7UDAZnxm246B7KOV0kj8G5zPfYOfh4UYPBEkZRMzgr7sqGrnn6xVs/RbouhUM3pOhf0m3D5+b/4vYp8FyillDy93Yp+34PGlwG53SsVitqdBL2KJLZRK1FFrtXt40585tjuwWlDT7mtWVua491aNGS5SOVyGxRi8xnqSKZTU0lH5H1lVQjs/O2qLlk/rEtUy+Z7yHqoWTv7ZlKtGy8P+oukq2Day2y2NKpGXdqbinndJLNwfPOci+13yZu4/x03HpVo9U/GAzuLqOoGQwGg8FgcCs4SVETfyqLGszjGGvn3/PIPjaJ/W6T9bmEz6NnPlksNIfesZylY4H7RkGWT2bbksj6Suphrj34nNbWMVl7PF/LqDlk/i6R9UkQ17YkiL7C27P+uawZa7AOOgfOlXGnZgbxzX3OB3fOhSCbVxSc4qKS5dA7rxoeNyqj1leiFNPn0JpLZpO1lXDbmoTn7FqLLPZcOVl/Sb1k9h4n619K7VgcShZrzlhL59obf9CHH4eWtuJY4zhxzJZ2/zf5nbSoyRJzrU02xlqqMdd+S7JcpNJvIKAMv3jVFMnafayaIItZIvMXasvmLPQ6treIfu6r+WfrcEqynKUamb1L6LWvd0sep0c9MUpEO1ct5hZ4/JLWRPHiGK4arf4tiPlJS8jiuA4hi3cMrUUWG21FNlYu3oeS2sadmsHgBjffNLkGX2bp+rhfScfgmGMNBoPtGEXN4CDiXQfXpeEbaa8Gy9ZtriKZDVrCGjEyYtxebUk2Huoh84lt0mBwKkZRc8vILjCuuZxjgZLNq0c13C5+1BA/bnCV8OLu3NZvCdnc11C21iiznaOMzK5XPWR+S7UWfv5l40SVyGx71MNtep8MTs8oagYHkV3IpHPjHHO6jej4Z0XKUuQfNZcsBlqbLWKemrhm0hYotp9Dfh5tNe7g8hlFzWAxfoE51UWnNZbnk2kJa8S4VOLcM/km5Mpse3GfUiwpw/vXzEtkMXrklNrPAc8tW7u1ieO4NOYW4w4un7MuavzkjTo3zi2/mE+vIvHWcOazVDXiuCKLU1Pm00Nm62vglGL6HHweii2JaBvtMjnuPyfGKdVD5tcjkfWtLZH19ejYZDlspblkMZYqktmgU5HlEjWYx7hTcwvJ3hjSErRBrsXSPE6JFwqHcujxWOq7dLwlKMdMPWR+kpP1r6lDyOJlEjrH5p5nWawaJXtvz3SuXEqeg+MwiprBYHC29GxUvqGVdG6UcluzeL5rnONxHhyf+/7mmqutyMZaQ1uQjROVkdn1qEXmM1eHkMVDkcxGysjsUA+ln4BPsXlkc0Aloo2/dpXIbA9Rjcw+Uw+Z3ykFfh5FOZl/1Bwy/zmq0Wsn3H6pIqX+UrsTbUp2kNmWtDXZmHO0lCxWS4eSxZS2YNypGZyM7CSX5lLzLW0+g9Pjxy2q9OXQQ9RL5uPnkeuc8LxdPTCXX//61zfUO8+lYw4GazOKmsGq+EXQFfsivRfFzLeGjymVyGxdNRsnvnain+Rk/Sijx+bcyI71MbWE27C2ET9nDjl/srGiavTatThkDoPzQ8ezdFx3rQ/+c0ZRM6jiF5yatmDL2DVqbyQotW/BMce66/hxj3cqtmTt95HHi8o4xhwHg2MxipojkF1cMp0LMa/ejwGc1kWy1X9I7EPQBb60qel1bJ9Dj7/b1OxOSXZsevDjWtNWlMZgneNx1/MMj5Opl7X8ovx96+9fR/MszRE85l3F1yBqa4493lxifq5DqZ2XJb70ReE5RN+5us1k852jrWiNlfX3SPhFUipR66+N0Yvn4KqR2bvmUMq/FCvOsTRuqV3EcaUamT0SPmYc1+1EZh9jryWR9SEn60cRzzsji9FSDz22HnOpesj8MoEf60xOFiNTJLNBkczmGFqLLHamFplPSxmZ3RzVmGvfw7hTMxhcIHGjgLkXhLkXkrhReQ5ZjGiT4Tn0KrsDgWp9UowVddvJ5iwNBreBUdQMBoNuWkXKVmSbcElZMYPUPxgMbi+jqBlUiRuBfvqOWhONWduAlo57SM5L/dYmm4OvWW3tMruSeol+WX6R6HMuovgRWf8StYjr1eMfbdaQ0+pfC8U9xliDu8EoagZ3jp4N9xxYcpGv2Xq8TC0yHzSHHt9okynehZEy25J8rFKcU6Cxtx7/WOMMBsdkFDWDwR3DN7O5m9oc2y2IeS9RRq/dYDA4b0ZRcyL8lnOmc0Y56tdf/VdgRbY5eFtUFtPjzlFEY4jMR4r9MQ/hNt4OPi8psyuR+UtZjMzOVboLkSmi9hgjxnG8fa6y2CV5LiXVfLI2l/tFO15vSRw7ylFbT16yjfJ5SWvhMUu6K9y1+S5Ba6Rz0s/NG3AplIyLLWo0cekS0UY3Z8M7F2Lua+SfxXRltOxq50jmW9Na1M7ZWr4Zbi+f2FZSi8wnKkN9cZN0RTKbTCLrWyLFal1A3aemLaiNEftcc8j80SFk8eZoCVkc6RRkebiOSTb+GlpCFqdXLe79nd/5j7548803phdzr9uHXujX3Cg81tK4S/wOGWup7yFkY/bkoXyjDsH9PV7W7m0tSie+33XJ8LGiTYwZbeIbzvt4HseN/hH1l/zUluUVydoiPTZQWltQn9bCbb3N24XaYn/J1gumSNYm1Md8tba0PfLII9NztX/++ecPnmucUtzYX7PtIfqXYsmu1l/DfeNjxNv1nPURWb8/er/Tai/1i9jP65YPZDY1v564pZjeXrLJUHurv0Ts53XLJyP6zYkh2+hTagfvy/qF+vWDyHe/+72rv/Dn/8L4+GkwODa+GRxK641/CWgOLr9jspZKcDwoYiQKGVHzOyXnltea5/RgcAijqBkMVoCLuitrizoU37Brm1y069UcMv+oDO9XIdMj95ujDI4FhYxLx6fmdypa81mKx42qkZ3Tvb7C7Xt9BoOMUdTcMvwCk+kukM0bRTIbVKJl4/2Z1iRuAkN9Ah0PvYbScYq+54DnhDz3mlrEuCW1yGxiDq2YpfbB+eDnlh/bUzOKmsFiaheluXis2k/ka7P2G1Nx9NP+0rhx3iU5WX/UHDL/Q+TH1ZXZSpm9lNmjFvF4uG+MXcJ91sTjHhq/du6tOc4aMQaDtRhFzeBs8ItjpktBm4lrTWrr4etVs9uKbEy1eUHSUzyoL/Ot+S3Fx9si/mAw2J57f+d3/uMHv/1UYulF+dh+Ys1xD80Ftohb8l8j3wziRjl6HduFbxAlm4x4x6Pk2xMTG/++hOLVfEt9sV2v4yOUYkCrTxI1+xLRf0kMHb/SRu9FgJ5nr10ZJTs9gj9v4fPVc5+/9zmldhFziLm2coxxo2/N322hlKNw+/i89DrSGgM8VkY2Rs3WH0vEfl63fCCzqfn1xC3FLLWLUtxWe6lfZP1LfMDb9bx2DotWvKzf+3r69YPOd78zfvtpMDgY3thRoDdcSS0UZy7ZWJlE1ncuEllfTcdmrTG3moPHjVqDLWIOBkuZipp4UpZ0KWS5l3Qqslx6dEpqeZTaon0sAKRLRLnrN2b8rpLj6+CSbUtOFqcl/9gG9dicWlmOczWHaB9j1dSix87jtRTp7WtpCfL1Y9bDHNuIfDOtxVZxI3Ec1xKyOK5jsfl4hHYZ407NYLASsQBZylpx/GJ2SomsD4msb44Gx2Gs+eCcGUXNYHPuwgXQ76xEzaHk6xtJTXNsM8U7JlGZz7notrJ0ju431zcSY7kOIYuHBoOl7IqaZRffwaBGdnGqnWM6B2ty5vRFLSWLhTIyu0w9+MV+S2VFzBxlMeeqFTe+lrROJbK1R2uyZuw4v0wZmV2muWQxXEvI4kQNBnOZdadmnHADUToHsva5F3nZ+28qXTKaT1QPWk9XDzV72krFwRby4iTi/W4nHRMfN+pUrDl2nNNWisdTUv/gdPhxyrSUlm8cp6ZD6SpqsoF7dUlk+bsGe1gLv0hpbfy12qB3E/cNv/bF2zl4zFKcmG+NWqwYQ3aaiyvzF8qnphKZbVS20WR9rmiXKfNzua2QH/+gJMps3b5F9Fvqqzw8l2Pj+bh6yGx57fNyyX6pspiZZN+LjzHXN5LFKmkOmb+0Blnckmpk9r2q0bKN/b1aypeKmiz4qXQMsnGPoa3IxnIdSm9MbeiS0xsjY45ti5hDb+w4NzQ3RgmPU4pVa6+px+ZcJbTeTnwtMv8Sbuv2sV1aQhanpYxSO0R/2Wbtp1aNzP42qYfM7xwksj5JZH1ztITxReHBarC5+J2I1h2JQR+soSSyCwCaA/aln6SXqifOGmRrAvG1yPJwtei177GJuM8hvlr30vq3yHykweBSGEXNYFW00aigKW0yg8NYY+PJYmyhcyDLC90GfD5e0HjfYHBXGEXN4M6hYiuTiK9beIxDJLI+lzarkjxGJLM/RD13Z0oCn1cpZyez9zuELsjGzVQis10iJ+uPqhFta8fA+2pEv5IGg3NmFDWDgxkXvS+jDXUt4ka9hNLxoa22KZYUfXzjVFumNWE9vJhRcaO2NfE5aO4luW1GjON26vO2DNn4eIrnyuzQYHAbub87vTc9yf1NtOU4x+A2zWUtsjWJEtp4MpXIbFGk1pfh9iW/zEYCn19mc4hqtGxjux+LkkTWh5zYFzfPORI+n7lq+Yta3xKy+WQSWV+maOt4u6t2DA45PtLWrDVejOM6hCyeVCOzd61NNoa0Bdk4rlMw7tQMNuFUJ/QpyTbNmo5FvNBIa9GKFcd1RdZcl7je0rlQW4c12CruYHDOUL5fPx0M1sEv1pJzLhtNz7gxz5pPtPOPQWpaQhZHcrJj4TqULCYSWZ/uHOjugcjmIkVK7eB+8eOomjIyO5Thc/H5zlFGqT0jxqv59toNBpfE/S1P7Bg7qkXmg45JNn6muWQxXOdGliOKZDaoh7n2PXjMpXGzTU3y/q3w8bJxSv1x7iU5pViRLM4hisQ8Wur1iWQ2JZXI5rNUkI2pPifzhVI7xD7XlmTjDfUpI7Pr0VKyWL06hCxeWZPD+PhpMOjBN5qoXuKb8BTEHKQWJVtv71UN78/W2uV3YZbeiXGW+Myhdw0gy0G+pTtdg8FgfKdmMBisgDZc1xr45t6j247WVgXNWus8GNwWdkXN7b8QDNYj20i2UCSzQS0yHySyPlSj116bTkuZrcjGkiL46Sd4/TtK/u8p6d9XKgmbLAfw9qVSHlE+PsI2I85/7p2aTHPx+fTiPi7IckKRzN81GAz2jDs1g03ILswQL94lO8gu1jX7Evho01sT5b923AyNk23k4MXBo48++iU99thjVWEj/54CowV+8pcU08eJkk30FaV10FpErUXMowfPP5PozTeLMVeDwW1gdzbf+M8ZRc3g1tO7aSxhi5glfB6SYMPygiEWNS3FwuLQTVD+UV60eL7Z2JKTrUHUuRHnE+c0lyyeNBjcde79zt/9T7548803r1/u3zC9tC4gpX61L70AbXXhWhK3xyezafkt7e/JJzLHR7Y8up9e8xOzyPolp3ZB9p/AIfONRHvFAOy9T88z1J9J/SVqfZHaey4bSxu/FwUqTNRGv2z0XMpy03GjD/Fa6+bHAMV4PgaoDem12oRsgefEBY3n8rbPP//8wSOSH2gcJ77uJYvjbbXnLrX5I5C3556RxUFxvSNuX6PVP4elY7VyXRK35QPRhtc1v1Y/lPqXxq21l/xKPr3UxsxQHq1x58YVsV9jufR++M53vnv15//cXxh3aga3l56N4xLQGxd5EcPHRo8//vjVE088Mempp56axPMnn3zyhmSDvUsfP+l1tPGPp5SDX1CQ0GvPVXeCVHS5NAcfHylXz0U54Kcc1kb592gNsrg1DQaDNtU7Na03km8Y2eZR2lDUvnTDWerXYs24HiuL2xpraS74zfWdYy/bOI5e81O0yPolJ160vV/x1Jb5gre7rQviOGqPuF+U9x8DXx8VC14UeHEQiw4vAPSovFnbbA60S7ojIul4gI+DNJYKDx693VG7pH6tq4+vx88+++zq008/ffD4ySef3MifGNIS3C/GiHFLY9Ae56vnJZ8S2EvC27xdeHvWvxWlXEQpl1aOS+O2iH68bsUtjaX2Un8NfObGlU/J7xBKMWvttVzUXupvEf00FtL7TI/jTs1gcAHoTasiJrub4Xc01Bfv0EQ73R1RMUTskmQTFW38UYVXlGw8hyWSL/FYn8FgMIBxNRicJfqJPaIqfSmH+h8TFTRe1Ggz94+WVLzQzqMXM9FGdioMEHF7NMcWKXfJ+zQP5aCclGOWp/q9XeOscUx1zkVtjc7JKKfWNxgMHvLIX/4r/8GPPvzww+uX+zePGG+e86N1kT3GRdjJxvMLbzyHsnPK7UvIxm31GDcffy4bcF/wOHouX8XMlJG1+1hOKQbEnFQQ6E6Hb/B67lK7b/xeAEjEUlyNgTSu0GuX2ysvV9anQobHmFuWn4/hY5ZgTbEDPR6Cx+C5JEr9SDlHObHdXx8ixfLHY5CN5W2lXFo5Lo3bIvrxuhW3NJbaS/018JkbVz4lv0Moxay113JRe6m/RfTTWJlefPHFq9e+9tppihol4c/naFDfGE9JPE7xePnraJvhNi1bKK1Ly88hxhrrWxszxpetP0pskmz0XhyoCPA2FQjczfA7NLpLEwsIfFUs+EbcIuYWpUIGKVeN7XeM/Ln6lZekmBHWz3ONrw/F56i4sa0k8s3aXRG1ZXaxrSXhz7ckji858bUotYus39ta/iWiH69bcUtjqb3UXwOfuXHlU/I7hFJMb4/j+/OI2ywh+mmsTCpqxsdPg8GZozdtVjRIKmxULDzzzDOTnnvuuavnn39+ekTPPvvsg76nn356+m0p7L2g0DiZ4riZiCOpoCEvxmJcclAeMR/PyQseFWIeV1Ib+bFOazInno5TjwaDwTbc+0//7t/54s23Dv87NUt+sl3iA/hF36WxWhySo8hitOKW+tXe8p/DnFg+vlSiZOvPIZ5zsT/i/Xrur0vwWzS1fvr02z0eL1Mka9O8eIx+0d5t9ahCwjdvFQgqQtSnYkbFgH61W7bEQ8zv448/fqCPPvpoEr9JhPTbRf5bRzxKWd6eK/LixvNTXpoLAq0NY8XfclJenp/nyXPNRf7kuRTmokdJ+OvYrscotUe0jnqs+cT2zGYtlsT0nEqU+peOJzL/npgtvzlx1d7qLxH7Y7xW/xxaPqV+b89sWn49cTNKYyGuNf44fvtpcGfRJpopQ28iVMJtWraRzDfKiwV/M6tNxYOKHsRdkJdeeunq1Vdfvfra17529frrr1+99tpr0+uvfOUr0x0c7ozoTgiKY/QIW88lFjO6Q/PCCy9M4zK+cnrllVemHMmFfMnHizPlpiLI85OUxyXi69irwWBQ5pH/8K/8h8Xv1AwGvZQKgh5K51wpZq0AqRF9aq99A4n5ZXY1ZblmdlHavLWhq1CIr5EKGRUEFBIUCnzOTNFAQYEoLrAnLujOCDnqboxQ3nrMclRh4QWNcqMgUS4qapQLufFIzpqDYnl8xvbcMmkOeq18BXF6ka3nIPx1bNdjlNojbhPnnb3Wc9cWLInbk0+pf+l4IvPvidnymxNX7a3+ErE/xmv1z6HlU+r39sym5dcTN6M0VqbxnZrB4EzRm9TxN29NDq/ZECkynniC79k8uysmKG52hc6L+7sj3BmhoMDGN9NefGz5IxU5Xuzors10B2k3/iuvvHr18suvTHdvuCB5wVXKQUVOjR6bwWBwOxlFzeCs0QYVtRZbxDwELxJ6pSIgkwqKJ3dFzbPPPHf1wnVR8+JLL05FjX/HBdtaQRHxcbJihpgSY1DUUETxhWXGf/XlV69eefnlXVHz8oOihrs7yiPixyo7XrE/s1kTnz8SsV3KqPUNBoP5HFTU+Bs2U4vMZ46crD/qnMjyO4bW4tCY0d9fq62Xms/SDa6WS9YX27Jx3WaORNYngY8p6eMYioTHHnt8V9w8tS8snn1uKiJ4TrFR+u5KLE56+olTkj6Seubp/W9mPbvL47nn9r8BRTv+Kmh8DlHqcx1KtqYZ0a4kJ+vvlePzzGwPVYnMduim5pD5l3QMsnHn6JwYd2oGg5mc4k3MZpZt7ki/9aPfDNJvBPFbTR988MHVe++9d/Xe++9dvb/Thx99cPX5Z59Nc6DA4E4NxYUKHAoL/24ObYj+KNrxly1+8qXd+2mnAGIeU66ffXr18Scf73L+5Oqzz27+hpXmot9qQv4bT/oOjea9ZkFzLI493mBwVxhFzeBgzukCvXUemmvUlrBpq6jRRh7FJo9U2FAI8AsA77///lTUUNC8//6vdm0fXH32+adX9+7fm+6cUHTwMRRFihcoKkxQLGaQih3ZZH6uWNR89uln+6JmV9x8/vnDAqVU1CAVNV7QqBByWsfEj1tJW5CNg2LfYDBYziN/eaXffvI3pTTYjmy9S1qTLG42RrRpUbPtjeNjuo9+kldxoNcgnyin9Nrto80cPAYfvXg8b49ye8d943x5riKAooDX2CkW8o+JvHjhUQWNXnvhoteyUQGkfgobfWdGuXHt0R2ld999d9K+CNsXYypoKNRU0Hhh48+9uNGckPC2Xjm8Zn303NHrzE+or0c11N+yWxMfSzlKaqtR6nf/XjnxNWRt4DFaimQ2UovMRm0eRxL+3FF7qb9GLWav5iD7kl8rXtZPWyb99tO93/m7f+eLtxb+8b0W8YK6Foo7N/aSXJbm735rjntorMx/SUzAT77xUecRG43soo3j5120h/jcX0NmK7tM0HOuyxbcNz6Ct3l7C/KQVKQoN7XpOyml7614G4WDPlpSsaFfo+ajJl4jYuuOB0UFhQRFhoqIWCQ4flxlp6JI4ysXz43nFDXY8ag//Mf4b7/99qRf/vKXDwoc+hB3abyI8bs2Umnd1aY5MHZGnKNDn6TXIrZn8dUuu2jj/r3MsT0UHysbt5VLqV/tLf8Sc3Lx9jl+QF+tv0ZtrFrcVnupv0YtppSxZCyQ39K4WT9tSO8nPeqP742ipsHS/N1vzXEPjZX5L4kJ+Mm3FONcihrPQ/Sc627v/vERvM3bW5CHpDeo50abihlJBUL2Ws91Z4Q7LvonEihsJL97ojsiKmhiURPzYn70q9AA9XkBw6OKGIGPihIVURQ1Xsz86le/mpR95IS80JE0vq+dHwu1ey6O+0Xok/RaxPYsvtplF23cv5c5tofiY2XjtnIp9au95V9iTi7ePscP6Kv116iNVYvbai/116jFlDKWjAXyWxo366cN6f2kRxU1q338NLib6ATz564IbdmGX7L1OP48ktmCxiqNGRXJ+jK7Q/D4eu5j8FxvXLV7P2jzlig4VHSg+FwCbbAUHxQhFDkUO7rTg/R9GdqRP9dr2emROP5RE4UJxYi+vEzRoiLGCxrdMUKlokavmYPmDL5GENeLR19LV4nMJj6PisT+Ug5zdEx8vGzsVj6lfrW3/EvMycXb5/gBfbX+GrWxanFb7aX+GrWYUsaSsUB+S+Nm/bRlevDx03/697hT89a1+broQrM2uojNjb/UZwktv6X9S/LpHWtubLcv+dLuim2Ck1LEPvDX6o82jvq16XlbjVq/++u525ee96D5s9llG56KAx4l7oT4a28jBs91t0SFBx87cdcGcbeGj6UQBQjCnnFEnJMKIcgKCj2qTQUJxQx3ZPT9GQoXHilcaOOR14jXumukIoax9BwprnLyHDz/SKtfRBv5uSKxzx9jO8dHqB38+SnoGT+zabW14vaMm7F03CV+pVgtarF4LMV1m4xSe41aLCmjNdbS/iV+tCFdJ/X44OOnv/uf/a+aRY0uGDWywXv8lkBcaQ5LfWrMjSdauZT6lo5XQzHn5tPKxft5rtdxM4xkff665ivoj+O0/Gp9IP+ojNjur7P3iuANKmEn+RsYeSGTvY5tKm4obPgYCvGTDX/N9+WXX55eU+hwl8ULI+XNWqqwEHGOmpfsEAWKihYKGaSPlpD367nfndG4HtOlHPSo9RL+HGJ/iZKfK6K2aFN6HZ+fmt5cMptWW0/cjLl+2PeMm7X3+NWYM5agL/brdXycS+ZXi0VfqX+pX4uWX+zXWIjrkz9+59vfvfpzf+7Pj1/pHgxOjb9RkRP7VLD0yGOx6VMYUChwB0R3RvgYiI98eNRdEooKbIE4KopUGCG9llQEAWNRcBCHeMSlgOEjpnfeeefBR00+JndyvIjxYkW5u9QvfI3WxmNn8b3d7VyDweA4jKJmMDgStY24RypUVLRIuhujwsKFPTA2hQaFAwWE7pyUihrlir9ie1HjUlGjPCk6vKjxcShqUFbUYK+7Ly4VMXoeCxtfE813Ccr/mBoMBusyiprBYrKLdEvy02NLa3BIPG2mJZWYO5bnGOVFigqMKL9rouJDz2WjTZ+8vcDhzg2PfrcEGx/bx8qEDajgUFGj+LozRIGjj5pUyPiYwuePQGvudhBtXRmZ3Sk1GAzWYxQ1g5OQXdxdW7F0nNKGOofe8ZSbFxMUJ/oyb0n+W0iS/gieP/pvJ1H8eGHiRYyeez5RmhPr4oWMFyy0q2jR+mlOGluvYyFWUsxBedTI7NRWksdHJdymR4PBYBtGUTMYnBna+LRps4mz0ftHPpm8sFFxQxHjUkETixqNFeUbscv7QUWNihmJNi9qBL5epEQpviv2ez6H4rEy9dBrNxgMtmNX1LTfiPENnmkwn7u4hnHONdXI7KUamX2mHjI/yfv9uV5n0Bc3b797IXkRo0KGgoU7MfotJv2qtv6KMNJvPbn87g1xiMsYXjg4Pg8X6E4M0sdQQJwsb0lj1qR8pDh2Dbc9Nw3uFrfh+J/7HMadmsHR8DdC3JjQ2sT4PWohO99ge+RjlISdFzPa7FUMxDYKAt2RoTihgOHXtF966aUH4rUXOFJso8ChuNEdnFJRE1HePkdQcUO756o7RjyniKoVNlqLKB+vRc1G+ZakcWrjRZ8eDQaD7RhFzeDonOpCn42LlpDFqSkS22TH5snGrY092+xpU6FAYUBRQ1GiOzT6+zNe1FC46I6NChlJd3FUbBCbHLK8M5R7Zk8bOetjMXLVR2AqanyOXrxEeXGRjbUGip1pMBicP/f+3n/+Oyf7i8Kt/hL6KdDpiZX5tWjZz41Xw2OV4m6Rj3zm+h6ai/fzvCT1+2PE2+Pzkg94f/bcXztxk4v9jsfJIJY2bBUsvtGXRFGgoobihOLFP1YCPgLSd1p4BHyJr7snPHqhofHJp5U70M/3Z/iNJv1Wk6Tv1PAbUPz2k36NW3+IT795xaO+h8OXiyX5e5vb+Hd1sjx1nFSYSN4msj7vhziG28k2e+2PUMv5VKhgXELm521rxnViP6+XjrvUT2Q+tLXilsZSe6u/RKvfwVbK8PY5ccUSH4h+vJZ0vupRf3zvkb/yV//yjX/7aTA4FzhRs8cW2Elr4TGXxI3+UXpjUnD43Yn42tspRlSQUNT4Xwh+9dVXb9x90V0RHmnTHZNYzGg83+CUYyRrx8/zU9HFGGrHR0UWm7oKk/go8drb9Bz0CMrHVWpfqhiv97U/niue81wyP29bM64T+3m9dNylfiLzoa0VtzSW2lv9JVr9DrZShrfPiSuW+ED043VJL77w4tXXvvba+PhpcFq0UUWJ7ORFkVa7aw4lnzmxZJupRGYrUThIFAoUIypW+CiJj50oatArr7wyFTm0+cdQseCh2CAeUDToDkl2TIS3k1fMhTEYT9/vkciDO0leSGk+xGkR18Jfby3PUxoMBnX8OuI6DPylh4yiZnAnqG0+pQ3q3DYsXQhUcLj8YxleY8fmS9Ew3ZF5cn+3hLsnFB+amwoYfXykj4b4mEgfFemjIexkr/Hkw91e/To3NqAiBzG2vszMIznRjg14ISXRJmnuUi9+bKPWYs1Yg8HgMEZRMzg5SzesXmobmfe5TXzdombvfSUbofnHNZG0yes7JSowXCoCKGooYp5+8uZHUPoISPHw0fdaVNTwbzVR1Phf/1VsjSkfbBDPZUN8xvePoShmdJeIokYFFuCj2Hqeydeiha93SaLWl5HZS+dMlq/UyyG+g8HW3M9O0CW6FLLcpYzMbq6OSTb+GlpCFgcdQhYPlchsl6hEZturiDbrbDOXYhHDnRGKC6Qv6t4oMj7dFT6/vnkHBB/J4/idGv0r2jwnVixqNC4+2Ohujcalz+PjBxQ6FDJ6ZB0UsyTNXWoVNnGdT6UeMj/UQ+Y3dFNrksU/htYkiy+dC1luX9a1ccIjf/WvjS8KD04HJ+iWzInvtnrzOGqrKaPV7r5s9nqtNifbzLFToeCioPnk013Bs5M+TvKig4JBsXiN6EMUKxQlKiIYg5iMgx+FCvbE84+oVMy4vGiiX7moGPLCSfZe1EhZYeMoR+TP9XqJnKwfidZzb1uDJfFqPvT1xOwd1+16fSItv9jP6zXGymK04pZ8lsYttYsl/a2xWv1QsllCFqs2Fq/38ud76YvCj/y1/8VfKRY10Snq0rgNc9iSY62Nx197PI9XihltetTrJ3ra4mvQa9+w9VwbOdLG7kWH29BOkYAoOPhXsREFhAoXCgXAV4WMihSKDtoUn8KAj5KQihT6iefFEjF41HPPQX34IF7rOSKmChsVMbGo0SM5Ca0Z8iJGz/2120rRbg05eu3tbuvqIfNbQ4qdEW175MTXvWR+PkaU+pfgflmMVtySTy2u+jO1aNnEfo8dJfy502OzhCyW2niMetj+5f7x20+Dk6GNt6a12CruVpAjm7Y2cAqIKG3yek0hQIFAMcJHRu+8884Vf3vqjTfeuPrFL34x6c0337x6++23r375y1/eKELwV5Hg68NFgk2eIkZf9uU5d2qQChy1YY+/8lKBwjgULORFUcX4PPpHW+SBvYqZkrQuyjdCDoPB4G7zyF/9a/U7NYPBlmhz0qaabVaHMjdm6bynvaQe3K7HP66JP3fUps1fhY4+2qGIUSHBe12FDEULxQpf2I3FAzHp41ez+YKv/rYNX/gFcsaGWIqnsfUcUajoLo3nonx4pI1cscVfOXgcb9N8tW6+jlGtftRjE5XRai/1z+WQeC2fUr+3bzFuicyvlcsaYy2JW/KpxY39c2j5LRmr1O/trRhzyGKpjcdSP83qlx58/FT743sYDgZbwyaljSqidu/PbP3knkNpXEcxfYwooeexvyX5OOSWSei1Nn8KAooZ3blREUHxgHhOuwoD7rJQ0PCbUV44KC5FDQWNfltJv0EF5IoNY6oY0fiK5QWNCiwVMipmVNBwDfKiRrn4c81V47v846M1P0YqKcuhhNsL5pJRaneyeL20fEr93r7FuCUyv1Yua4y1JG7JpxY39s+h5bdkrFK/t7dizCGLpTYeS/00q18aHz8NBgcQ31Cu3k01o9anTV2bvQoJFRMUEBQHFA8UDXzUw0dRiOcUFPRhg60KDl5LvEb0EdMLlpZUfKgAUb70EcvzUmFDQeOFUPRHTmv9Ir12g8Hg0uC9LT1kFDVnil+8o24zrfnFTW4NfAOVSsRj4dLdgpIyH5H1SUBO2vBjQUPh4UUNdz+8qNF3aWjTnREvaHituyUqbFT0ENfH8jEltWWFiXIlFkUNeUjkQxt9mb9i+PHI1saJ/ZLT6ndKNt7eUg3NL87zFGS5S8cmy0E6N7IcpWOT5SC1yHyk8yPJ8TrNL/1K9w2jA/FYri3IxonagmycqMwuI9pkOiey/Fw9RLtev6XMzU+4n3zj61LhksnJ+qMgbnq+GVIAqCDg0YsOvxMC2Rd/sVFhpOeyxU45ADa6o0NRosJE4wnyUgGEbfwODdcd+rBR3j4nSWgt5qyzSzFqBaYeYek4Ja2FYrVi+thrKiOzO4YySu0t3C/G0HiHKlJqB/c7J61JFk9t2XhqQ3p/6pF/++618fHT4BzwEzXTXaQ0d9/sVQgg3eng0e96RKnfbXiu4kd3VCg++A2qn//851c//elPb+hP/uRPpnbEb1hhxx0hihbdBSKm8lWeGkeFDG30IS9e5uLnCuIiJ8U+NBgMbi+jqBmcjGzDkc5lU6qN7QVGDzFWpszOUZHg8uJEz6Vo48JeikUNHw9RrPDr4BQxWVFDn4oa7ClquPtCDOIrVx9PBQ1Su3Jcgq+TFzMlxfUcDAa3i/Tjp8FgS3wjkoSee5vI2noLClGKO1cZ3h7to5ys3wVxnq32iNrZ2PXvP+mjJ9ooRJA+UuIjIp5ThHgf1wqKF/r94yT6KIooVjQOqFDCTx9V0UZcFT4S+KOeR7QukooVPSKh171ysrZeSrmLVn8N5dTKLeuv+dDXilliSS41ZL8knzXmEGP09MV2UWoH+pb4Qdbvba3+pawRQ9Ry5DH2q20vXj9se8H/ojAXpJvGN9XDUr/B4Jj4eTnnHPXzOvNr9UOPn2z0mOF97pcpwsavP5bnNhQdXAcQhYd/jKSiBhvaKWYkChrs6VexIti4FVNFDf7Y6e6Mipe4yZc2fc9bUgHlbcKfzyGLdS4op1ZuWX/Nh75WzBJLcqkh+yX5rDGHGKOnL7aLUjvQt8QPsn5va/VntPqhx6aXUo4l1fofFDXxj+/RORjcVpae3y0/vbFqzBm7Zutj6XlLDq+9aOA5RUlW1Kid10h3aHhUQSNbv/uiuPjSp4IIYecFTUapPc5Lin3Cn88hi3UuKKdWbll/zYe+VswSS3KpIfsl+awxhxijpy+2i1I70LfED7J+b2v1Z7T6oceml1KOrkjsl1TU3Psv/sHf+4LPxAWdkbkXHtHyO9R/Lpmfty2J2+OzZly1t/rXwGO14h46Lv6KwaM2Pb2Oz/11C7eJ57fHqtHy0xtLeF9P/Ej0KY0Vn2cfxbi4S8PHT/qjexLrre+96K4Nz/Hx2LorAuQk6aMsPtbiD/Xprw8TA6kwogiq3anx1y6hefj8hF7Hth6inV73+kc8Z3/eS23c3tyy/iU+kR4bcLteHyH7uX41WrF686Uvsy351GLBmn7e1uqfQytui5JPKUdXZN/+0G5/Lbh/9e1vf+fqz/3Wnx9fFB5cFjqRXS1att5fUoQ2bfLaYM8BbaAqBlQ8qIDgUd+Tocjgrgt/x4bfXvLvx1CIYKuiBOFHQeKiTX26I0NM4um3ouLfo1FuPcR19vWWvG0wGNxt7v39//I/675T03shEiX7Vryl47UgXi3mkvF6cj0kbqQ13pKxesjietuh4+KvGDxqExbxudv660hroyv5HYrntGSMlo/mxWN87vL2WjGAhHKXWkR/xeXOjeB46k6Qjq3H90dvj2isLO+MVr+IsXr9Snj+pbnU6MmllWPW3xO3Ra+f7HjceqwePFYWt3cs7CS9LuF2c2n5Zf3e1uqfQytui5JPKUek93gGzTftxp2awaCK3jCXCJsohYMXD3rt7XpOsRHldqiGbCTF1B0eSfF60PqXNBgMBhmjqBmcLdlm5lqbbAzplMzNx4sLL07icx5jMeNSnB4ptoS/FzRZzBqap+76SL1rMBgM7iajqBmcjNoG55tXJifrl2q0NtYl1OY0h2wuLTmeA4+x6IhtKjqQtyvOHGUxFVc2jvtCnAvEuUoZrf4SnseaGtxuxnFezhbrNquo8YtFrw4hi4cOYc1YpyTOw3XpZHNCW6ALkutQYowt8y+RjRnnWVO0P6TIQUs5xPcQYv5zNQcdq5LmkPmXtBZZbNexyXJAh7BmrDWI+UiHksVEx2CtMcedmsFZcuiJvYS5m9ElUtt8a20tDe42vhmd4r17DG7rvM6JNdb4voLUgkWbtRXJbKKWkMVpaQ3WjJvFmqNzJss3qkRmiyKldqe0aWdtPXg+2dixPyqjty/mfI7qIdrO8Y1ofVynIsvlNqpEZuuaSxYjU4vMJ+pUZLlkmksWI1NGZldSRq9dD+NOzeAiWesNcNvR5l+SPlbyj5YO/ahpjuay1G8wGNwNRlEzuFhGQdPGCwgvBmJ7SZHMZq4Gg8FgK0ZRM7gY/M5MVOnXfqNuA9m8pLXIipEtFdliToPB4PYziprBReGbnRQLmVjcXDo+t9Z8oq2vg69LD7Hg8CJkrgaDweAYbF7U6II6R6ciy8VVY47t1pwilzjm2uNm8V3asH0TL6kWr0aPbbQp2UFme6giPTanJCuAEGS5o0PJxqtJZLmcm7YiG0sqkdluraVksVw1MntpCVmcqEsiyz+TiO+7HOxdDxl3agYXTXxD3Cb8DR81GAwGl84W17KzKGriBXuLiQ5uF9k54+phiU8Pc+JG26jeO09O3086Oa3Yp+Jc8+oh5u7qIfNDl0SWPxq0uW1rFuez9pzu/YP/6r/44u23H/4r3XNYeuGUX8lfF+Vaf6Rkeyged864S/1Eq38Oh+ZSoncOJbs1x/U2nkepPeJtWf8axPH12HpTZ+2tCwCxa/Nw/xiL1634c/A85sZVLvIr+WftJdulKI+lcVt+Wb+3rTnuGrF647Z8TknMh9etfEtzUHupv0X0i/HWitsC+5LPITksjVvyU7ukH/y+/e3vXP3Wb/658fHT4HYST/yaBtujYiuqRLTL/p7OYDAYREZRMxgMzhIvaqIGg8EgYxQ1g1tBdgempcxvLQ7diNfM5ZzJ1ilTRq3vNuHrcBfmOxgcwtkWNXGzmaPB4C6TvSekwaBGds70aDA4F8admsFgMBgMBreCe//lP/z7zd9+WnrLs+VX6ld7q9/xtpJfi5Zfa1ynlc+SsaDl12JJLrBkXPmUfOe213AfH1dyvN+p2c7F/bIY+um29JNu6aff1k/FS/P1fHrxsdxvSQ7RJ+bj8Xnu7ZnNmmiMVvxS/1K/ErJfEndpLt7eiiF67damZ9xow2tvy2KU4pbaxdJ+tW81bsbaY9EuZSyJ6zHR+O2nwZ0jvglQicx2S90WKEqkwWAwOBX3T3lhjRf4rXUoWUwpktlEnYIsD2krjjVOJI57SXJK7Rlu2+Mzx7aEFzQup9ZXIuYm3Say+bW0FlnsNXUKsjwyzSWLIZ0TWX5zdCyysTMtYdypGQw2Zq0362AwGAzqjKJmcOvIigjkZP0tzSHzdw0Gg8FgfUZRM7gVZIXDoVo77ino/ahnzsdCW3Au63UuZOsRNRgMvsyXiprszSMdmywHqUZmL23FknGW+GzJsfKJ4yzRIWTxpGNwyuJhC7J1RIeSxZS2IBtnjlos8cnI4mytFplPScckG3+JtiIbKyqS2UinIMujpS0Zd2oGZ0f2JnCtxZqxBreLLc63tfEc19Jd4a7O+y5w7x/+1//gi7fs79RkB1g/Wc79CXPpT6QtP/qjTc9YmZ+T9fXEzXC/3rgtHyi19zLHv5XPMXNx8Iu+PbEyG2/zuP58DfQPMWZk77mlF1r3a81hzXEzDlk//e0J5VPKq8emF/ePsXycuchvjr/bRr/eeFl/LW4vrbgt1nxfRcijZ46tOZT85kKcWqxaf6u9FrfEEp8axJMyWv0tMj+Pie7fG3+nZjB4QHyDrKXBPLI1dA0Gg0EPo6gZ3BmyzfIYKpHZSufK2jl6vCUaDAYDZxQ1g0GBNTfNuBmXdNcZ6zAYDA5hFDWDO0etiPC+NcV3RKIyO+kuEeeutRkMBoO5cPW4cUGp4Xa92opsLKnGHNu1iGNKkcympGOT5eA6NlkOvXKy/nNSicwWRTKbtVUis11DJVpfjBZZzKglZHFQi8znGMrI7KIirf61ieO5TslW+WwR8zbwYD0eiMZxp2Yw2By/IEXdVcYaDAaDLbg/rimD24BvkiUdk2z80sdPh+JjtHDbTEvI4izVYL31vAvc1XkPytz7X/+j/+qLt956+HdqMpb+XYHe28GRlk/W720l/yV+PXGXQKxavFKf2pfmkvmtEWtJjDXn0AN+Nd+sb+lYLUq5qF19mU28ePtz980o+fUSx1qK4sRHWJKXU/Onr9TfGrfl1/LPwCf6xbas3x/n0PJZGtP9aufuGvhYS/KFzK8VtzXWnFxky2PJz22WsNRvDsq/NFZPf42sX/Ee/mC4f/z2t7599Zu/+Vvj46fBoBe9mVxbkI0TdU5k+UU5sW/Nu1aDwWB9/P0adW6MomYwOGMu4SICS/Kcaz8YDE7Pub9nR1EzGFTwN3BNa5HFbimS2UhrEmP6OL2KZG2Du0s8X8b5cXyyYxB1TkzfqXn77bevX87DPzOd8/lp6zPXVqysv2d8bGp2rbit/jksGauHJXHXHGsNiFuLvWa+3taKm715Sz6tWPS3bMSci0Yrrsfy5735lHKhfU6eMNe+F4+bjVEat5YPfbV+aPU7ileK621ZP5TaxdK4LZb6rUVpDj3nsOxbc8j6az70tWI6su3xmxPXmetXy6UWq+YnlsSFrF/jlb5Tc+9/87/9hycvaub4QmbfEwObml0rbqu/RI8NtMbqoZVjq7/E0nyWwFi18Zbmkvl529K4Ga1Y9PeOl72xS8yZg8edk0/G/uKyjzcn3xZLYrlP5l+KWRuLvlo/tPodxSvF9basH0rtYmncFkv9ljBnjj3nsOyXzKHkQ7vUi2zn+jktv7lxa7nUYtX8WrT8sn6NN74oPBgMBidEF2M0GAy2YRQ1g8GJ8E2upsFlkx1TNBgM1mcUNYPBCcg2uR61yHxKGmxLtuZRg5xsrTJFMhvX4PYziprB4MRkF9+aBpdDdvzQYDuy9UaDu8EoagaDwWAwGNwKVitqssp4Sy0li3UMzSWL0atIZpOpxlz7Q8nGc61FFvscVCKzdZ2CLcb2OR2iNcjirqk1yeKfm7YiG6ukjMyuV73M8Yu2W6uXJX7RR6qR2aMW406NkS3gUg0uj+w4HkPnQpbbEt01sjWQSmS2JUUym2PqLpKtgzSXtf1LuquMomYwGAwO5NibSjYeGgzuOvf+0Y/+61X++N4c5Bcfe8E++vTEmDsOuE/mX4oZ/aJdye9QsrGcrE9tc3Oaax9Z6o/fEt9D853DIXPzx7kc2w+22FAVb0nclk+pv9YuZfT0+2MPNVuN1YqX9Xtby38r5pxrS+a4lFos+g4ZS76K0xOrZOOx1qY1JswZ95Bc8Sn5qW+v8cf3BoM7gd70c3h4oejXbeSY8/OxDtWlkc2hpMGgh1HUDAa3iGwzcJXIbOfo0snm5FoD7lDEuxTZWGvpXMlyXapLROfBnDtWl47Peet574qay78gDQaDu8lt2ehuO9lxQnNY4jO4e9xfeoKtiedwyjzuAnGte5WR2bnOjUvIUWS5zpXI+tbQGmRxUYvMp1dLyOK4tuTY461Flvc561CymNLgeNz70T/+R1+8/fZb04u5t4Va9kv7e/yiTcsHeuLWyPpLPt7O82hX8mvR8lsSVz4130Pilij1L/VbwqGx1swF1o4XacWfcwFeI9fWeKV+ta+1YRDHY8W4sd9Re6k/EmNFv55+f3QOPb7eP+f4ZnG9rTVuicxv6/dIBnm05jBnjrKtxV1zPLE05tq5yL7mR1+pX3172ReF/+z4ovBgMLhj3Lwg7nUsTjn24DSMY31cRlEzGAwGg8HgVnCf4vFUlaSPm6lGZi9tRTaWdC5kuZ1aa5ONsYbOgSyvOWqR+bjmkPmvrYzMbm05WX9LGZldj+aQ+bvmkPkfWxmZ3daqkdm3NIfMH61NNoa0NWuOOe7UDAaDwYZkF+yaBreXcay356KLGr4wJg0Gg0GLuKm41iTGvn///iS9zmxc58y55+v7gusUZGsVNViXLxU1t3nRTzm3bOyoc2aLfLOY0qWQ5Y4G6zDW9vLJjuEWWpOt4w+2Y1fUPDxY2YHs1RZk40g1MvteLSWLdYhOQZZHr2pk9odoK7Kx1tCpOPX4h+Drl+nYZDnMUY1eu7m0Yvq4LVuYYyuiz9Y6hCxejw4li+laiyy269J4mDvPabhu/8f/5EcP/k5NidKtO2/PbFq3/JbeEsTv17/+ddF/zgHyGDyPMUtjtIhxI602nmc2h7JmzJhvZOlY+NV8D4l7LHysNcedE0vvg2POey6l96raW+/lOe910RozQrs+OspQ+9x+Xkui51iV4kXUX4rZ8o/EcVu5YufaGvJB7A0ZnkOWT6u/RcmnFou+JX5LqI11KK24sV+v5/oBbcg/zkXf+ta3r/7sv/+b44vCg8FgMBgMbgcXXdR4lXYb8fnd5nkO5pOdG2gOmf8cXQJZ3nN1m8jm16tIZhN1CrI80OBucLFFTXbSSreBbF7S4LLIjmFLJTLbkkTWdy7agmycQ3UssrGj5pLFOKaOTZZD1OD2MoqaM6J3Dpc8xzXwdZLOmSzfki6VbC4lbUk23ho6JVk+aC5ZjC11CrI8pMHdYHynZjAYDAaDwa3g3n/zT/ntp7evX+boW+61b7tnfTV7KPW3/DLcZ2lc+qNNj0/GUj/Rirt03IwlPtDyOyTuXN8e+yX5LJ2DM+enRI23xrjHZMkcoTTPJT9hZz6ZfylmqV20/Jb001ZqF1l/D9EvjrVW3Euh9Z5qzWtpf82PviV+S9kiJrTixn69rvnRl/WrPerGbz95x1I8Rktbk40ptch8pDU5NH7mL50LWW6n1uDyyY4rOiVZPj06hCxeTXedbE1cS8liraHBMu79k3/2v/vinXfeuX6ZV7Nqa1W6kZJ9K15rnLl5CPxqvlmft9X6a3F7iWMtibnEr8d+SS5L2XIOW8TdgtK4c/LRhfEYc5hzEe7Jp3Zxr41V8hG1/pof1Px64pb6M9w2+vXGy/prcXtZ6nfplOat9lZ/Bn21/mOzNJe5frKPjw5ttfaob31z/J2awWAwGAwGt4hR1JwxWTU6GEB2bqAWmc9SrUEWF/Wy1G8wGNxORlFzRsQLdE2Du0l2LpQksr61NYfMP1ONzF4aDAZ3l3v/9J//4xu//ZR93r30M3n8ar6lPrW3+ueS+Xlbqz9D/TW7VoyM3nEjtM8dr8d+bswarVhLxnKfmv/c2L32S3Ie7IuTGlm/Fy9zixj3jdRi1fxEK27L33Hb6NcbL/PzNn8+5/xtjRuZa3+ulOZRmx99rfmf0/oszWXpHNXu/aXngrZM4zs1F052UHuUkdmh20g2Tykjs3MN+sjW7hBtTTZmSYM2S9fL/c5Vg/Pi3j/7b/+bB3dqStX60p9C8av5tsZr9Tu1cWq435K46q/ZtWJkLPEB/NbKxW2X5pOhWFvEhKVxl/htMZfbSOni39oUsn5vm7upYF/yqcWt+ZWOvezjYw9uG/1642V+3ubPtzh/FT+OO2cs9zs1S3KJcz8mS9Z8aa4lP7XX4tLn/TVbkH3UuFMzGAwGK5BdYFEPmd9WapH5rKFIZlPSYDCXUdQMBoPBCck2c9cxycZfqsHgFIyiZjAYbEq24UmXQJb3EkUym2PKyfrPVYNBjVHUDAaDwYWRbfY9qpHZ17QmW8Ud3D2mX+nWP5NQ+jLR0i+RteItHY/+aNPyKdEzlshse8ZdklvJpxXr0H7Hbef4iZLPmjmKObmWLpyZ3xa53kVKa97axJb013zoK/V7e7Sp+YmeuI5iZv0lH6j5Oa3+yP3792f5zDn35+S69D235nsxy3fueoqlfocyZ03FklzxafmV+tXu/T2xMo0vCg8Gg8ERiRfhwWCwPqOoOQLxYlbSMcjGXarbRjZHqURm26M5ZP6XphaZD9qCbJyWlpDFiVqDLC7KyOykSyHLXTqELJ5rsB5bru2Nj59KrH27T35L49IfbVo+0GMTcZ/Mf0nMEq2xoDXeMfPpzWVuTnPtwX1a/nPeREvn0GJOvLXf9OeE5rZ0jplfLRZ9fMyS4X5z8pFt9IntpZhZe8kW6JP0upeeuL2c2zlMPlKLLB9vO0a+W7PmHGqx6GuNFfv1eq6foD1qfPw0uLVkJzwaDA4hO6e2ktPqLzHH9lA8t2OOm5Hl0qPB7WAUNYPBYDAYDG4Fo6gZ3Aqyn7xKGgzmkp1H5yIn63etSRa/pGORjb1Eg8vl/jiAhxHfDNLgIdn6oDXYKu7gdrDluRFjt7QmWXw06Dsug9vLvX/+L/7Jg3/QskTpi1etL2Qt7e/xizYtH+ixibjPHP+txmrFPXTcEpnNobmU+r09s/GLUnaB6onbi3yW+IpDfGHNi/ChuSylNYdS/9y5Y+8+mX/PWPG55Oh1qV+U2mu4T/TXWK246u895j0xS2R+a59rc+axJuf6ntmC0pi1XOibm6vsW35Zv8aL+tY3v3X1748vCg8Gg8FgMLgtjKJmcNZkFfmlkc1hjtYki38OmkPmv4buAtm8pcHgNrAravITPNPaZGO4amT20lZkY/Wol8y3pBKZrWspWSxXRma3lbYmG3Po9irSY7MW2VhLJLK+knro9cvselSi1T84Dn6szvF4jDs1g8FgcCLiBiEN+hhrNoiMomZw1vhFa1y81uU2rKnPoWce0X4tLQVf/sKxK8aOWostYh4DzzvT4G4ziprB2ZFdqEq6BLK8W9qKbKxzVonM9tSaSxajV0vI4rguhSx31+B2w2+j5aJzd378t//7f9r9bz/pUcTXkZJfi564NZtSX0/cSMunhyUxWnNYmlfm521z4i7NQfT4Zxcp/Gq+pb5D883YImaNOeNla+dt/py4W86ltdm0+h1sZZ/51WLRV/q3n0rIpxa3hvyi/9K4pXg9uE/05/gvibmE2rnWyqOVYyn20vN7qd+hHOtYCMYrjdnKZWn/IX5RXf/2U+Y4V6cgy6OkcyXLtUctMh/p2GQ5RC0hi7O1BtuQrTXagmwcaW22insIPt8tNYcl/nNsB7ePe//iv/tnxTs1OilUqcaKtVXB0i9ltPxL1GLWyHy8rdW/lDViCMUqxVwylsdcM+5W1PKsscUcFPNY6zNnnOyi7m3+nLjHmoOjHLJcYc4cRCkW0Fe6U1Pyo11agvzc32N6ew+yn+sH7pP5L4k5Fz/XSufcIXN0PH42Vmn820ptPekr9S89DvI71D9Ce9T4V7oHgwsme1OjQ8jiHUu3kWye0mAw2IZR1AwGF0S2QZY0h8z/tqqHufbgPj2qkdlLg8GgzChqBoPBxZFt9j3agmycTEtZI8ZgcFcYRc1gcGH4JpfpELJ4Jc0h80ci61tDfH9G4vVa1Mbx8VpqkflIg8Hgy1xsUZO9yXtUI7Nv6VRkuUhLyWIdoi3JxttCvWS+Q+epjMxuaJl6yPxcg8Ec+MK3/rv3L/67f/7FL3+53d+pqdm0/Ess9fv1r38927dl3xMvs1k6hxbEnRvb7Uu+S/Jt+SyJeQi3YQ7QuujXcnLfLM6cDWXO3OduVLJv5Rj7eV3qb+Vbi6s7Lxm0SxmldpH1e1vLfw6tuGuMpXXuOT/mHJMWWSxva/WfG2se9x4YrzTm0lzkd6h/hHYXfOtb47efuoiLV9Jt4TbOSfjc5qpEZru1WmQ+vbrNZPN1lchso05BlsehOjZZDq7BYC73/o//5//DF+++++71y5wH1WyoaltVLv38V2JplbzUb8mdmhaKV4ub9a2dhyDu3NDFXKx9Sb61Yw9brcGaKMdLyLUH3ygO3TTmrMncsWS/29qmR+dGrBCXPu8P3dckMR/8354bMfjvfnmTVXurv0TW723ZGkArborHXeLfwYPz4sjvmex89GtQ2r9Cjq0YS9d5q+NTYjrPC2MuzuXab+01oJk+7//GN7559Wf+9P/86t7/7f/+L794771fXTfn6KDFg9c6H7CvHvBWgAIL3XZ+GxY1lQ08G3PtPARx54Yu5mLtS9K9TUXNogU4Q25cJAoXjH58TbJYrX5P4Wb/w1df9ruRdphDvNCF7muSmPxnzTfWacf0Og/2wJYYGQW3hyQGN+ewMG5CT9xD0Xvm2O/vbDjPIc1nhRxbIRYv80bHpwTnw5rnGije0nOt9J4ioX2+1693vPba61f/3m/8z67+/zDdc7FbIWr7AAAAAElFTkSuQmCC;" vertex="1" parent="1">
          <mxGeometry x="72.44" y="630" width="199.56" height="160" as="geometry" />
        </mxCell>
        <mxCell id="9yGiAa_hOHb7mivVmC5j-4" value="KeyFrame:#1" style="text;html=1;strokeColor=none;fillColor=none;align=center;verticalAlign=middle;whiteSpace=wrap;rounded=0;" vertex="1" parent="1">
          <mxGeometry x="120" y="570" width="80" height="30" as="geometry" />
        </mxCell>
        <mxCell id="9yGiAa_hOHb7mivVmC5j-5" value="Frame:#N" style="text;html=1;strokeColor=none;fillColor=none;align=center;verticalAlign=middle;whiteSpace=wrap;rounded=0;" vertex="1" parent="1">
          <mxGeometry x="131" y="790" width="69" height="20" as="geometry" />
        </mxCell>
      </root>
    </mxGraphModel>
  </diagram>
</mxfile>
